<svg xmlns="http://www.w3.org/2000/svg" xmlns:xlink="http://www.w3.org/1999/xlink" xmlns:lucid="lucid" width="1136.93" height="606.88"><g transform="translate(0 0)" lucid:page-tab-id="0_0"><path d="M490.1 95.4h28.3v34.36h-28.3z" fill="#fff" fill-opacity="0"/><path d="M517.56 114.7v.9c-2.73.3-3.13 1.35-3.13 3.64v4.3c-2.36 1.37-6.3 2.28-10.07 2.28-7.3 0-12.9-4.94-12.9-12.73 0-7.24 5.37-13.1 12.64-13.1 1.9 0 3.53.4 5.64 1.27.83.37 1.3.5 1.67.5.7 0 1.07-.35 1.6-1.66h1v8.56h-.92c-1.27-2.77-1.92-4.04-3.5-5.42-1.55-1.38-3.3-2.04-5-2.04-4.22 0-6.7 4.1-6.7 11.64 0 3.74.55 6.62 1.75 8.62 1.27 2.1 2.83 3.16 5.63 3.16 2.6 0 3.5-1.24 3.5-3.1v-3.23c0-1.9-.6-2.52-3.7-2.7v-.9h12.5"/><path d="M915.04 28.83h26.28V60.9h-26.28z" fill="#fff" fill-opacity="0"/><path d="M940.53 31.68v.9c-1.9.26-2.4.74-3.27 3l-8.3 21.34H928l-9.32-21.78c-.88-2.04-1.24-2.3-3.06-2.55v-.92h12.22v.9l-1.2.08c-1.38.07-1.93.47-1.93 1.3 0 .56.12.88.85 2.63l5.02 12.14 4.62-11.97c.6-1.6.72-2 .72-2.58 0-1.17-.55-1.43-3.13-1.6v-.92h7.73"/><path d="M145.76 237.43l56.4 55.56M145.78 237.45l-.73-.72" stroke="#000" stroke-width="2" fill="none"/><path d="M213.03 303.7l-13.4-6.7 6.5-6.6z" stroke="#000" stroke-width="2"/><path d="M145.05 237.73v82.74M145.05 237.76v-1.03" stroke="#000" stroke-width="2" fill="none"/><path d="M145.05 335.74l-4.64-14.27h9.28z" stroke="#000" stroke-width="2"/><path d="M145.97 236.35l61.97-25.52M146 236.34l-.95.4" stroke="#000" stroke-width="2" fill="none"/><path d="M222.06 205l-11.43 9.73-3.53-8.57z" stroke="#000" stroke-width="2"/><path d="M216.53 271.06h17.26v25.23h-17.27z" fill="#fff" fill-opacity="0"/><path d="M232.68 276.1l-3.24 12.65c-.03.14-.03.22-.03.33 0 .3.15.5.52.5.76 0 1.45-.94 2.07-1.67l.17-.2.47.4c-.83 1.2-2.7 3.9-4.8 3.9-1.05 0-1.45-.7-1.45-1.9 0-.33.03-.9.13-1.35l.95-3.46h-.04c-.25.18-3.52 4.58-4.98 5.67-.83.62-1.78 1.02-2.62 1.02-1.7 0-2.22-1.32-2.22-2.7 0-.77.1-1.46.3-2.15l2.14-8.4c.15-.55.22-.77.22-.9 0-.45-.4-.85-1.2-.85-.26 0-.7.04-.95.1l-.1-.53 5.7-.95-3.05 11.86c-.07.32-.1.58-.1.87 0 .76.28 1.24.94 1.24.9 0 2.36-1.14 3.63-2.8 1.57-2.1 3.24-5.32 3.97-7.98l.76-2.73h2.8"/><path d="M157.65 316.06h18.42v25.23h-18.42z" fill="#fff" fill-opacity="0"/><path d="M166.63 320.15L163.4 332c-.12.37-.15.77-.15 1.17 0 1.38.72 2.4 2.18 2.4 3.93 0 6.47-4.1 7.64-7.4.3-.86.54-1.77.54-2.68 0-2.7-2.2-2.37-2.2-3.97 0-1.24.9-1.53 1.96-1.53 1.52 0 1.7 1.86 1.7 3.02 0 3.6-1.4 7.27-3.52 10.18-1.57 2.18-4.37 3.78-7.06 3.78-2.32 0-4.22-.72-4.22-3.38 0-.76.1-1.52.33-2.25l2.1-7.64c.07-.28.18-.6.18-.9 0-.73-1.6-.73-2.07-.73v-.54c1.9-.47 3.86-.73 5.68-1.53"/><path d="M205.05 163.78h19.36v32.07h-19.35z" fill="#fff" fill-opacity="0"/><path d="M224.2 166.92l-5.4 21.75c-.04.1-.08.33-.08.44 0 .22.18.33.55.33.72 0 1.74-1.27 2.25-2.03l.4.43c-1.1 1.64-3.02 3.82-4.73 3.82-1.17 0-1.46-.84-1.46-1.5 0-.72.07-1.23.36-2.32h-.18c-2.7 3.38-4.87 3.82-6.22 3.82-2.65 0-3.2-2.7-3.2-4.62 0-3.74 3.75-11.85 9.35-11.85 2.07 0 2.9.94 2.94 1.82h.07l1.92-7.6c.03-.15.07-.3.07-.44 0-.47-.26-.73-1.2-.73-.33 0-.73.07-.98.1l-.16-.54m-.3 11.05c0-1.7-.54-2.58-2.03-2.58-3.6 0-6.53 7.27-6.53 10.76 0 1.78 1 2.4 2.03 2.4 2.55 0 4.95-3.42 5.97-6.76.4-1.27.58-2.7.58-3.82"/><path d="M678.55 294.68v-1.95m0-3.9v-3.9m0-3.92v-3.9m0-3.9v-3.9m0-3.9v-3.92m0-3.9v-3.9m0-3.92v-3.9m0-3.9v-3.9m0-3.92v-3.9m0-3.9v-3.92m0-3.9v-3.9m0-3.9v-3.92m0-3.9V199m0-3.92v-3.9m0-3.9v-3.9m0-3.92v-3.9m0-3.9v-1.96M678.55 294.67v.5M678.55 169.7v-.5" stroke="#000" fill="none"/><path d="M950.2 237L780.14 104.73l-119.68 50.4V281.1l170.08 132.28 119.68-50.4z" stroke="#000" stroke-width="2" fill="#ffeca9" filter="url(#a)"/><path d="M829.74 286.8l-168.5-131.07M829.72 286.77l.8.63M661.26 155.75l-.8-.63M831.45 287l117.84-49.6M831.47 287l-.94.4M949.27 237.4l.94-.4" stroke="#000" stroke-width="2" fill="none"/><path d="M787.55 379.46v-2.02m0-4.03v-4.02m0-4.03v-4.03m0-4.03v-4.04m0-4.03v-4.03m0-4.03v-4.03m0-4.03v-4.03m0-4.03V321m0-4.02v-4.03m0-4.03v-4.03m0-4.04v-4.03m0-4.03v-4.03m0-4.03v-4.03m0-4.02v-4.03m0-4.04v-4.02m0-4.03v-2M787.55 379.45v.5M787.55 258.55v-.5M765.55 362.35v-1.96m0-3.9v-3.92m0-3.9v-3.9m0-3.9v-3.92m0-3.9v-3.9m0-3.92v-3.9m0-3.9v-3.9m0-3.92v-3.9m0-3.9v-3.92m0-3.9v-3.9m0-3.92v-3.9m0-3.9v-3.9m0-3.92v-3.9m0-3.9v-3.92m0-3.9v-3.9m0-3.9v-3.92m0-3.9v-1.96M765.55 362.33v.52M765.55 237.38v-.52M743.55 345.24v-1.96m0-3.9v-3.9m0-3.9v-3.92m0-3.9v-3.9m0-3.92v-3.9m0-3.9v-3.9m0-3.92v-3.9m0-3.9v-3.92m0-3.9v-3.9m0-3.9v-3.92m0-3.9v-3.9m0-3.92v-3.9m0-3.9v-3.92m0-3.9v-3.9m0-3.9v-3.92m0-3.9v-3.9m0-3.92v-1.95M743.55 345.22v.52M743.55 220.26v-.5M722.55 328.9v-1.95m0-3.9v-3.9m0-3.92v-3.9m0-3.9v-3.9m0-3.92v-3.9m0-3.9v-3.9m0-3.9v-3.92m0-3.9v-3.9m0-3.92v-3.9m0-3.9v-3.9m0-3.92v-3.9m0-3.9V241m0-3.9v-3.9m0-3.9v-3.92m0-3.9v-3.9m0-3.92v-3.9m0-3.9v-1.96M722.55 328.9v.5M722.55 203.93v-.5M700.55 311.8v-1.96m0-3.9v-3.9m0-3.92v-3.9m0-3.9v-3.92m0-3.9v-3.9m0-3.9v-3.92m0-3.9v-3.9m0-3.92v-3.9m0-3.9v-3.9m0-3.92v-3.9m0-3.9v-3.92m0-3.9v-3.9m0-3.9v-3.92m0-3.9v-3.9m0-3.92v-3.9m0-3.9v-3.9m0-3.92v-1.95M700.55 311.78v.5M700.55 186.82v-.5" stroke="#000" fill="none"/><path d="M830.44 381.2l-.6.78-1.58-1.22.6-.8zm-4.7-3.67l-.62.8-3.13-2.45.6-.8zm-6.27-4.88l-.62.8-3.13-2.45.6-.8zm-6.27-4.87l-.62.8-3.13-2.45.6-.8zm-6.27-4.88l-.62.8-3.12-2.45.6-.8zm-6.27-4.88l-.62.8-3.13-2.45.62-.8zm-6.27-4.87l-.63.8-3.13-2.45.6-.8zm-6.28-4.88l-.62.8-3.13-2.45.6-.8zm-6.27-4.88l-.62.78-3.13-2.44.6-.8zm-6.27-4.88l-.62.8-3.13-2.45.6-.8zm-6.27-4.88l-.6.8-3.14-2.45.6-.8zm-6.26-4.88l-.62.8-3.13-2.45.6-.78zm-6.27-4.87l-.62.78-3.13-2.44.6-.8zm-6.27-4.9l-.62.8-3.13-2.44.6-.8zm-6.27-4.87l-.62.8-3.12-2.45.6-.8zm-6.27-4.87l-.62.8-3.13-2.45.62-.78zm-6.27-4.88l-.63.8-3.13-2.45.6-.8zm-6.28-4.88l-.62.8-3.13-2.45.6-.8zm-6.27-4.87l-.62.8-3.13-2.45.6-.8zm-6.27-4.88l-.62.8-3.13-2.45.6-.8zm-6.27-4.88l-.6.8-3.14-2.45.6-.8zm-6.26-4.87l-.62.8-3.13-2.45.6-.8zm-6.27-4.88l-.62.8-3.13-2.45.6-.8zm-6.27-4.88l-.62.8-3.13-2.45.6-.8zm-6.27-4.87l-.62.8-3.12-2.45.6-.8zm-6.27-4.88l-.62.78-3.13-2.44.62-.8zm-6.27-4.9l-.63.8-3.13-2.44.6-.8zm-6.28-4.86l-.62.8-1.56-1.23.6-.78z"/><path d="M830.84 381.5l-.62.78-.4-.3.6-.8zM661.16 249.52l-.6.8-.42-.32.62-.8zM830.44 349.7l-.6.78-1.58-1.22.6-.8zm-4.7-3.67l-.62.8-3.13-2.45.6-.8zm-6.27-4.87l-.62.8-3.13-2.45.6-.78zm-6.27-4.88l-.62.8-3.13-2.45.6-.8zm-6.27-4.88l-.62.8-3.12-2.45.6-.8zm-6.27-4.87l-.62.8-3.13-2.45.62-.8zm-6.27-4.88l-.63.8-3.13-2.45.6-.8zm-6.28-4.88l-.62.8-3.13-2.45.6-.8zm-6.27-4.87l-.62.8-3.13-2.45.6-.8zm-6.27-4.88l-.62.8-3.13-2.45.6-.8zm-6.27-4.88l-.6.8-3.14-2.45.6-.8zm-6.26-4.87l-.62.8-3.13-2.45.6-.8zm-6.27-4.88l-.62.78-3.13-2.44.6-.8zm-6.27-4.9l-.62.8-3.13-2.44.6-.8zm-6.27-4.86l-.62.8-3.12-2.45.6-.8zm-6.27-4.88l-.62.8-3.13-2.45.62-.78zm-6.27-4.88l-.63.8-3.13-2.45.6-.8zM725.4 268l-.62.8-3.13-2.44.6-.8zm-6.27-4.87l-.62.8-3.13-2.45.6-.8zm-6.27-4.88l-.62.8-3.13-2.45.6-.78zm-6.27-4.87l-.6.8-3.14-2.45.6-.8zm-6.26-4.88l-.62.8-3.13-2.45.6-.8zm-6.27-4.88l-.62.8-3.13-2.45.6-.78zm-6.27-4.87l-.62.8-3.13-2.45.6-.8zm-6.27-4.88l-.62.8-3.12-2.45.6-.8zm-6.27-4.88l-.62.78-3.13-2.44.62-.78zM669 224.1l-.63.8-3.13-2.45.6-.8zm-6.28-4.88l-.62.8-1.56-1.23.6-.78z"/><path d="M830.84 350l-.62.8-.4-.33.6-.8zM661.16 218.03l-.6.8-.42-.33.62-.8z"/><path d="M928.58 219.47l-1.87.8m-3.72 1.58l-3.73 1.6m-3.72 1.57l-3.73 1.6m-3.73 1.58l-3.73 1.6m-3.73 1.58l-3.72 1.6m-3.73 1.57l-3.73 1.6m-3.73 1.58l-3.74 1.6m-3.73 1.58l-3.73 1.6m-3.73 1.58l-3.72 1.6m-3.73 1.58l-3.73 1.6m-3.74 1.58l-3.73 1.6m-3.73 1.57l-3.73 1.6m-3.73 1.6l-3.73 1.58m-3.72 1.6l-3.73 1.57m-3.73 1.6l-3.73 1.58m-3.73 1.6l-3.73 1.58m-3.73 1.6l-1.86.8" stroke="#000" fill="none"/><path d="M929.5 219.62l-.74.3-.4-.9.23-.1z"/><path d="M809.25 270.3l-.47.2M908.23 203.64l-1.86.8m-3.73 1.58l-3.73 1.6m-3.72 1.58l-3.73 1.6m-3.73 1.58l-3.73 1.6m-3.74 1.57l-3.72 1.6m-3.73 1.58l-3.72 1.6m-3.73 1.58l-3.73 1.6m-3.73 1.58l-3.74 1.6m-3.73 1.58l-3.73 1.6m-3.73 1.58l-3.73 1.6m-3.73 1.57l-3.72 1.6m-3.73 1.6l-3.72 1.58m-3.73 1.6l-3.73 1.58m-3.73 1.58l-3.73 1.6m-3.72 1.58l-3.73 1.6m-3.73 1.58l-3.73 1.58m-3.74 1.6l-1.86.8" stroke="#000" fill="none"/><path d="M909.15 203.8l-.73.3-.4-.9.22-.1z"/><path d="M788.9 254.46l-.46.2M886.18 186.5l-1.87.78m-3.72 1.6l-3.73 1.58m-3.73 1.6l-3.73 1.57m-3.74 1.6l-3.72 1.58m-3.73 1.6l-3.72 1.6m-3.73 1.57l-3.73 1.6m-3.73 1.58l-3.74 1.6m-3.73 1.58l-3.73 1.6m-3.73 1.57l-3.73 1.6m-3.73 1.58l-3.72 1.6m-3.72 1.58l-3.73 1.6m-3.73 1.57l-3.73 1.6m-3.73 1.58l-3.73 1.6m-3.72 1.6l-3.73 1.58m-3.73 1.58l-3.73 1.6m-3.74 1.58l-3.73 1.6m-3.73 1.58l-1.86.8" stroke="#000" fill="none"/><path d="M887.1 186.64l-.74.3-.4-.9.22-.1z"/><path d="M766.85 237.3l-.47.2M863.5 168.86l-1.85.8m-3.73 1.58l-3.73 1.6m-3.74 1.58l-3.73 1.6M843 177.6l-3.73 1.58m-3.73 1.6l-3.72 1.58m-3.73 1.6l-3.74 1.58m-3.73 1.6l-3.73 1.57m-3.73 1.6l-3.73 1.6m-3.73 1.58l-3.72 1.6m-3.73 1.58l-3.73 1.58m-3.73 1.6l-3.74 1.58m-3.72 1.6l-3.73 1.58m-3.72 1.58l-3.73 1.6m-3.73 1.58l-3.73 1.6m-3.74 1.58l-3.73 1.6m-3.73 1.57l-3.73 1.6m-3.73 1.6l-1.86.8" stroke="#000" fill="none"/><path d="M864.43 169.02l-.73.3-.4-.9.22-.1z"/><path d="M744.2 219.68l-.48.2M843.16 153.03l-1.87.8m-3.74 1.58l-3.73 1.6m-3.73 1.6l-3.72 1.57m-3.73 1.6l-3.73 1.58m-3.73 1.6l-3.74 1.58m-3.73 1.6L804 169.7m-3.73 1.6l-3.73 1.58m-3.73 1.6l-3.72 1.58m-3.73 1.6l-3.73 1.57m-3.72 1.6l-3.73 1.58m-3.73 1.6l-3.73 1.6m-3.72 1.58l-3.73 1.58m-3.73 1.6l-3.73 1.58m-3.74 1.6l-3.73 1.58m-3.73 1.58l-3.73 1.6m-3.73 1.58l-3.72 1.6m-3.73 1.58l-1.88.8" stroke="#000" fill="none"/><path d="M844.07 153.18l-.73.3-.4-.9.23-.1z"/><path d="M723.83 203.85l-.47.2M821.08 135.86l-1.86.8m-3.73 1.58l-3.74 1.6m-3.73 1.58l-3.73 1.6m-3.73 1.57l-3.73 1.58m-3.73 1.6l-3.72 1.58m-3.72 1.6l-3.73 1.58m-3.73 1.58l-3.73 1.6m-3.73 1.58l-3.73 1.6m-3.72 1.58l-3.73 1.6m-3.73 1.57l-3.73 1.6m-3.74 1.58l-3.73 1.6M740.9 170l-3.72 1.6m-3.73 1.58l-3.73 1.6m-3.73 1.58l-3.74 1.6m-3.73 1.58l-3.73 1.58m-3.73 1.6l-3.73 1.58m-3.73 1.6l-1.85.78" stroke="#000" fill="none"/><path d="M822 136l-.73.32-.4-.92.22-.1z"/><path d="M701.76 186.68l-.47.2M798.92 118.62l-1.87.8m-3.73 1.58l-3.73 1.6m-3.74 1.58l-3.73 1.58m-3.73 1.6l-3.73 1.58m-3.72 1.6l-3.73 1.58m-3.73 1.6l-3.74 1.57m-3.73 1.58l-3.73 1.6m-3.73 1.58l-3.73 1.6m-3.73 1.57l-3.72 1.6m-3.73 1.58l-3.73 1.6m-3.73 1.6l-3.73 1.58m-3.73 1.58l-3.73 1.6m-3.72 1.58l-3.73 1.6m-3.73 1.58l-3.73 1.6m-3.74 1.57l-3.73 1.58m-3.73 1.6l-3.73 1.58m-3.73 1.6l-1.86.78" stroke="#000" fill="none"/><path d="M799.83 118.77l-.73.3-.4-.9.22-.1z"/><path d="M679.6 169.44l-.48.2M853.18 277.4l-1.58-1.24m-3.14-2.45l-3.14-2.45m-3.14-2.45l-3.14-2.46m-3.15-2.45l-3.15-2.47m-3.14-2.45l-3.13-2.46m-3.14-2.46l-3.15-2.45m-3.14-2.45l-3.14-2.45m-3.14-2.46l-3.15-2.45m-3.13-2.47l-3.14-2.45m-3.14-2.46l-3.15-2.45m-3.15-2.46l-3.14-2.44m-3.14-2.46l-3.14-2.46m-3.15-2.45l-3.14-2.47m-3.15-2.45l-3.14-2.46m-3.13-2.45l-3.15-2.46m-3.14-2.44l-3.14-2.46m-3.14-2.45l-3.15-2.46m-3.14-2.46l-3.13-2.46m-3.14-2.45l-3.14-2.46m-3.16-2.46l-3.14-2.44m-3.14-2.46l-3.14-2.45m-3.15-2.46l-3.14-2.46m-3.14-2.46l-3.15-2.45m-3.14-2.46l-3.14-2.45m-3.14-2.46l-3.14-2.45m-3.14-2.45l-3.15-2.46m-3.15-2.46l-3.14-2.46m-3.13-2.45l-1.57-1.23M853.17 277.38l.4.32" stroke="#000" fill="none"/><path d="M683.82 144.4l-.62.8-.62-.48 1.05-.45z"/><path d="M877.9 266.98l-1.57-1.23m-3.14-2.45l-3.15-2.46m-3.15-2.45l-3.14-2.47m-3.14-2.45l-3.14-2.46m-3.15-2.46l-3.14-2.45m-3.15-2.45l-3.14-2.45m-3.13-2.46l-3.15-2.45m-3.14-2.47l-3.14-2.45m-3.14-2.46l-3.14-2.45M822.9 224l-3.13-2.44m-3.14-2.46l-3.14-2.46m-3.16-2.45l-3.14-2.47m-3.14-2.45l-3.14-2.46m-3.14-2.45l-3.15-2.46m-3.14-2.44l-3.15-2.46m-3.14-2.45l-3.14-2.46m-3.14-2.46l-3.14-2.46m-3.14-2.45l-3.14-2.46m-3.15-2.46l-3.14-2.44m-3.13-2.46l-3.14-2.45m-3.15-2.46l-3.14-2.46m-3.14-2.46l-3.14-2.45m-3.14-2.46l-3.15-2.45m-3.14-2.46l-3.14-2.45m-3.15-2.45l-3.15-2.46m-3.14-2.46l-3.14-2.46m-3.14-2.45l-3.14-2.46m-3.15-2.45l-1.58-1.23M877.9 266.97l.4.32" stroke="#000" fill="none"/><path d="M708.54 134l-.62.8-.62-.5 1.06-.44z"/><path d="M899.6 257.85l-1.58-1.23m-3.15-2.45l-3.14-2.46m-3.14-2.44l-3.15-2.46m-3.14-2.46l-3.14-2.45m-3.14-2.47l-3.14-2.45m-3.14-2.46l-3.15-2.45m-3.15-2.46l-3.14-2.44m-3.13-2.46l-3.14-2.45m-3.15-2.46l-3.14-2.46m-3.14-2.46l-3.14-2.46m-3.15-2.45l-3.13-2.46m-3.14-2.44l-3.14-2.46m-3.15-2.45l-3.15-2.46m-3.14-2.46l-3.14-2.46m-3.14-2.45l-3.15-2.46m-3.14-2.45l-3.15-2.46m-3.14-2.46l-3.13-2.45m-3.15-2.46l-3.14-2.46m-3.14-2.46l-3.14-2.45m-3.15-2.46l-3.14-2.45m-3.13-2.46l-3.14-2.45m-3.14-2.45l-3.16-2.45m-3.14-2.46l-3.14-2.45m-3.14-2.47l-3.14-2.46m-3.15-2.45l-3.14-2.46m-3.15-2.45l-3.14-2.45m-3.14-2.45l-3.14-2.46m-3.14-2.45l-1.57-1.24M899.58 257.84l.4.32" stroke="#000" fill="none"/><path d="M730.23 124.87l-.62.8-.6-.5 1.04-.44z"/><path d="M923.06 247.96l-1.57-1.22m-3.15-2.46l-3.14-2.45m-3.13-2.46l-3.15-2.46m-3.14-2.44l-3.14-2.46m-3.14-2.45l-3.14-2.46m-3.15-2.46l-3.13-2.46m-3.14-2.45l-3.14-2.46m-3.15-2.45l-3.15-2.46m-3.14-2.45l-3.14-2.45m-3.14-2.46l-3.15-2.46m-3.14-2.46l-3.15-2.45m-3.14-2.46l-3.13-2.45m-3.15-2.46l-3.14-2.45m-3.14-2.45l-3.14-2.45m-3.15-2.46L833.5 178m-3.13-2.47l-3.14-2.45m-3.14-2.46l-3.16-2.46m-3.14-2.45l-3.14-2.45m-3.14-2.45l-3.15-2.46m-3.14-2.45l-3.14-2.47m-3.15-2.45l-3.14-2.46m-3.14-2.45l-3.14-2.46m-3.14-2.44l-3.14-2.46m-3.15-2.46l-3.15-2.45m-3.14-2.47l-3.13-2.45m-3.14-2.46l-3.15-2.45m-3.14-2.46l-3.14-2.44m-3.14-2.46l-1.57-1.23M923.05 247.96l.4.3" stroke="#000" fill="none"/><path d="M753.7 115l-.6.78-.64-.5 1.06-.44z"/><path d="M853.1 404.47v-1.97m0-3.94v-3.94m0-3.94v-3.94m0-3.94v-3.94m0-3.94v-3.94m0-3.94v-3.94m0-3.94v-3.94m0-3.93v-3.95m0-3.94v-3.93m0-3.94v-3.94m0-3.95v-3.94m0-3.93v-3.94m0-3.94v-3.95m0-3.94v-3.93m0-3.94v-3.94m0-3.95v-3.94m0-3.93v-1.97" stroke="#000" fill="none"/><path d="M853.6 404.76l-1 .42v-.72h1z"/><path d="M853.1 278.4v-.5M877.9 394.02v-1.97m0-3.94v-3.93m0-3.94v-3.94m0-3.94v-3.94m0-3.94v-3.94m0-3.94v-3.94m0-3.94v-3.94m0-3.94v-3.94m0-3.94v-3.94m0-3.94v-3.94m0-3.94v-3.94m0-3.94v-3.94m0-3.94v-3.94m0-3.94v-3.94m0-3.94v-3.94m0-3.94v-3.94m0-3.94v-1.97" stroke="#000" fill="none"/><path d="M878.4 394.3l-1 .43V394h1z"/><path d="M877.9 267.97v-.52M899.82 384.8v-1.98m0-3.94v-3.94m0-3.93v-3.93m0-3.94v-3.94m0-3.95v-3.94m0-3.93v-3.94m0-3.94v-3.95m0-3.94v-3.93m0-3.94v-3.94m0-3.95v-3.94m0-3.93v-3.94m0-3.94v-3.95m0-3.94v-3.93m0-3.94v-3.94m0-3.95v-3.94m0-3.93v-3.94m0-3.94v-1.98" stroke="#000" fill="none"/><path d="M900.32 385.08l-1 .42v-.72h1z"/><path d="M899.82 258.74v-.52M923.15 374.97V373m0-3.94v-3.94m0-3.94v-3.94m0-3.94v-3.94m0-3.94v-3.94m0-3.94v-3.93m0-3.93v-3.94m0-3.94v-3.95m0-3.94v-3.93m0-3.94v-3.94m0-3.95v-3.94m0-3.93v-3.94m0-3.94v-3.95m0-3.94v-3.93m0-3.94v-3.94m0-3.95v-3.94m0-3.93v-1.97" stroke="#000" fill="none"/><path d="M923.65 375.26l-1 .42v-.72h1z"/><path d="M923.15 248.92v-.52M950.75 266.97l-1.87.8m-3.74 1.58l-3.74 1.6m-3.75 1.58l-3.74 1.6m-3.73 1.57l-3.74 1.6m-3.75 1.58l-3.74 1.6m-3.74 1.58l-3.74 1.6m-3.75 1.57l-3.73 1.6m-3.74 1.58l-3.75 1.6m-3.74 1.6l-3.74 1.58m-3.74 1.58l-3.75 1.6m-3.73 1.58l-3.74 1.6m-3.74 1.58l-3.76 1.58m-3.74 1.6l-3.74 1.58m-3.74 1.6l-3.75 1.58m-3.74 1.6l-3.74 1.57m-3.75 1.6l-3.75 1.58m-3.74 1.6l-1.87.8" stroke="#000" fill="none"/><path d="M951.2 267.32l-.26.1-.4-.9.67-.3z"/><path d="M831 317.8l-.47.2M950.75 299.23l-1.87.8m-3.74 1.58l-3.74 1.6m-3.75 1.6l-3.74 1.58m-3.73 1.58l-3.74 1.6m-3.75 1.58l-3.74 1.6m-3.74 1.58l-3.74 1.6m-3.75 1.57l-3.73 1.58m-3.74 1.6l-3.75 1.58m-3.74 1.6l-3.74 1.58m-3.74 1.58l-3.75 1.6m-3.73 1.58l-3.74 1.6m-3.74 1.58l-3.76 1.6m-3.74 1.57l-3.74 1.6m-3.74 1.58l-3.75 1.6m-3.74 1.58l-3.74 1.6m-3.75 1.58l-3.75 1.6m-3.74 1.58l-1.87.8" stroke="#000" fill="none"/><path d="M951.2 299.58l-.26.1-.4-.9.67-.3z"/><path d="M831 350.05l-.47.2M950.75 329.57l-1.87.8m-3.74 1.58l-3.74 1.6m-3.75 1.58l-3.74 1.6m-3.73 1.58l-3.74 1.6m-3.75 1.58l-3.74 1.6m-3.74 1.58l-3.74 1.6m-3.75 1.58l-3.73 1.6m-3.74 1.57l-3.75 1.6m-3.74 1.6l-3.74 1.58m-3.74 1.6l-3.75 1.58m-3.73 1.58l-3.74 1.6m-3.74 1.58l-3.76 1.6m-3.74 1.58l-3.74 1.6m-3.74 1.57l-3.75 1.6m-3.74 1.58l-3.74 1.6m-3.75 1.58l-3.75 1.6m-3.74 1.57l-1.87.8" stroke="#000" fill="none"/><path d="M951.2 329.92l-.26.12-.4-.92.67-.3z"/><path d="M831 380.4l-.47.2" stroke="#000" fill="none"/><path d="M787.47 285.4l21 16.5v31.5l-21.17-16.43zM808.47 302.15l22.5-10.25-.25 32.25-22 8.75z" stroke="#000" fill="#c1e4f7"/><path d="M810.8 276.72l19.92 15.18-21.75 10.25-21.5-16.75z" stroke="#000" fill="#c1e4f7"/><path d="M830.53 412.38V288.4M830.53 412.36v1.02M830.53 288.43v-1.03" stroke="#000" stroke-width="2" fill="none"/><path d="M807.8 306.17c0 1.74-1.4 3.15-3.14 3.15-1.74 0-3.15-1.4-3.15-3.15 0-1.74 1.42-3.15 3.16-3.15 1.74 0 3.15 1.4 3.15 3.15z" stroke="#000" stroke-width="3"/><path d="M830.44 318.2l-.6.78-1.58-1.22.6-.78zm-4.7-3.66l-.62.8-3.13-2.45.6-.8zm-6.27-4.88l-.62.8-3.13-2.45.6-.78zm-6.27-4.88l-.62.8-3.13-2.45.6-.78zm-6.27-4.87l-.62.8-3.12-2.44.6-.8zm-6.27-4.87l-.62.8-3.13-2.45.62-.8zm-6.27-4.88l-.63.8-3.13-2.45.6-.78zm-6.28-4.87l-.62.8-3.13-2.45.6-.8zm-6.27-4.88l-.62.8-3.13-2.45.6-.8zm-6.27-4.88l-.62.8-3.13-2.45.6-.78zm-6.27-4.87l-.6.8-3.14-2.45.6-.8zm-6.26-4.88l-.62.8-3.13-2.45.6-.8zm-6.27-4.88l-.62.78-3.13-2.44.6-.78zM750.5 256l-.62.8-3.13-2.45.6-.8zm-6.27-4.88l-.62.8-3.12-2.45.6-.8zm-6.27-4.88l-.62.8-3.13-2.45.62-.77zm-6.27-4.87l-.63.78-3.13-2.44.6-.8zm-6.28-4.9l-.62.8-3.13-2.44.6-.8zm-6.27-4.87l-.62.8-3.13-2.45.6-.78zm-6.27-4.87l-.62.8-3.13-2.45.6-.78zm-6.27-4.88l-.6.8-3.14-2.45.6-.8zm-6.26-4.88l-.62.8-3.13-2.45.6-.78zm-6.27-4.87l-.62.8-3.13-2.45.6-.8zm-6.27-4.88l-.62.8-3.13-2.45.6-.8zm-6.27-4.88l-.62.8-3.12-2.44.6-.8zm-6.27-4.87l-.62.8-3.13-2.45.62-.8zm-6.27-4.88l-.63.8-3.13-2.45.6-.8zm-6.28-4.88l-.62.8-1.56-1.23.6-.78z"/><path d="M830.84 318.5l-.62.8-.4-.32.6-.8zM661.16 186.53l-.6.8-.42-.32.62-.78z"/><path d="M808.55 395.8v-1.96m0-3.9v-3.9m0-3.92v-3.9m0-3.9v-3.92m0-3.9v-3.9m0-3.9v-3.92m0-3.9v-3.9m0-3.92v-3.9m0-3.9v-3.9m0-3.92v-3.9m0-3.9v-3.92m0-3.9v-3.9m0-3.9v-3.92m0-3.9v-3.9m0-3.92v-3.9m0-3.9v-3.9m0-3.92v-1.95M808.55 395.78v.5M808.55 270.82v-.5" stroke="#000" fill="none"/><path d="M552.14 564.07V430.33L335 263.15l-93.06 66.87v133.74l124.08 100.3z" stroke="#000" stroke-width="2" fill="#ffbbb1" filter="url(#b)"/><path d="M242.68 329.68l91.44-65.7M242.7 329.66l-.83.6M334.1 264l.83-.6M365.17 563.67l-122.52-99.04M365.15 563.66l.8.64M242.67 464.64l-.8-.64" stroke="#000" stroke-width="2" fill="none"/><path d="M551.9 429.16l-1.23 1.6L335.1 264.78l1.23-1.6z"/><path d="M552.7 429.77l-1.24 1.6-.8-.64 1.2-1.58zM336.35 263.22l-1.22 1.6-.8-.64 1.2-1.58z"/><path d="M366.95 564.3h184.12M366.98 564.3h-1.03M551.05 564.3h1.02" stroke="#000" stroke-width="2" fill="none"/><path d="M266.7 483.56v-1.95m0-3.9v-3.9m0-3.9V466m0-3.9v-3.92m0-3.9v-3.9m0-3.9v-3.9m0-3.92v-3.9m0-3.9v-3.9m0-3.9v-3.92m0-3.9v-3.9m0-3.9v-3.9m0-3.92v-3.9m0-3.9v-3.9m0-3.92v-3.9m0-3.9v-3.9m0-3.9v-3.92m0-3.9v-3.9m0-3.9v-1.96M266.7 483.55v.5M266.7 350.83v-.5M291.5 503.62v-1.95m0-3.9v-3.9m0-3.9v-3.92m0-3.9v-3.9m0-3.9v-3.92m0-3.9v-3.9m0-3.9v-3.9m0-3.92V447m0-3.9v-3.9m0-3.9v-3.9m0-3.9v-3.9m0-3.92v-3.9m0-3.9v-3.9m0-3.9v-3.92m0-3.9v-3.9m0-3.9v-3.9m0-3.92v-3.9m0-3.9v-1.96M291.5 503.6v.52M291.5 370.9v-.52M316.52 523.85v-1.96m0-3.9v-3.92m0-3.9v-3.9m0-3.9v-3.9m0-3.92v-3.9m0-3.9v-3.9m0-3.9v-3.92m0-3.9v-3.9m0-3.9v-3.9m0-3.92v-3.9m0-3.9v-3.9m0-3.9V436m0-3.9v-3.9m0-3.9v-3.9m0-3.92v-3.9m0-3.9v-3.9m0-3.9v-3.92m0-3.9v-1.95M316.52 523.83v.52M316.52 391.12v-.5M365.56 530.57l-1.54-1.25m-3.08-2.5l-3.08-2.5m-3.1-2.5l-3.07-2.5m-3.1-2.48l-3.07-2.5m-3.1-2.5l-3.07-2.5m-3.08-2.5l-3.08-2.5m-3.1-2.48l-3.07-2.5m-3.08-2.5l-3.08-2.5m-3.1-2.5l-3.07-2.48m-3.08-2.5l-3.08-2.5m-3.1-2.5l-3.07-2.5m-3.08-2.5l-3.1-2.48m-3.08-2.5l-3.08-2.5m-3.08-2.5l-3.1-2.5m-3.07-2.48l-3.1-2.5m-3.07-2.5l-3.1-2.5m-3.07-2.5l-3.08-2.5m-3.08-2.48l-3.1-2.5m-3.07-2.5l-3.08-2.5m-3.08-2.5l-3.1-2.48m-3.07-2.5l-1.54-1.25M365.55 530.56l.4.32M242.27 430.72l-.4-.32M365.56 464.9l-1.54-1.25m-3.08-2.52l-3.08-2.5m-3.08-2.52l-3.1-2.5m-3.07-2.52l-3.07-2.5m-3.1-2.52l-3.07-2.52m-3.08-2.5l-3.08-2.52m-3.1-2.5l-3.07-2.53m-3.08-2.52l-3.08-2.5m-3.1-2.53l-3.07-2.5m-3.08-2.52l-3.08-2.5m-3.1-2.53l-3.07-2.5m-3.08-2.52l-3.1-2.52m-3.08-2.5l-3.08-2.52m-3.08-2.5l-3.1-2.53m-3.07-2.5l-3.1-2.5m-3.07-2.53l-3.1-2.5m-3.07-2.52l-3.08-2.5m-3.08-2.53l-3.1-2.5m-3.07-2.52l-3.08-2.52m-3.1-2.5l-3.07-2.52m-3.08-2.52l-1.54-1.25M365.55 464.9l.4.32M242.27 364.4l-.4-.33M551.6 498.35h-2m-4.04-.03l-4.02-.02m-4.03-.02l-4-.02m-4.04-.02l-4.02-.02m-4.03-.02l-4-.02m-4.04-.02l-4.02-.02m-4.03-.02l-4-.02m-4.04-.02l-4.02-.02m-4.03-.02l-4-.02m-4.04-.02l-4.02-.02m-4.03-.02l-4-.02m-4.04-.02l-4.02-.02m-4.03-.02l-4-.02m-4.04-.02l-4.02-.02m-4.03-.02l-4-.02m-4.04-.02l-4.02-.02m-4.03-.02l-4-.02m-4.04-.02l-4.02-.02m-4.03-.02l-4-.02m-4.04-.02l-4.02-.02m-4.03-.02l-4-.02m-4.04-.02l-4.02-.02m-4.03-.02l-4-.02m-4.04-.02h-2M551.6 498.35h.5M366.46 497.43h-.5M551.6 532.34h-2m-4.04-.04l-4.02-.04m-4.03-.03l-4-.03m-4.04-.03l-4.02-.03m-4.03-.04l-4-.03m-4.04-.03l-4.02-.03m-4.03-.02l-4-.04m-4.04-.03l-4.02-.02m-4.03-.03l-4-.03m-4.04-.04l-4.02-.03m-4.03-.03l-4-.03m-4.04-.04l-4.02-.04m-4.03-.03l-4-.04m-4.04-.03l-4.02-.03m-4.03-.04l-4-.03m-4.04-.03l-4.02-.03m-4.03-.03l-4-.04m-4.04-.03l-4.02-.03m-4.03-.03l-4-.02m-4.04-.04l-4.02-.03m-4.03-.02l-4-.03m-4.04-.03l-4.02-.04m-4.03-.03l-4-.03m-4.04-.03l-2-.03M551.6 532.34h.5M366.46 530.87h-.5M266.57 349.63l1.75-.96m3.5-1.92l3.48-1.93m3.48-1.92l3.5-1.92m3.48-1.93l3.5-1.92m3.48-1.93l3.5-1.92m3.48-1.92l3.5-1.93m3.47-1.92l3.48-1.9m3.5-1.94l3.48-1.92m3.5-1.93l3.48-1.9m3.5-1.93l3.48-1.93m3.48-1.92l3.5-1.92m3.48-1.93l3.5-1.92m3.48-1.93l3.5-1.92m3.48-1.92l3.5-1.93m3.47-1.92l3.5-1.93m3.5-1.92l1.74-.96M266.6 349.63l-.46.25M371.23 291.93l.44-.25M291.5 369.82l1.9-.7m3.84-1.4l3.84-1.4m3.83-1.4l3.85-1.4m3.83-1.4l3.84-1.4m3.84-1.4l3.83-1.4m3.83-1.42l3.83-1.4m3.84-1.4l3.83-1.4m3.84-1.4l3.83-1.4m3.84-1.4l3.84-1.4m3.83-1.4l3.85-1.4m3.83-1.4l3.84-1.4m3.83-1.4l3.84-1.42m3.82-1.4l3.84-1.4m3.83-1.4l3.83-1.4m3.84-1.4l3.83-1.4m3.84-1.4l3.83-1.4m3.84-1.4l1.93-.7M291.5 369.8l-.48.2M414.2 324.97l.5-.17M341.76 410.55l2.03-.2m4.06-.4l4.07-.4m4.06-.42l4.06-.4m4.07-.4l4.06-.4m4.06-.42l4.07-.4m4.06-.4l4.06-.4m4.07-.4l4.06-.42m4.06-.4l4.07-.4m4.07-.42l4.06-.4m4.07-.4l4.07-.4m4.06-.42l4.07-.4m4.07-.4l4.06-.42m4.07-.4l4.07-.4m4.06-.42l4.07-.4m4.07-.4l4.07-.4m4.06-.42l4.07-.4m4.07-.4l4.06-.42m4.07-.4l4.07-.4m4.06-.4l4.07-.42m4.07-.4l4.06-.4m4.07-.42l2.03-.2M341.77 410.55l-.5.05M504.42 394.32l.5-.05M317.66 391.02l1.94-.46m3.9-.9l3.88-.9m3.88-.92l3.9-.9m3.88-.92l3.88-.9m3.9-.92l3.88-.9m3.88-.9l3.9-.92m3.88-.9l3.88-.92m3.9-.9l3.88-.92m3.9-.9l3.87-.92m3.88-.9l3.9-.9m3.87-.92l3.9-.9m3.88-.92l3.88-.9m3.9-.92l3.9-.9m3.87-.9l3.9-.92m3.88-.9l3.88-.92m3.9-.9l3.88-.92m3.9-.9l3.88-.9m3.9-.92l3.87-.9m3.9-.92l1.93-.45M317.67 391.02l-.5.1M457.57 358.3l.5-.1M275.87 307.45l1.57 1.28m3.16 2.56l3.15 2.55m3.16 2.56l3.16 2.56m3.16 2.56l3.15 2.56m3.15 2.56l3.16 2.56m3.15 2.56l3.16 2.55m3.14 2.57l3.16 2.56m3.15 2.56l3.15 2.55m3.16 2.56l3.15 2.56m3.17 2.56l3.15 2.56m3.16 2.56l3.15 2.56m3.16 2.55l3.14 2.56m3.15 2.57l3.15 2.56m3.15 2.56l3.16 2.55m3.15 2.55l3.17 2.56m3.15 2.56l3.15 2.56m3.16 2.56l3.15 2.56m3.16 2.55l3.15 2.56m3.15 2.57l3.15 2.56m3.16 2.56l3.15 2.54m3.16 2.56l3.16 2.56m3.15 2.56l3.16 2.56m3.15 2.56l3.16 2.55m3.15 2.55l3.14 2.56m3.16 2.57l1.58 1.28M275.88 307.46l-.4-.32M427.27 430.24l.4.32M260.68 318.48l1.54 1.27m3.1 2.54l3.07 2.53m3.08 2.54l3.1 2.54m3.08 2.55l3.08 2.54m3.1 2.53l3.08 2.54m3.1 2.54l3.07 2.55m3.08 2.54l3.1 2.53m3.07 2.54l3.1 2.54m3.08 2.55l3.1 2.54m3.07 2.53l3.1 2.54m3.08 2.54l3.1 2.55m3.07 2.54l3.1 2.53m3.08 2.54l3.08 2.54m3.1 2.55l3.1 2.54m3.08 2.53l3.08 2.54m3.1 2.54l3.08 2.55m3.1 2.54l3.07 2.53m3.1 2.54l3.1 2.54m3.08 2.55l3.08 2.54m3.1 2.53l3.08 2.54m3.08 2.54l3.1 2.55m3.08 2.55l3.1 2.54m3.07 2.54l1.55 1.27M260.7 318.5l-.4-.34M396.5 430.24l.4.32" stroke="#000" fill="none"/><path d="M458.62 429.86l-.62.78-1.56-1.23.62-.78zm-4.68-3.7l-.62.78-3.12-2.48.62-.78zm-6.24-4.95l-.62.8-3.12-2.48.62-.78zm-6.24-4.94l-.62.8-3.12-2.48.62-.8zm-6.23-4.94l-.63.78-3.12-2.47.63-.78zm-6.24-4.95l-.64.8-3.12-2.48.63-.8zm-6.25-4.94l-.63.78-3.12-2.46.63-.78zm-6.24-4.94l-.6.77-3.13-2.47.62-.8zm-6.23-4.96l-.62.8-3.12-2.5.62-.77zm-6.24-4.94l-.62.78-3.1-2.47.6-.78zm-6.24-4.95l-.63.8-3.12-2.5.62-.77zm-6.25-4.94l-.62.8-3.12-2.48.63-.78zm-6.24-4.94l-.6.8-3.13-2.48.62-.8zm-6.23-4.94l-.62.78-3.12-2.47.62-.78zm-6.24-4.95l-.62.8-3.1-2.48.6-.8zm-6.24-4.94l-.63.78-3.12-2.46.62-.78zm-6.25-4.94l-.62.77-3.12-2.47.63-.8zm-6.24-4.96l-.6.8-3.13-2.5.62-.77zm-6.23-4.94l-.62.78-3.12-2.47.62-.78zm-6.24-4.95l-.62.8-3.1-2.5.6-.77zm-6.24-4.94l-.63.8-3.12-2.48.62-.78zm-6.25-4.94l-.62.8-3.12-2.48.63-.8zm-6.24-4.94l-.6.78-3.13-2.47.62-.78zm-6.23-4.95l-.62.8-3.12-2.48.62-.8zm-6.24-4.94l-.62.78-3.1-2.46.6-.78zm-6.24-4.94l-.63.77-3.12-2.47.62-.8zm-6.25-4.96l-.62.8-3.12-2.5.63-.77zm-6.24-4.94l-.6.78-1.57-1.24.62-.78z"/><path d="M290.16 296.37l-.62.78-.4-.32.62-.78zM459.02 430.17l-.63.8-.4-.33.6-.8zM489.84 429.86l-.62.8-1.6-1.26.63-.8zm-4.77-3.74l-.62.78-3.18-2.5.62-.78zm-6.36-5l-.6.8-3.2-2.5.63-.8zm-6.35-5l-.62.8-3.18-2.5.62-.8zm-6.36-5l-.63.8-3.18-2.5.6-.78zm-6.37-4.98l-.62.8-3.17-2.5.62-.8zm-6.36-5l-.62.8-3.18-2.5.62-.8zm-6.36-5l-.6.8-3.2-2.5.63-.8zm-6.35-4.98l-.62.78-3.18-2.5.62-.78zm-6.36-5l-.63.8-3.18-2.5.6-.8zm-6.37-5l-.62.8-3.17-2.5.62-.8zm-6.36-5l-.62.8-3.18-2.5.62-.78zm-6.36-4.98l-.6.8-3.2-2.5.63-.8zm-6.35-5l-.62.8-3.18-2.5.62-.8zm-6.36-5l-.63.8-3.18-2.5.6-.78zm-6.37-4.98l-.62.78-3.17-2.5.62-.78zm-6.36-5l-.62.8-3.18-2.5.62-.8zm-6.36-5l-.6.8-3.2-2.5.63-.8zm-6.35-4.98l-.62.78-3.18-2.5.62-.78zm-6.36-5l-.63.8-3.18-2.5.6-.8zm-6.37-5l-.62.8-3.17-2.5.62-.8zm-6.36-5l-.62.8-3.18-2.5.62-.78zm-6.36-4.98l-.6.8-3.2-2.5.63-.8zm-6.35-5l-.62.8-3.18-2.5.62-.8zm-6.36-5l-.63.8-3.18-2.5.6-.8zm-6.37-4.98l-.62.78-3.17-2.5.62-.78zm-6.36-5l-.62.8-3.18-2.5.62-.8zm-6.36-5l-.6.8-3.2-2.5.63-.8zm-6.35-4.98l-.62.78-3.18-2.5.62-.78zm-6.36-5l-.63.8-1.6-1.26.63-.8z"/><path d="M305.4 285.04l-.6.8-.4-.33.6-.78zM490.23 430.17l-.6.8-.42-.33.63-.8zM520.66 429.86l-.6.8-1.58-1.22.62-.8zm-4.7-3.63l-.6.8-3.15-2.43.62-.8zm-6.27-4.85l-.62.8-3.14-2.43.6-.8zm-6.28-4.84l-.62.8-3.13-2.44.6-.8zm-6.28-4.85l-.6.78-3.14-2.42.6-.8zm-6.27-4.85l-.6.8-3.15-2.44.6-.78zM484.6 402l-.6.8-3.15-2.43.6-.8zm-6.27-4.85l-.62.8-3.12-2.43.6-.8zm-6.28-4.84l-.6.8-3.14-2.42.62-.8zm-6.27-4.84l-.6.8-3.15-2.43.62-.8zm-6.27-4.84l-.6.8-3.14-2.43.6-.8zm-6.26-4.85l-.6.8-3.15-2.43.6-.8zm-6.28-4.84l-.6.8-3.14-2.44.6-.8zm-6.27-4.85l-.62.8-3.14-2.43.62-.8zm-6.28-4.85l-.6.8-3.15-2.43.6-.8zm-6.27-4.84l-.6.78-3.15-2.42.6-.8zm-6.28-4.86l-.6.8-3.14-2.43.6-.78zm-6.27-4.84l-.6.8-3.14-2.43.6-.8zm-6.27-4.85l-.6.8-3.15-2.43.6-.8zm-6.27-4.84l-.6.8-3.15-2.42.62-.8zm-6.27-4.84l-.63.8-3.13-2.43.6-.8zm-6.3-4.84l-.6.8-3.13-2.44.6-.8zm-6.26-4.85l-.6.8-3.15-2.43.6-.8zm-6.27-4.85l-.6.8-3.15-2.43.6-.8zm-6.27-4.84l-.62.8-3.13-2.43.6-.8zm-6.28-4.85l-.6.8-3.14-2.43.6-.8zm-6.27-4.84l-.6.78-3.15-2.42.62-.8zm-6.27-4.86l-.6.8-3.15-2.43.6-.78zm-6.27-4.84l-.6.8-3.14-2.43.6-.8zm-6.27-4.85l-.6.8-3.14-2.43.6-.8zm-6.27-4.84l-.6.8-3.15-2.43.63-.8zm-6.27-4.84l-.62.8-3.14-2.43.6-.8zM321.5 276l-.6.8-1.58-1.2.6-.8z"/><path d="M319.96 274.8l-.6.8-.42-.3.6-.8zM521.06 430.17l-.6.8-.42-.32.6-.8z"/><path d="M428 563.8v-1.95m0-3.9v-3.9m0-3.9v-3.92m0-3.9v-3.9m0-3.9v-3.9m0-3.92v-3.9m0-3.9V515m0-3.9v-3.9m0-3.9v-3.92m0-3.9v-3.9m0-3.9v-3.9m0-3.92v-3.9m0-3.9v-3.9m0-3.9v-3.92m0-3.9v-3.9m0-3.9v-3.9m0-3.92v-3.9m0-3.9v-1.96M428 563.8v.5M428 431.08v-.52M459 563.8v-1.95m0-3.9v-3.9m0-3.9v-3.92m0-3.9v-3.9m0-3.9v-3.9m0-3.92v-3.9m0-3.9V515m0-3.9v-3.9m0-3.9v-3.92m0-3.9v-3.9m0-3.9v-3.9m0-3.92v-3.9m0-3.9v-3.9m0-3.9v-3.92m0-3.9v-3.9m0-3.9v-3.9m0-3.92v-3.9m0-3.9v-1.96M459 563.8v.5M459 431.08v-.52M490.03 563.8v-1.95m0-3.9v-3.9m0-3.9v-3.92m0-3.9v-3.9m0-3.9v-3.9m0-3.92v-3.9m0-3.9V515m0-3.9v-3.9m0-3.9v-3.92m0-3.9v-3.9m0-3.9v-3.9m0-3.92v-3.9m0-3.9v-3.9m0-3.9v-3.92m0-3.9v-3.9m0-3.9v-3.9m0-3.92v-3.9m0-3.9v-1.96M490.03 563.8v.5M490.03 431.08v-.52M521.05 563.8v-1.95m0-3.9v-3.9m0-3.9v-3.92m0-3.9v-3.9m0-3.9v-3.9m0-3.92v-3.9m0-3.9V515m0-3.9v-3.9m0-3.9v-3.92m0-3.9v-3.9m0-3.9v-3.9m0-3.92v-3.9m0-3.9v-3.9m0-3.9v-3.92m0-3.9v-3.9m0-3.9v-3.9m0-3.92v-3.9m0-3.9v-1.96M521.05 563.8v.5M521.05 431.08v-.52" stroke="#000" fill="none"/><path d="M341.1 445.1l25 20.25v33.5l-25-20.75z" stroke="#000" fill="#0c7cba"/><path d="M361.8 472.5c0 1.73-1.4 3.14-3.14 3.14-1.74 0-3.15-1.4-3.15-3.15s1.42-3.16 3.16-3.16c1.73 0 3.15 1.4 3.15 3.15z" stroke="#000" stroke-width="3"/><path d="M365.57 498.4l-1.54-1.3m-3.1-2.55l-3.07-2.56m-3.08-2.57l-3.1-2.57m-3.07-2.56l-3.07-2.56m-3.08-2.56l-3.1-2.57m-3.07-2.55l-3.08-2.56m-3.08-2.57l-3.1-2.57m-3.07-2.56l-3.08-2.56m-3.1-2.56l-3.07-2.57m-3.08-2.55l-3.08-2.56m-3.1-2.57l-3.07-2.57m-3.08-2.56l-3.1-2.56m-3.08-2.56l-3.08-2.57m-3.08-2.55l-3.1-2.56m-3.07-2.57l-3.1-2.57m-3.08-2.56l-3.08-2.56m-3.08-2.56l-3.08-2.57m-3.1-2.55l-3.07-2.56m-3.07-2.57l-3.1-2.56m-3.07-2.57l-3.08-2.56m-3.08-2.56l-1.55-1.28M365.56 498.4l.4.3M242.26 395.9l-.4-.32M551.57 465.67h-2m-4.03 0h-4.03m-4 0h-4.03m-4.03 0h-4.02m-4.03 0h-4.03m-4.03 0h-4.02m-4.03 0h-4.03m-4.02 0h-4.03m-4.02 0h-4.03m-4.02 0h-4.03m-4.02 0h-4.03m-4.02 0h-4.02m-4.03 0h-4.02m-4.03 0h-4.02m-4.03 0h-4.02m-4.03 0h-4.02m-4.02 0h-4.02m-4.02 0h-4.03m-4.02 0h-4.02m-4.02 0h-4.02m-4.03 0h-4m-4.04 0h-4.02m-4.03 0h-4m-4.04 0h-2M551.56 465.67h.5M366.46 465.68h-.5" stroke="#000" fill="none"/><path d="M316.34 424.6l24.76 20.25v33.25l-24.76-20.5z" stroke="#000" fill="#99d2f2"/><path d="M316.35 457.6l24.5 20 .25 33.25-24.75-20.25z" stroke="#000" fill="#d5eaf5"/><path d="M341.13 477.57l24.5 20 .25 33.25-24.78-19.97z" stroke="#000" fill="#99d2f2"/><path d="M365.88 465.27l30.97.33.25 32-30.5-.25z" stroke="#000" fill="#0c7cba"/><path d="M366.1 497.35l30.97.34.03 33.4-31-.25z" stroke="#000" fill="#99d2f2"/><path d="M341.6 445.35l29.75-.25 25.25 20.5-30.75-.75z" stroke="#000" fill="#0c7cba"/><path d="M396.85 465.6h31.25v32.25l-31-.25zM372.35 445.14l29.75-.25 26.25 20.7H396.6z" stroke="#000" fill="#99d2f2"/><path d="M396.95 497.7l31.15-.1v33.75l-31-.25z" stroke="#000" fill="#d5eaf5"/><path d="M316.8 424.75l27.55-3.15 28.45 23.6h-31.75z" stroke="#000" fill="#99d2f2"/><path d="M344.35 421.6l25-2.75 32.75 26-30.22.12z" stroke="#000" fill="#d5eaf5"/><path d="M365.95 563.3V431.56M365.95 563.28v1.02M365.95 431.6v-1.04M365.17 429.93L242.65 330.9M365.15 429.92l.8.64M242.67 330.9l-.8-.64" stroke="#000" stroke-width="2" fill="none"/><path d="M551.07 431.56H366.95v-2h184.12z"/><path d="M366.98 431.56h-1.03v-2h1.03zM552.07 431.56h-1.02v-2h1.02zM799.93 309l-117.87 43.7-.7-1.88 117.88-43.7z"/><path d="M800.9 308.63l-1 .37-.7-1.87.94-.35zM682.08 352.7l-1.3.47v-2.13l.6-.23z"/><use xlink:href="#c" transform="matrix(1,0,0,1,757.2909157664722,313.0695096128942) translate(0 14.222222222222223)"/><path d="M928.98 509.4l-45.13-39.44M928.96 509.4l.77.67" stroke="#000" stroke-width="2" fill="none"/><path d="M872.36 459.92l13.8 5.9-6.12 6.98z" stroke="#000" stroke-width="2"/><path d="M929.73 509.07V431.5M929.73 509.05v1.02" stroke="#000" stroke-width="2" fill="none"/><path d="M929.73 416.23l4.63 14.27h-9.27z" stroke="#000" stroke-width="2"/><path d="M930.56 509.52l62.92-41.54M930.58 509.5l-.85.57" stroke="#000" stroke-width="2" fill="none"/><path d="M1006.22 459.57l-9.35 11.73-5.1-7.74z" stroke="#000" stroke-width="2"/><path d="M863.92 422.8h18.06v29.78h-18.06z" fill="#fff" fill-opacity="0"/><path d="M873.74 432.23l1.02 8.54c2.22-3.02 3.5-5.2 4.3-6.7.72-1.34 1-2.06 1-2.72 0-.76-1.88-1.12-1.88-2.5 0-.8.65-1.46 1.7-1.46 1.17 0 2.08.83 2.08 2.24 0 2.84-5.9 11.57-7.42 13.5-2.66 3.34-5.02 6.9-7.5 6.9-1.34 0-2.03-1.12-2.03-2 0-1.1 1-1.5 1.47-1.5 1.56 0 1.5 1.14 2.07 1.14.62 0 2.7-2.25 3.64-3.7l-1.4-11.43c-.17-1.63-.5-3.82-2.53-3.82-.4 0-.98.1-1.3.15l-.08-.58 5.45-.9c.84 1.2 1.1 2.13 1.42 4.83"/><path d="M987.46 429.7h20.02v25.24h-20.02z" fill="#fff" fill-opacity="0"/><path d="M998.55 439.83l1.63-2.5c.95-1.47 2.22-3.07 4.04-3.07 1.17 0 1.78.44 1.78 1.2 0 .7-.47 1.53-1.4 1.53-.82 0-1-.34-1.62-.34-1.1 0-1.5.6-2 1.4l-2 3.08c1.1 2.25 1.93 7.16 3.57 7.16.58 0 1.45-.5 2.22-2.07l.5.36c-.43.54-2.07 4.03-4.18 4.03-1.5 0-2.2-1.5-2.66-2.8l-1.46-4.1-2.3 3.55c-1.15 1.8-2.2 3.35-4.24 3.35-1.3 0-1.9-.9-1.9-1.7 0-.6.48-1.36 1.4-1.36.93 0 .8.73 1.7.73.43 0 1.38-.36 2.54-2.14l2.37-3.68-1.2-3.34c-.62-1.75-1.57-3.24-3.57-3.24-.47 0-1 .07-1.38.22l-.1-.66 4.8-1.2c1.6.88 2.28 2.37 2.72 3.57"/><path d="M943.53 409.35h18.17v25.23h-18.17z" fill="#fff" fill-opacity="0"/><path d="M960.52 413.58v.6l-11.7 13.08.1.03c.7-.52 1.6-.77 2.43-.77 3.35 0 3.46 3.13 5.1 3.13.54 0 .98-.3.98-.87 0-.5-.44-.6-.44-1.4 0-.7.68-1.38 1.37-1.38.9 0 1.46.66 1.46 1.53 0 1.96-2.2 2.9-3.86 2.9-.8 0-1.7-.32-2.47-.5-1.17-.33-2.4-.5-3.6-.5-1.46 0-3.1.28-4.44.86l-.4-.35L957 416.5h-4.78c-2.07 0-2.94.2-3.78 2.2l-.65-.13 1.3-5h11.42"/><path d="M598.35 345.65h82.42v43.47h-82.42z" fill="#fff" fill-opacity="0"/><path d="M598.93 348.5h11.46c6.06 0 9.77 2.15 9.77 6.6 0 2.9-1.67 5.1-4.7 6.24-1.56.58-2.8.7-7.6.73v6.98c0 2.44.3 2.76 3.17 3.13v.9h-12.1v-.9c.68-.07 1.23-.15 1.63-.33 1.2-.47 1.42-1.5 1.42-3.34V353c0-2.84-.52-3.35-3.07-3.57v-.9m8.95 2.55v9.75c4.54-.04 6.03-1.28 6.03-5.3 0-4.05-1.2-5.72-4.2-5.72-1.2 0-1.82.43-1.82 1.27M636.03 363.9c0 1.15-1 2.17-2.15 2.17-1.2 0-2.22-1.1-2.22-2.18 0-1.1 1.02-2.2 2.22-2.2 1.16 0 2.15 1.02 2.15 2.2M661.34 357.05l-.88 5.3h-.54c0-2.32-1.3-4.35-3.35-4.35-.9 0-1.85.6-1.85 2.1 0 2 4.87 5.35 4.87 8.8 0 2.26-1.75 4.55-4.92 4.55-1.24 0-3.56-.73-4-.73-.33 0-.65.15-1.1.77h-.6l.9-5.7h.58c0 2.3 1.5 4.74 3.78 4.74 2.15 0 2.66-1.82 2.66-3.23 0-2.98-4.73-4.8-4.73-8.36 0-2.87 2.15-3.9 4.15-3.9 1.56 0 2.3.74 3.34.74.4 0 .8-.37 1.1-.73h.58M669.5 348.64l-2.3 8.38c-.07.25-.1.54-.1.82 0 .98.52 1.7 1.55 1.7 2.77 0 4.57-2.9 5.4-5.22.2-.62.38-1.26.38-1.9 0-1.9-1.57-1.68-1.57-2.8 0-.88.65-1.1 1.4-1.1 1.07 0 1.2 1.32 1.2 2.15 0 2.54-1 5.14-2.5 7.2-1.1 1.54-3.08 2.67-4.98 2.67-1.65 0-2.98-.5-2.98-2.4 0-.53.07-1.07.23-1.6l1.5-5.38c.04-.2.12-.44.12-.65 0-.5-1.13-.5-1.47-.5v-.4c1.34-.32 2.73-.5 4-1.07M676.7 373.32l-.1.3c-1.73.2-2.45.65-3.43 1.5l-2.72 2.36 1.64 3.9c.38.9.7 1.53 1.36 1.53.77 0 1.33-1.1 1.9-1.87l.38.28c-.3.55-1.5 3.3-3.26 3.3-1.18 0-1.72-1.36-2-2.03l-1.63-3.77-1.44 1.26-1.14 4.26h-1.96l3.8-15.14c.06-.16.1-.34.1-.52 0-.28-.27-.56-.84-.56-.23 0-.5 0-.7.05l-.07-.36 4.05-.65-2.9 11.72 4.3-3.83c.27-.26.53-.6.53-.92 0-.3-.4-.5-.67-.5h-.3l.1-.3h5M597.76 384.1l-217.3 81.3-.7-1.88 217.3-81.3zM380.8 469.15l-14.98.66 11.74-9.33z"/><path d="M382.22 470.1l-19.43.84 15.2-12.1zm-13.37-1.42l10.54-.47-2.3-6.1zM598.35 383.87l-.6.23-.7-1.87 1.3-.5z"/><use xlink:href="#c" transform="matrix(1,0,0,1,447.83051391967024,428.4577948829254) translate(0 14.222222222222223)"/><path d="M150.2 80.8h353.18v58.86h-353.2z" stroke="#000" stroke-opacity="0" stroke-width="2" fill="#fff" fill-opacity="0"/><use xlink:href="#d" transform="matrix(1,0,0,1,155.19403235049987,85.79137496337401) translate(20.268727789092054 38.77751571003785)"/><use xlink:href="#e" transform="matrix(1,0,0,1,155.19403235049987,85.79137496337401) translate(172.39288263130737 38.77751571003785)"/><path d="M641.2 12.6h276.06v58.86H641.2z" stroke="#000" stroke-opacity="0" stroke-width="2" fill="#fff" fill-opacity="0"/><use xlink:href="#f" transform="matrix(1,0,0,1,646.190435265969,17.598425196850393) translate(6.854283798067911 38.77751571003785)"/><use xlink:href="#e" transform="matrix(1,0,0,1,646.190435265969,17.598425196850393) translate(108.80732662233153 38.77751571003785)"/><path d="M1004.87 185.2h33.6v43.47h-33.6z" fill="#fff" fill-opacity="0"/><path d="M1019.05 196.6l-.87 5.3h-.55c0-2.32-1.3-4.36-3.34-4.36-.92 0-1.87.62-1.87 2.1 0 2 4.87 5.36 4.87 8.8 0 2.27-1.74 4.56-4.9 4.56-1.24 0-3.57-.73-4-.73-.33 0-.66.15-1.1.77h-.6l.9-5.68h.58c0 2.3 1.5 4.73 3.78 4.73 2.14 0 2.65-1.83 2.65-3.25 0-2.98-4.7-4.8-4.7-8.36 0-2.88 2.13-3.9 4.13-3.9 1.57 0 2.3.73 3.35.73.4 0 .8-.37 1.1-.73h.57M1027.2 188.2l-2.28 8.37c-.08.25-.1.54-.1.82 0 .97.5 1.7 1.54 1.7 2.78 0 4.58-2.92 5.4-5.23.2-.62.4-1.26.4-1.9 0-1.9-1.58-1.68-1.58-2.8 0-.88.64-1.1 1.4-1.1 1.07 0 1.2 1.32 1.2 2.15 0 2.54-1 5.14-2.5 7.2-1.1 1.54-3.08 2.67-5 2.67-1.63 0-2.97-.52-2.97-2.4 0-.54.1-1.08.24-1.6l1.5-5.4c.04-.2.12-.43.12-.64 0-.5-1.13-.5-1.46-.5v-.4c1.33-.33 2.72-.5 4-1.08M1034.4 212.87l-.1.3c-1.72.2-2.44.65-3.4 1.5l-2.74 2.36 1.65 3.9c.4.9.7 1.53 1.37 1.53.77 0 1.34-1.1 1.9-1.88l.4.28c-.32.54-1.53 3.3-3.28 3.3-1.2 0-1.73-1.37-2-2.04l-1.63-3.78-1.44 1.26-1.16 4.27h-1.95l3.8-15.14c.05-.16.08-.34.08-.52 0-.27-.26-.55-.82-.55-.24 0-.5 0-.7.05l-.08-.36 4.07-.64-2.9 11.72 4.3-3.83c.27-.27.53-.6.53-.93 0-.3-.42-.5-.67-.5h-.3l.1-.3h4.98"/><path d="M222.53 509.98H258v54.87h-35.47z" fill="#fff" fill-opacity="0"/><path d="M236.7 532.77l-.86 5.3h-.55c0-2.3-1.32-4.35-3.35-4.35-.9 0-1.86.62-1.86 2.1 0 2 4.86 5.36 4.86 8.8 0 2.26-1.74 4.56-4.9 4.56-1.24 0-3.57-.73-4-.73-.33 0-.66.14-1.1.76h-.6l.9-5.66h.58c0 2.3 1.5 4.73 3.78 4.73 2.14 0 2.65-1.82 2.65-3.24 0-2.98-4.72-4.8-4.72-8.36 0-2.88 2.14-3.9 4.14-3.9 1.56 0 2.28.73 3.34.73.4 0 .8-.36 1.1-.73h.57M244.9 520.22h.95c1.62 0 1.5-1.98 2.6-3.62.8-1.2 1.9-2.32 3.85-2.32 1.3 0 2.03.62 2.03 1.52 0 .72-.54 1.03-1.05 1.03-.72 0-.9-.3-.9-.65 0-.36.23-.74.23-.95 0-.13-.07-.2-.38-.2-1.28 0-2.28 1.4-2.82 3.4l-.5 1.8h2.06l-.3.97h-1.96l-2.03 7.87c-.18.7-.4 1.67-.77 2.62-.85 2.12-2.24 4.57-4.5 4.57-1.24 0-1.85-.62-1.85-1.4 0-.6.36-1.25 1.1-1.25.7 0 .95.46.95.85 0 .48-.4.5-.4.82 0 .14.15.22.38.22 1.67 0 2.44-4.06 2.83-5.53l2.24-8.8h-1.98M252.07 549.04l-.1.3c-1.73.2-2.45.66-3.42 1.5l-2.73 2.37 1.65 3.92c.38.9.7 1.5 1.36 1.5.77 0 1.34-1.1 1.9-1.86l.4.28c-.32.54-1.53 3.3-3.28 3.3-1.18 0-1.72-1.37-2-2.04l-1.62-3.78-1.44 1.26-1.17 4.27h-1.95l3.8-15.15c.05-.15.08-.33.08-.5 0-.3-.26-.58-.82-.58-.24 0-.5 0-.7.06l-.08-.36 4.07-.65-2.9 11.73 4.3-3.83c.27-.26.53-.6.53-.93 0-.3-.42-.5-.67-.5h-.32l.1-.3h5"/><path d="M0 503.15h222.06v82.96H0z" stroke="#000" stroke-opacity="0" stroke-width="2" fill="#fff" fill-opacity="0"/><use xlink:href="#g" transform="matrix(1,0,0,1,5,508.1515993457815) translate(50.580351082119634 30.0041823767045)"/><use xlink:href="#h" transform="matrix(1,0,0,1,5,508.1515993457815) translate(7.413239658694707 66.48343146692272)"/><use xlink:href="#i" transform="matrix(1,0,0,1,5,508.1515993457815) translate(134.54342273810528 66.48343146692272)"/><path d="M909.76 64.17h220.45V207.6H909.77z" stroke="#000" stroke-opacity="0" stroke-width="2" fill="#fff" fill-opacity="0"/><use xlink:href="#j" transform="matrix(1,0,0,1,914.7610851099398,69.17448638815752) translate(3.0822222222222138 60.01916666666667)"/><use xlink:href="#k" transform="matrix(1,0,0,1,914.7610851099398,69.17448638815752) translate(83.81555555555555 60.01916666666667)"/><use xlink:href="#l" transform="matrix(1,0,0,1,914.7610851099398,69.17448638815752) translate(69.14666666666668 97.35250000000002)"/><path d="M259 527.66l2.58-.07 3.35-.27 3.17-.42 3.04-.55 2.95-.7 2.9-.86 2.88-1.03 2.93-1.2 3.03-1.44 3.2-1.73 3.47-2.12 4-2.74 5.14-3.94 30.9-25.97 5.3-3.63 4.86-2.97 4.68-2.53 4.63-2.2.96-.4" stroke="#000" stroke-width="2" fill="none"/><path d="M259.06 528.66l-1.05.02v-2l1-.02zM353.88 472.5l.38.9-.92.4-.8-1.82 1.9-.82z"/><path d="M410.85 178.56H631.3V301.5H410.85z" stroke="#000" stroke-opacity="0" stroke-width="2" fill="#fff" fill-opacity="0"/><use xlink:href="#m" transform="matrix(1,0,0,1,415.85486168464365,183.55881756702206) translate(52.17555555555554 30.70666666666667)"/><use xlink:href="#n" transform="matrix(1,0,0,1,415.85486168464365,183.55881756702206) translate(29.355555555555554 68.04)"/><use xlink:href="#o" transform="matrix(1,0,0,1,415.85486168464365,183.55881756702206) translate(59.40888888888888 105.37333333333333)"/><path d="M521.27 302.48l.68 3.44.98 3.57 1.03 2.96 1.1 2.54 1.14 2.22 1.2 1.98 1.28 1.8 1.37 1.66 1.48 1.57 1.64 1.5 1.84 1.47 2.15 1.48 2.6 1.52 3.34 1.67 5.03 2.07 34.64 12.27 7.03 3.5 1.8 1.02" stroke="#000" stroke-width="2" fill="none"/><path d="M522.26 302.3l-1.96.4-.2-1 .98-.2h1.02z"/><path d="M591.57 350.7l.9.5M1004.03 220.63l-36.6 23.92-25.6 15.16-21.24 11.42-18.17 8.8-15.76 6.83-13.8 5.3-12.24 4.13-10.9 3.17-9.8 2.42-8.9 1.8-8.08 1.28-7.42.86-5.1.4" stroke="#000" stroke-width="2" fill="none"/><path d="M1004.87 221.28l-.32.2-1.1-1.67 1.42-.9zM810.53 307.1l-1.53.1.43-1.03-.4-.97 1.35-.1z"/><path d="M341.14 543.74v-1.95m0-3.92v-3.9m0-3.9v-3.9m0-3.9v-3.92m0-3.9v-3.9m0-3.9v-3.9m0-3.92v-3.9m0-3.9v-3.9m0-3.9v-3.92m0-3.9v-3.9m0-3.9v-3.9m0-3.92v-3.9m0-3.9v-3.9m0-3.9v-3.92m0-3.9v-3.9m0-3.9v-3.9m0-3.92v-3.9m0-3.9V411M341.14 543.73v.5M341.14 411.02v-.52M396.97 563.8v-1.95m0-3.9v-3.9m0-3.9v-3.92m0-3.9v-3.9m0-3.9v-3.9m0-3.92v-3.9m0-3.9V515m0-3.9v-3.9m0-3.9v-3.92m0-3.9v-3.9m0-3.9v-3.9m0-3.92v-3.9m0-3.9v-3.9m0-3.9v-3.92m0-3.9v-3.9m0-3.9v-3.9m0-3.92v-3.9m0-3.9v-1.96M396.97 563.8v.5M396.97 431.08v-.52M680.3 297.32v-1.97m0-3.95v-3.94m0-3.95v-3.94m0-3.94v-3.95m0-3.94v-3.95m0-3.94v-3.95m0-3.95V248m0-3.94v-3.95m0-3.93v-3.95m0-3.95v-3.94m0-3.95v-3.94m0-3.95v-3.95m0-3.95v-3.94m0-3.95v-3.93m0-3.95v-3.94m0-3.95V177m0-3.96v-1.97" stroke="#000" fill="none"/><path d="M680.8 298.2l-1-.77v-.12h1z"/><path d="M680.3 171.08v-.5" stroke="#000" fill="none"/><defs><filter id="a" filterUnits="objectBoundingBox" x="-.03" y="-.01" width="1.07" height="1.06"><feOffset result="offOut" in="SourceAlpha" dy="6"/><feGaussianBlur result="blurOut" in="offOut" stdDeviation="5"/><feColorMatrix result="colorOut" in="blurOut" values="0 0 0 0 0 0 0 0 0 0 0 0 0 0 0 0 0 0 0.5019607843137255 0"/><feBlend in="SourceGraphic" in2="colorOut"/></filter><filter id="b" filterUnits="objectBoundingBox" x="-.03" y="-.01" width="1.06" height="1.07"><feOffset result="offOut" in="SourceAlpha" dy="6"/><feGaussianBlur result="blurOut" in="offOut" stdDeviation="5"/><feColorMatrix result="colorOut" in="blurOut" values="0 0 0 0 0 0 0 0 0 0 0 0 0 0 0 0 0 0 0.5019607843137255 0"/><feBlend in="SourceGraphic" in2="colorOut"/></filter><path d="M1057-1433v158H369v501h588v158H369V0H174v-1433h883" id="p"/><path d="M584-856c-148 6-210 94-260 211V0H146v-1013c62 7 151-25 157 49l12 158c66-138 184-259 384-216 23 5 44 16 63 27l-23 133c-5 17-15 25-31 25-36 0-71-21-124-19" id="q"/><path d="M461 16c-231 0-339-149-339-383v-646h178v646c0 148 67 243 213 241 125-2 207-66 274-140v-747h178V0c-60-6-146 22-154-37l-14-109C716-60 619 16 461 16" id="r"/><path d="M409-112c121-3 207-52 207-167 0-134-157-142-264-181-133-48-263-98-263-275 0-197 153-290 360-294 139-3 243 49 317 118-26 35-46 114-111 76-53-31-114-63-202-61-108 3-195 44-195 147 0 129 158 136 262 175 128 48 263 93 263 264C783-89 627 12 400 16 255 19 139-39 62-107c27-41 57-128 128-81 57 38 118 78 219 76" id="s"/><path d="M698-76c-54 52-145 92-245 92-162 1-249-96-249-260v-620c-58-9-160 26-160-39v-71l166-21 41-313c4-50 80-30 131-34v349h290v129H382v608c-2 78 40 125 111 126 60 2 88-33 128-48 9 0 18 6 25 17" id="t"/><path d="M550-887c-107 0-172 65-226 132V0H146v-1013c60 6 147-22 154 37l13 104c69-80 148-156 287-157 148-1 223 92 258 211 51-126 153-211 323-211 232 0 338 149 338 384V0h-178v-645c1-148-62-242-203-242-142 0-218 94-218 242V0H742v-645c1-149-54-242-192-242" id="u"/><g id="d"><use transform="matrix(0.019644131565368716,0,0,0.019644131565368716,0,0)" xlink:href="#p"/><use transform="matrix(0.019644131565368716,0,0,0.019644131565368716,21.058509038075265,0)" xlink:href="#q"/><use transform="matrix(0.019644131565368716,0,0,0.019644131565368716,36.89167907976245,0)" xlink:href="#r"/><use transform="matrix(0.019644131565368716,0,0,0.019644131565368716,58.73595338045246,0)" xlink:href="#s"/><use transform="matrix(0.019644131565368716,0,0,0.019644131565368716,75.7870595791925,0)" xlink:href="#t"/><use transform="matrix(0.019644131565368716,0,0,0.019644131565368716,90.44158172695757,0)" xlink:href="#r"/><use transform="matrix(0.019644131565368716,0,0,0.019644131565368716,112.28585602764758,0)" xlink:href="#u"/></g><path d="M954-142C850-8 572 61 364-22 180-96 74-268 74-527c0-234 108-389 275-463 59-26 125-39 198-39 273 0 420 174 420 453 0 48-2 70-43 70H250c8 226 98 375 322 380 114 2 191-38 258-82 70-46 94 37 124 66zM807-617c-5-171-86-278-256-281-181-3-273 116-295 281h551" id="v"/><path d="M537-1031c235 0 353 147 353 383V0c-58-5-129 17-142-42l-20-94C637-55 545 19 375 16 200 13 92-76 92-253c0-184 160-243 332-285 79-19 176-28 291-31 12-184-31-318-200-318-113 0-181 45-243 91-36 26-82 14-99-17l-32-57c101-96 215-161 396-161zM263-261c0 103 62 152 165 152 140 0 216-64 287-136v-211c-141 4-258 19-349 60-60 27-103 62-103 135" id="w"/><g id="e"><use transform="matrix(0.019644131565368716,0,0,0.019644131565368716,0,0)" xlink:href="#p"/><use transform="matrix(0.019644131565368716,0,0,0.019644131565368716,20.862067722421575,0)" xlink:href="#v"/><use transform="matrix(0.019644131565368716,0,0,0.019644131565368716,41.44911760292799,0)" xlink:href="#w"/><use transform="matrix(0.019644131565368716,0,0,0.019644131565368716,61.368267010211866,0)" xlink:href="#t"/><use transform="matrix(0.019644131565368716,0,0,0.019644131565368716,76.02278915797693,0)" xlink:href="#r"/><use transform="matrix(0.019644131565368716,0,0,0.019644131565368716,97.86706345866695,0)" xlink:href="#q"/><use transform="matrix(0.019644131565368716,0,0,0.019644131565368716,113.70023350035413,0)" xlink:href="#v"/><use transform="matrix(0.019644131565368716,0,0,0.019644131565368716,134.28728338086054,0)" xlink:href="#s"/></g><path d="M8-1433h155c36 0 55 21 66 46L634-376c20 47 34 103 48 157 12-55 25-110 44-157l403-1011c9-22 33-46 66-46h156L767 0H592" id="x"/><path d="M1038-507c0 321-164 521-482 521S72-187 72-507c0-248 107-410 284-485 60-25 126-37 200-37 317 0 482 201 482 522zm-782 1c0 225 80 381 300 381 213 0 298-159 298-381 0-223-84-383-298-383-221 0-300 158-300 383" id="y"/><path d="M383-519L42-1013h171c30 0 38 9 50 27l248 380c6-19 14-38 26-56l218-320c12-15 21-30 45-31h164L623-529 978 0H807c-30 1-44-19-55-37L497-434c-5 19-11 37-21 52L240-37c-13 16-24 37-53 37H28" id="z"/><path d="M344-1473V0H166v-1473h178" id="A"/><g id="f"><use transform="matrix(0.019644131565368716,0,0,0.019644131565368716,0,0)" xlink:href="#x"/><use transform="matrix(0.019644131565368716,0,0,0.019644131565368716,24.43729966731868,0)" xlink:href="#y"/><use transform="matrix(0.019644131565368716,0,0,0.019644131565368716,45.10292607408657,0)" xlink:href="#z"/><use transform="matrix(0.019644131565368716,0,0,0.019644131565368716,63.7255627980561,0)" xlink:href="#v"/><use transform="matrix(0.019644131565368716,0,0,0.019644131565368716,84.31261267856252,0)" xlink:href="#A"/></g><g id="g"><use transform="matrix(0.015199687120924265,0,0,0.015199687120924265,0,0)" xlink:href="#p"/><use transform="matrix(0.015199687120924265,0,0,0.015199687120924265,16.29406459363081,0)" xlink:href="#q"/><use transform="matrix(0.015199687120924265,0,0,0.015199687120924265,28.54501241309577,0)" xlink:href="#r"/><use transform="matrix(0.015199687120924265,0,0,0.015199687120924265,45.44706449156355,0)" xlink:href="#s"/><use transform="matrix(0.015199687120924265,0,0,0.015199687120924265,58.64039291252581,0)" xlink:href="#t"/><use transform="matrix(0.015199687120924265,0,0,0.015199687120924265,69.97935950473531,0)" xlink:href="#r"/><use transform="matrix(0.015199687120924265,0,0,0.015199687120924265,86.88141158320309,0)" xlink:href="#u"/></g><path d="M513-145c178-4 292-88 292-262 0-193-194-213-343-263-182-61-347-142-342-385 4-188 111-303 254-361 117-48 292-41 408 5 66 26 124 62 173 110-22 37-36 86-66 115-51 25-83-28-123-48-53-26-114-56-200-54-157 4-266 71-266 223 0 186 200 204 344 258 175 65 343 135 343 372 0 289-185 446-480 451-198 4-349-81-449-187 26-36 42-83 76-111 60-25 93 39 140 65 62 34 135 75 239 72" id="B"/><path d="M602 14c-133 0-212-47-278-119v448H146v-1356c60 6 147-22 154 37l15 120c80-93 179-175 341-175 282 0 383 224 383 518 0 237-92 406-253 487-54 27-116 40-184 40zm253-527c-3-212-53-374-258-374-136 0-207 69-273 153v490c57 77 121 120 238 120 207 0 295-164 293-389" id="C"/><path d="M344-1013V0H166v-1013h178zm-88-446c77 0 128 52 128 128 0 75-52 126-128 126-75 0-126-51-126-126 0-76 50-128 126-128" id="D"/><path d="M598-887c-125 2-207 68-274 141V0H146v-1013c60 6 147-22 154 37l14 110c82-87 177-163 336-163 232 0 339 151 339 384V0H811v-645c0-149-65-244-213-242" id="E"/><path d="M103-704c0-220 160-326 384-326 92 0 169 21 228 57h275c-2 53 13 100-42 108l-115 16c43 79 45 196 5 279-58 120-176 191-351 193-47 0-92-6-134-17-50 22-100 108-36 142 165 88 511-13 621 164 40 65 36 170-4 240-77 134-229 213-441 213-193 0-343-50-415-167-19-32-28-66-28-101 3-117 84-175 178-211-54-27-98-64-94-143 4-90 64-137 129-173-91-51-160-139-160-274zM334-85C254-53 162 38 224 138c97 157 586 133 579-83C799-63 659-58 543-68c-70-6-146-6-209-17zm-67-614c0 134 84 204 220 204 137 0 221-69 221-204 0-129-85-203-221-203-135 0-220 74-220 203" id="F"/><g id="h"><use transform="matrix(0.015199687120924265,0,0,0.015199687120924265,0,0)" xlink:href="#B"/><use transform="matrix(0.015199687120924265,0,0,0.015199687120924265,16.11166834817972,0)" xlink:href="#w"/><use transform="matrix(0.015199687120924265,0,0,0.015199687120924265,31.524151088796927,0)" xlink:href="#u"/><use transform="matrix(0.015199687120924265,0,0,0.015199687120924265,56.48203734135457,0)" xlink:href="#C"/><use transform="matrix(0.015199687120924265,0,0,0.015199687120924265,73.26249192285496,0)" xlink:href="#A"/><use transform="matrix(0.015199687120924265,0,0,0.015199687120924265,81.04473172876818,0)" xlink:href="#D"/><use transform="matrix(0.015199687120924265,0,0,0.015199687120924265,88.8269715346814,0)" xlink:href="#E"/><use transform="matrix(0.015199687120924265,0,0,0.015199687120924265,105.7290236131492,0)" xlink:href="#F"/></g><path d="M617-1433c323 3 534 130 534 444 0 310-216 446-534 453H387V0H194v-1433h423zm340 444c0-197-128-291-340-291H387v590h230c207-4 340-97 340-299" id="G"/><g id="i"><use transform="matrix(0.015199687120924265,0,0,0.015199687120924265,0,0)" xlink:href="#G"/><use transform="matrix(0.015199687120924265,0,0,0.015199687120924265,18.118027048141727,0)" xlink:href="#y"/><use transform="matrix(0.015199687120924265,0,0,0.015199687120924265,35.02007912660951,0)" xlink:href="#D"/><use transform="matrix(0.015199687120924265,0,0,0.015199687120924265,42.80231893252273,0)" xlink:href="#E"/><use transform="matrix(0.015199687120924265,0,0,0.015199687120924265,59.70437101099051,0)" xlink:href="#t"/></g><g id="j"><use transform="matrix(0.015555555555555557,0,0,0.015555555555555557,0,0)" xlink:href="#x"/><use transform="matrix(0.015555555555555557,0,0,0.015555555555555557,19.351111111111113,0)" xlink:href="#y"/><use transform="matrix(0.015555555555555557,0,0,0.015555555555555557,35.715555555555554,0)" xlink:href="#z"/><use transform="matrix(0.015555555555555557,0,0,0.015555555555555557,50.46222222222222,0)" xlink:href="#v"/><use transform="matrix(0.015555555555555557,0,0,0.015555555555555557,66.76444444444445,0)" xlink:href="#A"/></g><g id="k"><use transform="matrix(0.015555555555555557,0,0,0.015555555555555557,0,0)" xlink:href="#B"/><use transform="matrix(0.015555555555555557,0,0,0.015555555555555557,16.48888888888889,0)" xlink:href="#w"/><use transform="matrix(0.015555555555555557,0,0,0.015555555555555557,32.26222222222223,0)" xlink:href="#u"/><use transform="matrix(0.015555555555555557,0,0,0.015555555555555557,57.80444444444446,0)" xlink:href="#C"/><use transform="matrix(0.015555555555555557,0,0,0.015555555555555557,74.97777777777779,0)" xlink:href="#A"/><use transform="matrix(0.015555555555555557,0,0,0.015555555555555557,82.94222222222223,0)" xlink:href="#D"/><use transform="matrix(0.015555555555555557,0,0,0.015555555555555557,90.90666666666667,0)" xlink:href="#E"/><use transform="matrix(0.015555555555555557,0,0,0.015555555555555557,108.20444444444445,0)" xlink:href="#F"/></g><g id="l"><use transform="matrix(0.015555555555555557,0,0,0.015555555555555557,0,0)" xlink:href="#G"/><use transform="matrix(0.015555555555555557,0,0,0.015555555555555557,18.542222222222225,0)" xlink:href="#y"/><use transform="matrix(0.015555555555555557,0,0,0.015555555555555557,35.84,0)" xlink:href="#D"/><use transform="matrix(0.015555555555555557,0,0,0.015555555555555557,43.80444444444445,0)" xlink:href="#E"/><use transform="matrix(0.015555555555555557,0,0,0.015555555555555557,61.102222222222224,0)" xlink:href="#t"/></g><path d="M1289-200C1173-69 1017 19 773 16c-339-4-539-180-634-435-65-176-67-421 3-594 104-257 318-431 668-436 220-3 359 75 476 182-27 35-48 75-79 105-60 21-86-37-135-56-109-71-336-85-474-24-190 83-310 257-310 526 0 268 114 444 301 527 146 65 383 42 487-33 24-17 50-36 75-59 20-19 44-22 62-2" id="H"/><g id="m"><use transform="matrix(0.015555555555555557,0,0,0.015555555555555557,0,0)" xlink:href="#H"/><use transform="matrix(0.015555555555555557,0,0,0.015555555555555557,21.311111111111114,0)" xlink:href="#w"/><use transform="matrix(0.015555555555555557,0,0,0.015555555555555557,37.08444444444445,0)" xlink:href="#u"/><use transform="matrix(0.015555555555555557,0,0,0.015555555555555557,62.62666666666668,0)" xlink:href="#v"/><use transform="matrix(0.015555555555555557,0,0,0.015555555555555557,78.9288888888889,0)" xlink:href="#q"/><use transform="matrix(0.015555555555555557,0,0,0.015555555555555557,90.87555555555558,0)" xlink:href="#w"/></g><path d="M608 14c-142 0-221-61-286-144-9 50 6 130-55 130H152v-1473h179v606c78-87 176-162 331-162 283 0 384 222 384 516 0 237-93 406-254 487-54 27-116 40-184 40zm254-527c-2-212-53-374-258-374-136 0-207 69-273 153v490c56 77 120 120 237 120 208 0 296-164 294-389" id="I"/><g id="n"><use transform="matrix(0.015555555555555557,0,0,0.015555555555555557,0,0)" xlink:href="#H"/><use transform="matrix(0.015555555555555557,0,0,0.015555555555555557,21.311111111111114,0)" xlink:href="#w"/><use transform="matrix(0.015555555555555557,0,0,0.015555555555555557,37.08444444444445,0)" xlink:href="#A"/><use transform="matrix(0.015555555555555557,0,0,0.015555555555555557,45.0488888888889,0)" xlink:href="#D"/><use transform="matrix(0.015555555555555557,0,0,0.015555555555555557,53.01333333333334,0)" xlink:href="#I"/><use transform="matrix(0.015555555555555557,0,0,0.015555555555555557,70.40444444444445,0)" xlink:href="#q"/><use transform="matrix(0.015555555555555557,0,0,0.015555555555555557,82.35111111111111,0)" xlink:href="#w"/><use transform="matrix(0.015555555555555557,0,0,0.015555555555555557,98.12444444444445,0)" xlink:href="#t"/><use transform="matrix(0.015555555555555557,0,0,0.015555555555555557,109.72888888888889,0)" xlink:href="#D"/><use transform="matrix(0.015555555555555557,0,0,0.015555555555555557,117.69333333333333,0)" xlink:href="#y"/><use transform="matrix(0.015555555555555557,0,0,0.015555555555555557,134.9911111111111,0)" xlink:href="#E"/></g><path d="M338-1150c4 31 6 65 6 97V0H174v-1433c59 2 132-6 183 5 10 2 18 13 27 28l495 882c19 31 31 68 45 104 14-38 27-71 46-105l485-881c25-58 137-23 210-33V0h-170c2-381-5-772 4-1147l-491 896c-27 62-134 61-168 0" id="J"/><g id="o"><use transform="matrix(0.015555555555555557,0,0,0.015555555555555557,0,0)" xlink:href="#J"/><use transform="matrix(0.015555555555555557,0,0,0.015555555555555557,28.622222222222224,0)" xlink:href="#w"/><use transform="matrix(0.015555555555555557,0,0,0.015555555555555557,44.39555555555556,0)" xlink:href="#t"/><use transform="matrix(0.015555555555555557,0,0,0.015555555555555557,56.00000000000001,0)" xlink:href="#q"/><use transform="matrix(0.015555555555555557,0,0,0.015555555555555557,68.53777777777779,0)" xlink:href="#D"/><use transform="matrix(0.015555555555555557,0,0,0.015555555555555557,76.50222222222223,0)" xlink:href="#z"/></g></defs></g></svg>