<svg xmlns="http://www.w3.org/2000/svg" xmlns:xlink="http://www.w3.org/1999/xlink" xmlns:lucid="lucid" width="932.28" height="497.64"><g transform="translate(0 0)" lucid:page-tab-id="0_0"><path d="M144.88 226.77l124.08 100.3v133.74L144.88 360.5z" stroke="#000" stroke-width="2" fill="#ffbbb1" filter="url(#a)"/><path d="M144.88 359.5V227.78M144.88 359.48v1.03M144.88 227.8v-1.03M268.2 326.45L145.65 227.4M268.17 326.43l.8.65M145.68 227.42l-.8-.65M268.2 460.2l-122.54-99.06M268.17 460.17l.8.64M145.68 361.15l-.8-.64" stroke="#000" stroke-width="2" fill="none"/><path d="M169.7 380.07v-1.95m0-3.9v-3.9m0-3.9v-3.92m0-3.9v-3.9m0-3.9v-3.9m0-3.92v-3.9m0-3.9v-3.9m0-3.9v-3.92m0-3.9v-3.9m0-3.9v-3.9m0-3.92v-3.9m0-3.9v-3.9m0-3.9v-3.92m0-3.9v-3.9m0-3.9v-3.92m0-3.9V261m0-3.9v-3.9m0-3.92v-1.95M169.7 380.06v.5M169.7 247.35v-.52M194.5 400.13v-1.95m0-3.9v-3.9m0-3.9v-3.92m0-3.9v-3.9m0-3.9v-3.9m0-3.92v-3.9m0-3.9v-3.9m0-3.9v-3.92m0-3.9v-3.9m0-3.9v-3.9m0-3.92v-3.9m0-3.9v-3.9m0-3.9v-3.92m0-3.9v-3.9m0-3.9v-3.9m0-3.92v-3.9m0-3.9v-3.9m0-3.9v-1.97M194.5 400.12v.5M194.5 267.4v-.5M219.54 420.36v-1.95m0-3.9v-3.9m0-3.9v-3.9m0-3.92v-3.9m0-3.9v-3.9m0-3.9v-3.92m0-3.9v-3.9m0-3.9v-3.9m0-3.92v-3.9m0-3.9v-3.9m0-3.9v-3.92m0-3.9v-3.9m0-3.9v-3.9m0-3.92v-3.9m0-3.9v-3.9m0-3.9v-3.92m0-3.9v-3.9m0-3.9v-1.96M219.54 420.34v.52M219.54 287.63v-.5M268.58 427.08l-1.55-1.25m-3.08-2.5l-3.08-2.5m-3.08-2.5l-3.1-2.5m-3.08-2.48l-3.08-2.5m-3.08-2.5l-3.1-2.5m-3.07-2.5l-3.1-2.48m-3.07-2.5l-3.1-2.5m-3.07-2.5l-3.08-2.5m-3.1-2.5l-3.07-2.48m-3.07-2.5l-3.08-2.5m-3.1-2.5l-3.07-2.5m-3.08-2.5l-3.08-2.5m-3.1-2.5l-3.07-2.48m-3.08-2.5l-3.08-2.5m-3.1-2.5l-3.08-2.5m-3.08-2.48l-3.08-2.5m-3.1-2.5l-3.07-2.5m-3.1-2.5l-3.08-2.5m-3.08-2.48l-3.08-2.5m-3.08-2.5l-3.1-2.5m-3.07-2.5l-1.53-1.24M268.57 427.07l.4.32M145.28 327.23l-.4-.32" stroke="#000" fill="none"/><path d="M244.15 340.87l24.8 21.3v33.45l-24.8-20.9z" stroke="#000" fill="#c1e4f7"/><path d="M240.66 371.9l-1.5-1.25m-2.97-2.48l-3-2.5m-2.97-2.47l-2.98-2.5m-2.98-2.47l-3-2.48m-2.97-2.5l-2.98-2.47m-2.98-2.48l-2.98-2.5m-2.98-2.47l-2.98-2.5m-2.98-2.47l-2.98-2.48m-3-2.5l-2.97-2.47m-2.98-2.47l-3-2.5m-2.97-2.47l-2.98-2.5m-2.98-2.47l-2.98-2.5m-3-2.48l-2.98-2.48m-2.98-2.5l-2.98-2.47m-2.98-2.48l-2.98-2.5m-2.98-2.48l-2.98-2.48m-2.98-2.5l-1.5-1.23M240.65 371.88l.4.33M145.28 292.42l-.4-.33M240.66 338.46l-1.6-1.3m-3.17-2.58l-3.2-2.58m-3.17-2.6l-3.18-2.57m-3.18-2.6l-3.18-2.57m-3.2-2.6l-3.17-2.57m-3.18-2.6l-3.18-2.58m-3.18-2.6l-3.2-2.58m-3.17-2.58l-3.18-2.6m-3.18-2.57l-3.18-2.6m-3.2-2.58l-3.16-2.6m-3.18-2.57l-3.18-2.6m-3.18-2.57l-3.18-2.6m-3.18-2.57l-3.18-2.58m-3.18-2.6l-3.18-2.57m-3.18-2.6l-3.18-2.57m-3.18-2.6l-1.6-1.28M240.65 338.45l.4.33M145.28 260.9l-.4-.32" stroke="#000" fill="none"/><path d="M268.96 459.8V328.1M268.96 459.8v1M268.96 328.1v-1.02" stroke="#000" stroke-width="2" fill="none"/><path d="M244.15 440.25v-1.95m0-3.9v-3.92m0-3.9v-3.9m0-3.92v-3.9m0-3.92v-3.9m0-3.9v-3.92m0-3.9v-3.92m0-3.9v-3.9m0-3.92v-1.95M244.15 440.24v.5M244.15 377.74v-.5M244.15 338.28v-1.93m0-3.84v-3.84m0-3.84v-3.85m0-3.84v-3.85m0-3.84v-1.93M244.15 338.26v.52M244.15 307.53V307" stroke="#000" fill="none"/><path d="M925.73 422.26V288.53L708.58 121.35l-93.06 66.87v133.74l124.1 100.3z" stroke="#000" stroke-width="2" fill="#ffbbb1" filter="url(#b)"/><path d="M244.8 340.77l451.55-36.43M244.82 340.77l-1.02.08" stroke="#000" stroke-width="2" fill="none"/><path d="M711.57 303.1l-13.85 5.78-.74-9.24z" stroke="#000" stroke-width="2"/><path d="M441.5 143.5l-7.7-24.9-24 3.25.5 220.75 7.5 25.5 23.8-1.82z" stroke="#000" fill="#0a6495" filter="url(#c)"/><path d="M7 387.5l56.4 55.57M7.03 387.53l-.73-.72" stroke="#000" stroke-width="2" fill="none"/><path d="M74.3 453.78l-13.43-6.7 6.5-6.6z" stroke="#000" stroke-width="2"/><path d="M6.3 387.8v82.75M6.3 387.84v-1.03" stroke="#000" stroke-width="2" fill="none"/><path d="M6.3 485.82l-4.64-14.27h9.27z" stroke="#000" stroke-width="2"/><path d="M7.3 386.7l68.78-6.9M7.32 386.7l-1.02.1" stroke="#000" stroke-width="2" fill="none"/><path d="M91.27 378.28l-13.73 6.03-.93-9.2z" stroke="#000" stroke-width="2"/><path d="M77.8 421.14h17.24v25.23H77.8z" fill="#fff" fill-opacity="0"/><path d="M93.93 426.17l-3.23 12.66c-.04.14-.04.22-.04.32 0 .3.14.5.5.5.77 0 1.46-.93 2.08-1.66l.18-.23.48.4c-.84 1.2-2.7 3.9-4.8 3.9-1.06 0-1.46-.7-1.46-1.9 0-.32.04-.9.15-1.34l.93-3.46h-.03c-.26.18-3.53 4.58-5 5.68-.82.6-1.77 1-2.6 1-1.7 0-2.22-1.3-2.22-2.68 0-.76.1-1.45.3-2.14l2.13-8.4c.16-.55.23-.77.23-.9 0-.45-.4-.85-1.2-.85-.25 0-.7.04-.94.1l-.12-.54 5.7-.94-3.05 11.85c-.07.33-.1.6-.1.88 0 .76.28 1.23.94 1.23.9 0 2.36-1.12 3.63-2.8 1.57-2.07 3.24-5.3 3.97-7.96l.76-2.73h2.8"/><path d="M18.9 466.14h18.42v25.23H18.9z" fill="#fff" fill-opacity="0"/><path d="M27.88 470.23l-3.24 11.85c-.1.36-.14.77-.14 1.17 0 1.38.73 2.4 2.18 2.4 3.93 0 6.47-4.1 7.64-7.4.3-.86.54-1.77.54-2.68 0-2.7-2.22-2.36-2.22-3.96 0-1.23.9-1.52 1.97-1.52 1.54 0 1.72 1.85 1.72 3.02 0 3.6-1.42 7.27-3.53 10.18-1.57 2.18-4.37 3.78-7.07 3.78-2.32 0-4.2-.72-4.2-3.38 0-.76.1-1.53.3-2.25l2.12-7.64c.08-.3.18-.63.18-.92 0-.73-1.6-.73-2.07-.73v-.54c1.9-.47 3.86-.72 5.67-1.52"/><path d="M75.6 333.86h19.36v32.07H75.6z" fill="#fff" fill-opacity="0"/><path d="M94.76 337l-5.42 21.75c-.04.1-.08.33-.08.43 0 .22.2.33.55.33.74 0 1.76-1.26 2.26-2.03l.4.44c-1.1 1.65-3 3.83-4.72 3.83-1.17 0-1.46-.84-1.46-1.5 0-.72.08-1.23.37-2.32h-.2c-2.68 3.4-4.86 3.83-6.2 3.83-2.66 0-3.2-2.7-3.2-4.62 0-3.73 3.74-11.84 9.34-11.84 2.06 0 2.9.94 2.94 1.8h.07l1.94-7.6c.03-.13.07-.28.07-.42 0-.48-.24-.73-1.2-.73-.32 0-.72.08-.97.12l-.15-.55m-.3 11.06c0-1.7-.53-2.58-2.02-2.58-3.6 0-6.55 7.27-6.55 10.76 0 1.8 1.03 2.4 2.05 2.4 2.54 0 4.94-3.4 5.96-6.75.4-1.28.6-2.7.6-3.82"/><path d="M616.34 187.64l91.43-65.7M616.36 187.62l-.84.6M707.75 121.95l.83-.6" stroke="#000" stroke-width="2" fill="none"/><path d="M410 122.33l7.7 24.04M410 122.34l-.16-.5M417.7 146.36l.14.5M441.35 143.5l-23 2.86M441.34 143.5l.5-.08M418.35 146.36l-.5.06" stroke="#000" fill="none"/><path d="M615.52 320.96V189.22M615.52 320.94v1.02M615.52 189.25v-1.03M738.83 287.9L616.3 188.85M738.8 287.88l.8.65M616.32 188.87l-.8-.65M738.83 421.64L616.3 322.6M738.8 421.62l.8.64M616.32 322.6l-.8-.64M740.6 288.53h184.13M740.63 288.53h-1.02M924.7 288.53h1.03M924.94 287.92L709.38 121.96M924.92 287.9l.8.63M709.4 121.98l-.82-.63M740.6 422.26h184.13M740.63 422.26h-1.02M924.7 422.26h1.03" stroke="#000" stroke-width="2" fill="none"/><path d="M640.34 341.52v-1.95m0-3.9v-3.9m0-3.9v-3.92m0-3.9v-3.9m0-3.9v-3.9m0-3.92v-3.9m0-3.9v-3.9m0-3.9v-3.92m0-3.9v-3.9m0-3.9v-3.9m0-3.9v-3.9m0-3.92v-3.9m0-3.9v-3.9m0-3.9v-3.92m0-3.9v-3.9m0-3.9v-3.9m0-3.92v-3.9m0-3.9v-1.96M640.34 341.5v.52M640.34 208.8v-.52M665.16 361.58v-1.95m0-3.9v-3.9m0-3.9V344m0-3.9v-3.9m0-3.9v-3.9m0-3.9v-3.9m0-3.9v-3.92m0-3.9v-3.9m0-3.9v-3.9m0-3.92v-3.9m0-3.9v-3.9m0-3.9v-3.92m0-3.9v-3.9m0-3.9v-3.92m0-3.9v-3.9m0-3.9v-3.9m0-3.92v-3.9m0-3.9v-1.96M665.16 361.57v.5M665.16 228.86v-.52M690.18 381.8v-1.94m0-3.9v-3.9m0-3.92v-3.9m0-3.9v-3.9m0-3.9v-3.92m0-3.9v-3.9m0-3.9V333m0-3.92v-3.9m0-3.9v-3.9m0-3.9v-3.92m0-3.9v-3.9m0-3.9v-3.9m0-3.92v-3.9m0-3.9v-3.9m0-3.9v-3.92m0-3.9v-3.9m0-3.9v-3.9m0-3.92v-1.95M690.18 381.8v.5M690.18 249.08v-.5M714.8 401.7v-1.95m0-3.9v-3.9m0-3.9v-3.9m0-3.92v-3.9m0-3.9v-3.9m0-3.9v-3.92m0-3.9v-3.9m0-3.9v-3.9m0-3.9v-3.9m0-3.92v-3.9m0-3.9v-3.9m0-3.9v-3.92m0-3.9v-3.9m0-3.9v-3.9m0-3.92v-3.9m0-3.9v-3.9m0-3.9v-3.92m0-3.9v-1.95M714.8 401.7v.5M714.8 268.98v-.5M739.22 388.53l-1.54-1.25m-3.1-2.5l-3.07-2.5m-3.07-2.5l-3.08-2.48m-3.1-2.5l-3.07-2.5m-3.08-2.5l-3.1-2.5m-3.07-2.5l-3.08-2.48m-3.08-2.5l-3.1-2.5m-3.07-2.5l-3.08-2.5m-3.08-2.48l-3.1-2.5m-3.07-2.5l-3.08-2.5m-3.1-2.5l-3.08-2.5m-3.08-2.48l-3.08-2.5m-3.08-2.5l-3.1-2.5m-3.07-2.5l-3.07-2.48m-3.1-2.5l-3.07-2.5m-3.08-2.5l-3.08-2.5m-3.1-2.5l-3.07-2.48m-3.08-2.5l-3.08-2.5m-3.1-2.5l-3.07-2.5m-3.08-2.5l-3.08-2.48m-3.1-2.5l-1.53-1.25M739.2 388.52l.4.32M615.92 288.68l-.4-.32M739.22 356.36l-1.54-1.28m-3.08-2.57l-3.1-2.55m-3.07-2.56l-3.08-2.57m-3.08-2.57l-3.1-2.56m-3.07-2.56l-3.08-2.56m-3.1-2.57l-3.07-2.55m-3.08-2.56l-3.08-2.57m-3.1-2.57l-3.08-2.56m-3.08-2.56l-3.1-2.56m-3.07-2.57l-3.08-2.55m-3.1-2.56l-3.08-2.57m-3.08-2.57l-3.08-2.56m-3.1-2.56l-3.07-2.56m-3.1-2.56l-3.07-2.57m-3.1-2.56l-3.07-2.57m-3.08-2.56l-3.1-2.57m-3.07-2.56l-3.07-2.56m-3.08-2.56l-3.1-2.57m-3.07-2.56l-3.08-2.57m-3.08-2.56l-3.1-2.57m-3.07-2.56l-1.54-1.28M739.2 356.35l.4.33M615.92 253.87l-.4-.33M739.22 322.87l-1.54-1.26m-3.1-2.5l-3.07-2.52m-3.07-2.5l-3.08-2.52m-3.1-2.5l-3.07-2.53m-3.08-2.5l-3.08-2.52m-3.1-2.5l-3.07-2.52m-3.08-2.5l-3.1-2.52m-3.07-2.52l-3.08-2.5m-3.08-2.52l-3.1-2.52m-3.07-2.5l-3.08-2.52m-3.1-2.5l-3.08-2.53m-3.08-2.5l-3.08-2.52m-3.08-2.52l-3.1-2.5m-3.07-2.5l-3.07-2.52m-3.1-2.52l-3.07-2.5m-3.08-2.52l-3.08-2.52m-3.1-2.5l-3.07-2.52m-3.08-2.5l-3.08-2.53m-3.1-2.5l-3.07-2.52m-3.08-2.52l-3.08-2.5m-3.1-2.52l-1.53-1.25M739.2 322.86l.4.32M615.92 222.36l-.4-.32M925.23 323.63h-2m-4.04 0h-4.03m-4.03 0h-4.02m-4.03 0h-4.03m-4.02 0h-4.03m-4.02 0h-4.03m-4.02 0h-4.03m-4.02 0h-4.03m-4.02 0h-4.02m-4.03 0h-4.02m-4.03 0h-4.02m-4.03 0h-4.02m-4.03 0h-4.02m-4.02 0h-4.02m-4.02 0h-4.03m-4.02 0h-4.02m-4.02 0h-4.03m-4.02 0h-4m-4.04 0h-4.02m-4.03 0h-4m-4.04 0h-4.02m-4.02 0h-4.03m-4.03 0h-4.03m-4.02 0h-2M925.22 323.63h.5M740.12 323.64h-.5M925.23 355.3h-2m-4.04 0h-4.03m-4.03 0h-4.02m-4.03 0h-4.03m-4.02 0h-4.03m-4.02 0h-4.03m-4.02.02h-4.03m-4.02 0h-4.03m-4.02 0h-4.02m-4.03 0h-4.02m-4.03 0l-4.02.02m-4.03 0h-4.02m-4.03 0h-4.02m-4.02 0h-4.02m-4.02 0l-4.03.02m-4.02 0h-4.02m-4.02 0h-4.03m-4.02 0h-4m-4.04 0h-4.02m-4.03.02h-4m-4.04 0h-4.02m-4.02 0h-4.03m-4.03 0h-4.03m-4.02 0l-2 .02M925.22 355.3h.5M740.12 355.4h-.5M925.23 388.83h-2m-4.04 0h-4.03m-4.03 0h-4.02m-4.03 0h-4.03m-4.02 0h-4.03m-4.02 0h-4.03m-4.02 0h-4.03m-4.02 0h-4.03m-4.02 0h-4.02m-4.03 0h-4.02m-4.03 0h-4.02m-4.03 0h-4.02m-4.03 0h-4.02m-4.02 0h-4.02m-4.02 0h-4.03m-4.02 0h-4.02m-4.02 0h-4.03m-4.02 0h-4m-4.04 0h-4.02m-4.03 0h-4m-4.04 0h-4.02m-4.02 0h-4.03m-4.03 0h-4.03m-4.02 0h-2M925.22 388.83h.5M740.12 388.83h-.5M640.23 207.6l1.74-.97m3.5-1.92l3.48-1.9m3.5-1.94l3.48-1.92m3.5-1.92l3.47-1.93m3.5-1.93l3.48-1.93m3.5-1.92l3.48-1.92m3.5-1.93l3.48-1.92m3.5-1.92l3.47-1.93m3.5-1.92l3.5-1.93m3.48-1.92l3.5-1.92m3.48-1.92l3.5-1.92m3.48-1.93l3.48-1.92m3.5-1.9l3.48-1.94m3.5-1.92l3.48-1.92m3.5-1.93l3.48-1.93m3.5-1.93l1.73-.96M640.24 207.6l-.45.24M744.88 149.9l.45-.26M665.14 227.78l1.92-.7m3.84-1.4l3.83-1.4m3.84-1.4l3.83-1.4m3.84-1.4l3.83-1.4m3.84-1.4l3.84-1.4m3.84-1.4l3.84-1.4m3.83-1.42l3.84-1.4m3.82-1.4l3.84-1.4m3.83-1.4l3.83-1.4m3.83-1.4l3.84-1.4m3.83-1.4l3.84-1.4m3.84-1.4l3.84-1.4m3.84-1.4l3.83-1.42m3.85-1.4l3.83-1.4m3.84-1.4l3.83-1.4m3.84-1.4l3.83-1.4m3.83-1.4l1.92-.7M665.15 227.78l-.48.17M787.87 182.94l.48-.18M715.4 268.52l2.05-.2m4.06-.4l4.08-.42m4.07-.4l4.06-.4m4.08-.4l4.07-.42m4.06-.4l4.08-.4m4.07-.42l4.06-.4m4.08-.4l4.07-.42m4.07-.4l4.06-.4m4.07-.4l4.07-.42m4.06-.4l4.07-.4m4.07-.42l4.06-.4m4.07-.4l4.07-.4m4.06-.42l4.07-.4m4.07-.4l4.06-.42m4.07-.4l4.07-.4m4.07-.42l4.05-.4m4.07-.4l4.07-.4m4.05-.42l4.07-.4m4.07-.4l4.05-.42m4.07-.4l4.07-.4m4.05-.4l2.04-.22M715.42 268.52l-.5.05M878.08 252.28l.5-.05M691.3 248.98l1.96-.45m3.88-.9l3.9-.92m3.88-.9l3.88-.9m3.9-.92l3.88-.9m3.88-.9l3.9-.92m3.88-.9l3.88-.92m3.9-.9l3.88-.92m3.88-.9l3.9-.9m3.88-.92l3.9-.9m3.87-.92l3.9-.9m3.88-.92l3.9-.9m3.88-.92l3.9-.9m3.87-.9l3.9-.92m3.88-.9l3.88-.92m3.9-.9l3.9-.92m3.87-.9l3.9-.9m3.88-.92l3.88-.9m3.9-.92l3.88-.9m3.9-.92l1.94-.45M691.33 248.98l-.5.12M831.22 216.27l.5-.12M649.52 165.42l1.58 1.27m3.15 2.55l3.16 2.56m3.16 2.57l3.15 2.56m3.17 2.56l3.15 2.54m3.16 2.56l3.15 2.56m3.16 2.56l3.14 2.56m3.15 2.56l3.15 2.55m3.15 2.55l3.16 2.56m3.15 2.57l3.17 2.56m3.15 2.55l3.16 2.56m3.15 2.56l3.15 2.56m3.16 2.56l3.15 2.56m3.15 2.55l3.15 2.56m3.16 2.55l3.15 2.56m3.16 2.57l3.16 2.56m3.15 2.55l3.16 2.56m3.15 2.56l3.16 2.56m3.15 2.56l3.15 2.56m3.15 2.55l3.15 2.56m3.16 2.55l3.16 2.56m3.16 2.57l3.15 2.55m3.16 2.56l3.15 2.56m3.15 2.56l3.16 2.56m3.14 2.56l3.16 2.55m3.15 2.56l1.58 1.28M649.53 165.42l-.4-.32M800.92 288.2l.4.33M634.33 176.44l1.54 1.27m3.1 2.55l3.08 2.54m3.08 2.53l3.1 2.54m3.08 2.54l3.1 2.55m3.08 2.54l3.1 2.53m3.08 2.54l3.1 2.54m3.07 2.55l3.1 2.54m3.08 2.53l3.1 2.54m3.08 2.54l3.1 2.55m3.08 2.54l3.08 2.53m3.1 2.54l3.08 2.54m3.1 2.55l3.07 2.55m3.08 2.54l3.1 2.54m3.08 2.54l3.08 2.54m3.1 2.54l3.08 2.54m3.08 2.54l3.1 2.54m3.08 2.54l3.1 2.54m3.07 2.54l3.1 2.54m3.08 2.54l3.1 2.54m3.07 2.54l3.1 2.54m3.08 2.54l3.1 2.54m3.07 2.54l3.1 2.54m3.08 2.54l1.54 1.27M634.34 176.45l-.4-.33M770.16 288.2l.4.33M663.5 154.72l1.56 1.23m3.12 2.47l3.12 2.48m3.12 2.47l3.12 2.47m3.12 2.47l3.12 2.5m3.12 2.46l3.1 2.47m3.13 2.47l3.12 2.47m3.12 2.48l3.12 2.47m3.1 2.47l3.13 2.46m3.12 2.48l3.12 2.47m3.12 2.48l3.1 2.47m3.13 2.47l3.12 2.48m3.12 2.47l3.12 2.47m3.1 2.47l3.13 2.5m3.12 2.46l3.12 2.47m3.12 2.47l3.1 2.47m3.13 2.48l3.12 2.47m3.12 2.47l3.12 2.46m3.1 2.48l3.13 2.47m3.12 2.48l3.12 2.47m3.12 2.47l3.1 2.48m3.13 2.47l3.12 2.47m3.12 2.47l3.12 2.5m3.1 2.46l3.13 2.47m3.12 2.47l3.12 2.47m3.12 2.48l3.1 2.47m3.13 2.47l3.12 2.46m3.12 2.48l3.12 2.47m3.1 2.48l1.57 1.24M663.5 154.72l-.4-.3M831.96 288.2l.4.33M678.74 143.4l1.6 1.24m3.17 2.5l3.2 2.5m3.17 2.5l3.18 2.5m3.18 2.48l3.18 2.5m3.2 2.5l3.17 2.5m3.18 2.5l3.18 2.5m3.18 2.5l3.2 2.48m3.17 2.5l3.18 2.5m3.18 2.5l3.18 2.5m3.2 2.5l3.17 2.48m3.18 2.5l3.18 2.5m3.18 2.5l3.2 2.5m3.17 2.5l3.18 2.5m3.18 2.48l3.18 2.5m3.2 2.5l3.17 2.5m3.18 2.5l3.18 2.5m3.18 2.5l3.2 2.48m3.17 2.5l3.18 2.5m3.18 2.5l3.18 2.5m3.2 2.5l3.17 2.5m3.18 2.48l3.18 2.5m3.18 2.5l3.2 2.5m3.17 2.5l3.18 2.5m3.18 2.48l3.18 2.5m3.2 2.5l3.17 2.5m3.18 2.5l3.18 2.5m3.18 2.5l3.2 2.48m3.17 2.5l3.18 2.5m3.18 2.5l3.18 2.5m3.2 2.5l1.58 1.24M678.75 143.4l-.4-.32M863.17 288.2l.4.33M693.3 133.16l1.57 1.2m3.13 2.44l3.14 2.42m3.13 2.42l3.14 2.42m3.15 2.43l3.13 2.4m3.14 2.43l3.13 2.43m3.14 2.42l3.13 2.42m3.13 2.42l3.14 2.43m3.14 2.42l3.13 2.42m3.14 2.42l3.14 2.42m3.14 2.42l3.14 2.42m3.13 2.43l3.14 2.43m3.12 2.42l3.14 2.42m3.14 2.43l3.13 2.42m3.14 2.42l3.14 2.43m3.14 2.42l3.14 2.4m3.13 2.43l3.15 2.43m3.14 2.42l3.12 2.42m3.14 2.43l3.13 2.42m3.13 2.42l3.14 2.42m3.13 2.42l3.14 2.42m3.14 2.42l3.13 2.43m3.15 2.4l3.13 2.43m3.14 2.42l3.14 2.43m3.13 2.42l3.13 2.42m3.13 2.42l3.14 2.43m3.14 2.42l3.13 2.4m3.14 2.44l3.15 2.42m3.13 2.42l3.14 2.42m3.13 2.43l3.14 2.42m3.13 2.42l3.13 2.43m3.14 2.42l3.14 2.42m3.13 2.42l3.14 2.43m3.14 2.4l1.57 1.22M693.3 133.17l-.4-.3M894 288.2l.4.33" stroke="#000" fill="none"/><path d="M714.77 302.25l24.82 21.32V357l-24.83-20.9z" stroke="#000" fill="#c1e4f7"/><path d="M739.37 323.63h31.4v33.18h-31.4z" stroke="#000" fill="#c1e4f7"/><path d="M770.63 323.63h31.4v33.18h-31.4z" stroke="#000" fill="#0e88c9"/><path d="M801.65 323.63h31.4v33.18h-31.4z" stroke="#000" fill="#0a6495"/><path d="M832.67 323.63h31.4v33.18h-31.4z" stroke="#000" fill="#83bbe5"/><path d="M863.7 323.63h31.38v33.18h-31.4z" stroke="#000" fill="#c1e4f7"/><path d="M894.7 323.63h31.4v33.18h-31.4z" stroke="#000" fill="#ddeef7"/><path d="M925.73 421.26V289.53M925.73 421.24v1.02M925.73 289.55v-1.02" stroke="#000" stroke-width="2" fill="none"/><path d="M770.63 421.76v-2m0-4v-4.03m0-4v-4.02m0-4v-4.02m0-4v-4.02m0-4v-4.02m0-4.02v-4m0-4.02v-4m0-4.03v-2M770.63 421.75v.5M770.63 357.58v-.5M801.65 421.76v-2m0-4v-4.03m0-4v-4.02m0-4v-4.02m0-4v-4.02m0-4v-4.02m0-4.02v-4m0-4.02v-4m0-4.03v-2M801.65 421.75v.5M801.65 357.58v-.5M832.67 421.76v-2m0-4v-4.03m0-4v-4.02m0-4v-4.02m0-4v-4.02m0-4v-4.02m0-4.02v-4m0-4.02v-4m0-4.03v-2M832.67 421.75v.5M832.67 357.58v-.5M863.7 421.76v-2m0-4v-4.03m0-4v-4.02m0-4v-4.02m0-4v-4.02m0-4v-4.02m0-4.02v-4m0-4.02v-4m0-4.03v-2M863.7 421.75v.5M863.7 357.58v-.5M894.7 421.76v-2m0-4v-4.03m0-4v-4.02m0-4v-4.02m0-4v-4.02m0-4v-4.02m0-4.02v-4m0-4.02v-4m0-4.03v-2M894.7 421.75v.5M894.7 357.58v-.5" stroke="#000" fill="none"/><path d="M714.94 302.55l27.77-3.16 28.4 24.2h-31.74z" stroke="#000" fill="#c1e4f7"/><path d="M739.6 421.26V289.53M739.6 421.24v1.02M739.6 289.55v-1.02" stroke="#000" stroke-width="2" fill="none"/><path d="M743.1 299.4l26.75-1.68L802 323.5h-31.76z" stroke="#000" fill="#0e88c9"/><path d="M769.85 297.72l26.76-1.67 35.63 26.9h-31.75z" stroke="#000" fill="#0a6495"/><path d="M797 296.05l28.3-2.1 37.95 29H831.5z" stroke="#000" fill="#83bbe5"/><path d="M824.9 293.96l26.77-2.1 42.6 31.1h-31.75z" stroke="#000" fill="#c1e4f7"/><path d="M851.28 291.87l24.82-1.67 49.2 32.76h-31.76z" stroke="#000" fill="#ddeef7"/><path d="M770.63 323.13V321m0-4.26v-4.27m0-4.26v-4.25m0-4.27v-4.26m0-4.26v-2.13M770.63 323.12v.5M770.63 289.04v-.5M801.65 323.13V321m0-4.26v-4.27m0-4.26v-4.25m0-4.27v-4.26m0-4.26v-2.13M801.65 323.12v.5M801.65 289.04v-.5M832.67 323.13V321m0-4.26v-4.27m0-4.26v-4.25m0-4.27v-4.26m0-4.26v-2.13M832.67 323.12v.5M832.67 289.04v-.5M863.7 323.13V321m0-4.26v-4.27m0-4.26v-4.25m0-4.27v-4.26m0-4.26v-2.13M863.7 323.12v.5M863.7 289.04v-.5M894.7 323.13V321m0-4.26v-4.27m0-4.26v-4.25m0-4.27v-4.26m0-4.26v-2.13M894.7 323.12v.5M894.7 289.04v-.5M291.93 337.33l.54 1.93m1.07 3.85l1.07 3.87m1.1 3.85l1.06 3.85m1.08 3.86l1.07 3.85m1.08 3.85l1.08 3.86m1.07 3.84l1.08 3.85m1.08 3.85l1.07 3.85m1.08 3.85l.54 1.93M291.93 337.34l-.13-.5M306.96 391.27l.14.5" stroke="#000" fill="none"/><path d="M269.8 394.77l451.55-36.43M269.82 394.77l-1.02.08" stroke="#000" stroke-width="2" fill="none"/><path d="M736.57 357.1l-13.85 5.78-.74-9.24z" stroke="#000" stroke-width="2"/><path d="M308.8 306.35v45M308.8 306.36v-.5M308.8 351.34v.5" stroke="#000" fill="none"/><path d="M340.8 327.85l-8-25.5-24 3.75v45.25l7.5 25.5 24.25-2z" stroke="#000" fill="#c1e4f7" filter="url(#d)"/><path d="M308.95 306.33l7.7 24.04M308.95 306.34l-.15-.5M316.64 330.36l.16.5M316.8 331.35v45M316.8 331.36v-.5M316.8 376.34v.5M332.94 302.33l7.7 25.04M332.95 302.34l-.15-.5M340.64 327.36l.16.5M340.3 327.9l-23 2.9M340.3 327.9l.5-.05M317.3 330.8l-.5.05" stroke="#000" fill="none"/><path d="M390.55 275.1l-9.25-25-22.5 2.75.25 94 7.5 25.5 23.82-1.93z" stroke="#000" fill="#0e88c9" filter="url(#e)"/><path d="M358.77 253.33l7.7 24.04M358.77 253.34l-.15-.5M366.46 277.36l.16.5M366.62 278.35v94M366.62 278.36v-.5M366.62 372.34v.5M390.12 274.9l-23 2.9M390.1 274.9l.52-.05M367.13 277.8l-.5.05M417.8 146.35v221M417.8 146.36v-.5M417.8 367.34v.5" stroke="#000" fill="none"/><path d="M491.55 273.85l-9.75-25.25-22.5 3.5 1 86 7.25 25.5 23.92-1.8z" stroke="#000" fill="#83bbe5" filter="url(#f)"/><path d="M459.95 253.33l7.62 23.05M459.96 253.34l-.16-.5M467.56 276.36l.16.5M467.72 277.35v86M467.72 277.36v-.5M467.72 363.34v.5M491.23 273.9l-23 2.9M491.22 273.9l.5-.05M468.23 276.8l-.5.05" stroke="#000" fill="none"/><path d="M541.12 310.52l-8-25.5-24 3.75v45.25l7.5 25.5 24.25-2z" stroke="#000" fill="#c1e4f7" filter="url(#d)"/><path d="M509.28 289l7.7 24.04M509.28 289l-.16-.48M516.97 313.03l.15.5M517.12 314.02v45M517.12 314.03v-.5M517.12 359v.52M533.27 285l7.7 25.04M533.27 285l-.15-.48M540.97 310.03l.15.5M540.63 310.58l-23 2.88M540.6 310.58l.52-.06M517.63 313.46l-.5.06" stroke="#000" fill="none"/><path d="M590.55 326.35l-8.75-24.5-22.75 2.5.07 25.28 7.5 25.5 24.25-2z" stroke="#000" fill="#ddeef7" filter="url(#g)"/><path d="M559.27 304.33l7.7 24.04M559.27 304.34l-.15-.5M566.96 328.36l.16.5" stroke="#000" fill="none"/><path d="M314.96 18.9h251.97v37.8H314.96z" stroke="#000" stroke-opacity="0" stroke-width="2" fill="#fff" fill-opacity="0"/><use xlink:href="#h" transform="matrix(1,0,0,1,319.9606299212598,23.897637795275593) translate(7.888415942913014 25.61751571003783)"/><use xlink:href="#i" transform="matrix(1,0,0,1,319.9606299212598,23.897637795275593) translate(84.48141377505246 25.61751571003783)"/><path d="M567.12 329.35v25.28M567.12 329.36v-.5M567.12 354.62v.5" stroke="#000" fill="none"/><path d="M375.02 63h97.22V98.1h-97.22z" fill="#fff" fill-opacity="0"/><path d="M375.5 65.73h10.9c7.94 0 12.7 4.36 12.7 11.54 0 3.6-1.5 7-4.02 9.2-2.13 1.85-5.27 2.83-8.8 2.83h-10.77v-.87c2.03-.07 2.9-.87 2.9-2.55V68.93c0-1.6-.66-2.12-2.9-2.33v-.87m8.56 2.72V85.8c0 1.58.45 2.28 2.02 2.28 2.3 0 4-.84 5.2-2.5 1.08-1.58 1.74-4.72 1.74-7.8 0-3-.42-5.57-1.43-7.35-1.34-2.3-3.08-3.52-5.7-3.52-1.36 0-1.84.57-1.84 1.55M410.8 94.92l-.4.55c-5.52-3.13-8.52-9.03-8.52-14.96 0-6.44 3.03-11.46 8.6-14.77l.32.55c-4.84 4.15-5.92 7.4-5.92 14.13 0 6.5 1.04 10.44 5.92 14.52M427.34 74.38l-3.1 12.13c-.04.15-.04.22-.04.33 0 .27.14.48.48.48.74 0 1.4-.9 2-1.6l.17-.2.45.38c-.8 1.15-2.58 3.74-4.6 3.74-1 0-1.4-.67-1.4-1.82 0-.3.04-.87.14-1.3l.9-3.3h-.03c-.23.17-3.37 4.4-4.76 5.44-.8.6-1.7.98-2.52.98-1.63 0-2.12-1.26-2.12-2.6 0-.72.1-1.38.28-2.04l2.05-8.06c.14-.52.2-.73.2-.87 0-.42-.37-.8-1.14-.8-.25 0-.67.03-.9.1l-.12-.52 5.48-.9-2.93 11.36c-.07.3-.1.55-.1.83 0 .73.27 1.18.9 1.18.87 0 2.27-1.07 3.5-2.67 1.5-2 3.1-5.1 3.8-7.64l.72-2.62h2.7M431.28 94.22l-.35-.66c1.92-1.3 2.9-2.58 2.9-3.74 0-.24-.22-.45-.5-.45s-.62.14-1 .14c-1.3 0-2.03-.58-2.03-1.77 0-1.18.84-2 2.1-2 1.56 0 2.78 1.23 2.78 3.05 0 2.1-1.5 4.3-3.9 5.44M451.54 73.47l-3.1 11.37c-.1.35-.14.73-.14 1.1 0 1.34.7 2.32 2.1 2.32 3.75 0 6.2-3.95 7.3-7.08.3-.84.53-1.7.53-2.6 0-2.57-2.12-2.25-2.12-3.8 0-1.17.88-1.45 1.9-1.45 1.45 0 1.63 1.78 1.63 2.9 0 3.45-1.36 6.97-3.38 9.76-1.5 2.08-4.2 3.62-6.77 3.62-2.23 0-4.04-.7-4.04-3.25 0-.73.1-1.46.3-2.16l2.03-7.3c.07-.3.18-.6.18-.9 0-.68-1.54-.68-2-.68v-.53c1.82-.46 3.7-.7 5.45-1.47M461.62 66.28l.42-.55c5.33 3.2 8.5 9.03 8.5 14.96 0 6.44-3.06 11.4-8.6 14.77l-.32-.55c4.95-4.08 5.93-7.36 5.93-14.13 0-6.53-.88-10.54-5.93-14.52"/><path d="M590.62 326.5l-23.33 2.3M590.6 326.5l.52-.05M567.3 328.8l-.5.05M342.93 333.33l.54 1.93m1.07 3.85l1.07 3.87m1.1 3.85l1.06 3.85m1.08 3.86l1.07 3.85m1.08 3.85l1.08 3.86m1.07 3.84l1.08 3.85m1.08 3.85l1.07 3.85m1.08 3.85l.54 1.93M342.93 333.34l-.13-.5M357.96 387.27l.14.5" stroke="#000" fill="none"/><path d="M0 107.1h198.47v37.78H0z" stroke="#000" stroke-opacity="0" stroke-width="2" fill="#fff" fill-opacity="0"/><use xlink:href="#j" transform="matrix(1,0,0,1,5,112.08661417322834) translate(7.356323205215801 25.61751571003783)"/><use xlink:href="#k" transform="matrix(1,0,0,1,5,112.08661417322834) translate(81.6652872151837 25.61751571003783)"/><path d="M50.4 151.18h93.34v35.13H50.4z" fill="#fff" fill-opacity="0"/><path d="M70.73 160.96h-.84c-.5-2.65-.88-3.45-2.1-4.5-1.1-.94-2.62-1.36-5.7-1.36-1.77 0-2.43.5-2.43 1.78v7.95c3.5 0 4.85-1.25 5.34-5.2h.88v11.8H65c-.34-4.12-1.77-5.34-5.33-5.4v7.94c0 2 .63 2.5 3.84 2.65v.87H50.96v-.88c2.58-.28 3.07-.77 3.07-2.72v-16.46c0-2.03-.66-2.5-3.07-2.65v-.88h19.78v7.04M82.3 183.1l-.4.56c-5.52-3.14-8.52-9.03-8.52-14.96 0-6.45 3.03-11.47 8.6-14.78l.32.55c-4.84 4.15-5.92 7.4-5.92 14.13 0 6.48 1.04 10.42 5.92 14.5M98.83 162.56l-3.1 12.14c-.03.14-.03.2-.03.3 0 .3.14.5.48.5.74 0 1.4-.9 2-1.6l.17-.2.45.37c-.8 1.15-2.58 3.73-4.6 3.73-1.02 0-1.4-.66-1.4-1.8 0-.32.04-.88.14-1.3l.9-3.3h-.03c-.23.16-3.37 4.38-4.77 5.43-.8.6-1.7.97-2.5.97-1.65 0-2.13-1.25-2.13-2.58 0-.73.1-1.4.28-2.05l2.05-8.06c.14-.5.2-.72.2-.86 0-.42-.37-.8-1.14-.8-.25 0-.67.03-.92.1l-.1-.52 5.48-.9-2.93 11.36c-.07.3-.1.56-.1.84 0 .73.27 1.18.9 1.18.87 0 2.26-1.08 3.5-2.68 1.5-2 3.1-5.1 3.8-7.64l.72-2.62h2.68M102.78 182.4l-.35-.65c1.9-1.3 2.9-2.6 2.9-3.74 0-.23-.22-.44-.5-.44s-.62.14-1 .14c-1.3 0-2.03-.6-2.03-1.78 0-1.18.84-2 2.1-2 1.56 0 2.78 1.23 2.78 3.05 0 2.1-1.5 4.3-3.9 5.44M123.04 161.66l-3.1 11.37c-.1.35-.15.73-.15 1.1 0 1.34.7 2.3 2.1 2.3 3.75 0 6.2-3.93 7.3-7.07.3-.83.53-1.7.53-2.58 0-2.58-2.12-2.26-2.12-3.8 0-1.18.88-1.46 1.9-1.46 1.45 0 1.63 1.78 1.63 2.9 0 3.45-1.36 6.97-3.38 9.76-1.5 2.1-4.2 3.62-6.77 3.62-2.23 0-4.05-.7-4.05-3.24 0-.73.1-1.46.32-2.16l2.02-7.32c.07-.28.18-.6.18-.88 0-.7-1.54-.7-2-.7V163c1.82-.45 3.7-.7 5.45-1.46M133.12 154.47l.4-.55c5.35 3.2 8.52 9.03 8.52 14.96 0 6.45-3.06 11.4-8.6 14.78l-.32-.55c4.95-4.08 5.92-7.35 5.92-14.12 0-6.52-.87-10.53-5.92-14.5"/><path d="M394.93 328.33l.54 1.93m1.07 3.85l1.07 3.87m1.1 3.85l1.06 3.85m1.08 3.86l1.07 3.85m1.08 3.85l1.08 3.86m1.07 3.84l1.08 3.85m1.08 3.85l1.07 3.85m1.08 3.85l.54 1.93M394.93 328.34l-.13-.5M409.96 382.27l.14.5M447.93 325.33l.54 1.93m1.07 3.85l1.07 3.87m1.1 3.85l1.06 3.85m1.08 3.86l1.07 3.85m1.08 3.85l1.08 3.86m1.07 3.84l1.08 3.85m1.08 3.85l1.07 3.85m1.08 3.85l.54 1.93M447.93 325.34l-.13-.5M462.96 379.27l.14.5M495.93 320.33l.54 1.93m1.07 3.85l1.07 3.87m1.1 3.85l1.06 3.85m1.08 3.86l1.07 3.85m1.08 3.85l1.08 3.86m1.07 3.84l1.08 3.85m1.08 3.85l1.07 3.85m1.08 3.85l.54 1.93M495.93 320.34l-.13-.5M510.96 374.27l.14.5" stroke="#000" fill="none"/><path d="M94.5 189.98l.48 37.13.8 12.98.95 9.15 1.06 7.24 1.15 6.08 1.24 5.3 1.3 4.7 1.4 4.3 1.46 3.93 1.55 3.7 1.64 3.46 1.73 3.3 1.84 3.2 1.95 3.06 2.08 3 2.23 2.93 2.4 2.9 2.58 2.86 2.8 2.86 3.08 2.88 3.38 2.9 3.73 2.98 4.18 3.02 4.7 3.13 5.35 3.23 6.16 3.38 7.2 3.56 8.5 3.8 10.28 4.05 12.7 4.4 16.16 4.86 21.32 5.46 25.43 5.43M94.5 190v-1.02M257.26 365.14l1 .2" stroke="#000" stroke-width="2" fill="none"/><path d="M545.93 316.33l.54 1.93m1.07 3.85l1.07 3.87m1.1 3.85l1.06 3.85m1.08 3.86l1.07 3.85m1.08 3.85l1.08 3.86m1.07 3.84l1.08 3.85m1.08 3.85l1.07 3.85m1.08 3.85l.54 1.93M545.93 316.34l-.13-.5M560.96 370.27l.14.5M594.93 312.33l.54 1.93m1.07 3.85l1.07 3.87m1.1 3.85l1.06 3.85m1.08 3.86l1.07 3.85m1.08 3.85l1.08 3.86m1.07 3.84l1.08 3.85m1.08 3.85l1.07 3.85m1.08 3.85l.54 1.93M594.93 312.34l-.13-.5M609.96 366.27l.14.5" stroke="#000" fill="none"/><path d="M289.76 403.15h94.35v36.63h-94.34z" fill="#fff" fill-opacity="0"/><path d="M308.93 406.3l-5.42 21.74c-.03.1-.06.33-.06.44 0 .2.18.32.54.32.73 0 1.75-1.27 2.26-2.03l.4.43c-1.1 1.64-3.02 3.82-4.73 3.82-1.15 0-1.44-.84-1.44-1.5 0-.72.07-1.23.36-2.32h-.18c-2.7 3.38-4.88 3.82-6.22 3.82-2.66 0-3.2-2.7-3.2-4.62 0-3.74 3.74-11.85 9.34-11.85 2.08 0 2.9.94 2.95 1.82h.08l1.93-7.6c.05-.15.08-.3.08-.44 0-.47-.25-.73-1.2-.73-.32 0-.72.07-.98.1l-.14-.54m-.3 11.06c0-1.7-.54-2.58-2.03-2.58-3.6 0-6.55 7.27-6.55 10.76 0 1.78 1.02 2.4 2.04 2.4 2.54 0 4.94-3.42 5.96-6.76.4-1.27.58-2.7.58-3.82M315.73 421.5c0 .68-.56 1.2-1.23 1.2-.75 0-1.24-.52-1.24-1.2 0-.63.5-1.28 1.24-1.28.67 0 1.23.65 1.23 1.3m-.77 3.2l-2.36 9.36c-.03.16-.03.26-.03.36 0 .18.15.26.33.26.57 0 .72-.3 1.65-1.3l.33.24c-.9 1.16-2.18 2.7-3.44 2.7-.72 0-1.03-.48-1.03-1.18 0-.3 0-.8 2.04-8.7.03-.04.05-.22.05-.3 0-.43-.2-.56-.8-.56-.24 0-.54.05-.72.1l-.08-.4M354.02 418.95H332.6v-2.4h21.42v2.4m0 7.27H332.6v-2.4h21.42v2.4M383.2 418.58c0 6.26-2.3 12.5-8.23 12.5-6.22 0-8.22-6.75-8.22-12.7 0-6.45 2.5-12.38 8.37-12.38 4.76 0 8.07 5.13 8.07 12.58m-3.5.2c0-7.58-1.6-11.83-4.8-11.83-3.02 0-4.66 4.3-4.66 11.67 0 7.38 1.6 11.53 4.73 11.53 3.1 0 4.73-4.18 4.73-11.38"/><path d="M541.73 384.25h104.9v36.63h-104.9z" fill="#fff" fill-opacity="0"/><path d="M560.9 387.4l-5.42 21.74c-.04.1-.07.33-.07.44 0 .22.2.33.55.33.73 0 1.75-1.27 2.26-2.03l.4.44c-1.08 1.64-3 3.82-4.72 3.82-1.16 0-1.46-.83-1.46-1.5 0-.7.08-1.22.37-2.3h-.2c-2.7 3.37-4.87 3.8-6.2 3.8-2.67 0-3.2-2.7-3.2-4.62 0-3.74 3.73-11.85 9.33-11.85 2.08 0 2.9.94 2.95 1.82h.07l1.93-7.6c.04-.15.07-.3.07-.44 0-.47-.25-.73-1.2-.73-.33 0-.73.08-.98.1l-.15-.53m-.3 11.05c0-1.7-.53-2.58-2.02-2.58-3.6 0-6.55 7.27-6.55 10.76 0 1.8 1.02 2.4 2.04 2.4 2.53 0 4.93-3.4 5.95-6.76.4-1.27.58-2.7.58-3.82M567.7 402.6c0 .68-.56 1.2-1.23 1.2-.75 0-1.24-.52-1.24-1.2 0-.63.5-1.27 1.24-1.27.67 0 1.23.64 1.23 1.28m-.77 3.22l-2.37 9.36c-.02.16-.02.26-.02.36 0 .18.15.26.33.26.57 0 .72-.3 1.65-1.3l.33.25c-.9 1.15-2.18 2.7-3.44 2.7-.7 0-1.02-.5-1.02-1.2 0-.3 0-.78 2.03-8.68.04-.05.06-.23.06-.3 0-.44-.2-.57-.8-.57-.23 0-.54.05-.72.1l-.07-.4M606 400.05h-21.43v-2.4H606v2.4m0 7.27h-21.43v-2.4H606v2.4M624.9 387.94h10.26c6.84 0 10.5 3.75 10.5 10 0 7.67-5.92 13.75-15.3 13.75h-11.13l.15-.6h.65c2.7 0 3.53-1 3.82-2.25l4.44-18.07c.06-.3.13-.62.13-.88 0-.8-.65-1.34-2.8-1.34h-.9m7.85.87l-4.44 18.33c-.18.7-.18.87-.18.98 0 1.5 2.18 1.57 3.45 1.57 7 0 9.87-6.7 9.87-11.8 0-4.2-1.2-9.18-6.55-9.18-.73 0-1.56.04-2.14.1"/><path d="M826.1 69.75l24.3 12.43 9.82 5.6 6.93 4.37 5.44 3.76 4.48 3.4 3.83 3.14 3.34 2.98 2.94 2.86 2.63 2.8 2.38 2.72 2.15 2.7 1.97 2.68 1.8 2.7 1.66 2.72 1.52 2.76 1.4 2.8 1.3 2.9 1.2 2.98 1.08 3.1.98 3.2.87 3.38.78 3.57.65 3.77.52 4.03.37 4.35.2 4.7.02 5.14-.22 5.65-.5 6.3-.9 7.05-1.33 8.04-1.96 9.25-2.75 10.8-3.88 12.9-5.42 15.68-7.7 19.58-11.2 25.25L858 325.8l-7.14 13.5M826.1 69.76l-.9-.47M850.87 339.25l-.48.9" stroke="#000" stroke-width="2" fill="none"/><path d="M642.52 18.9H869.3v37.8H642.5z" stroke="#000" stroke-opacity="0" stroke-width="2" fill="#fff" fill-opacity="0"/><use xlink:href="#l" transform="matrix(1,0,0,1,647.5196850393701,23.897637795275585) translate(8.262061122425436 25.61751571003783)"/><use xlink:href="#m" transform="matrix(1,0,0,1,647.5196850393701,23.897637795275585) translate(108.75954929797405 25.61751571003783)"/><path d="M705.5 63h99.18v37.3H705.5z" fill="#fff" fill-opacity="0"/><path d="M731.84 81.48v.87c-2.6.28-3 1.3-3 3.5v4.1c-2.26 1.33-6.03 2.2-9.66 2.2-7 0-12.38-4.74-12.38-12.2 0-6.95 5.16-12.56 12.14-12.56 1.8 0 3.38.37 5.4 1.2.8.36 1.26.5 1.6.5.67 0 1.02-.35 1.54-1.6h.94v8.2h-.87c-1.22-2.66-1.85-3.88-3.35-5.2-1.5-1.33-3.17-1.96-4.8-1.96-4.05 0-6.43 3.94-6.43 11.16 0 3.6.53 6.35 1.68 8.27 1.22 2.02 2.72 3.03 5.4 3.03 2.48 0 3.35-1.2 3.35-2.96v-3.1c0-1.82-.56-2.4-3.55-2.6v-.86h12M743.25 97.1l-.42.56c-5.5-3.14-8.5-9.03-8.5-14.96 0-6.45 3.02-11.47 8.6-14.8l.32.57c-4.85 4.15-5.93 7.4-5.93 14.13 0 6.48 1.04 10.42 5.93 14.5M759.78 76.56l-3.1 12.14c-.04.14-.04.2-.04.3 0 .3.14.5.5.5.72 0 1.38-.9 1.97-1.6l.2-.2.44.37c-.8 1.15-2.58 3.73-4.6 3.73-1 0-1.4-.66-1.4-1.8 0-.33.04-.88.14-1.3l.9-3.3h-.03c-.24.16-3.38 4.38-4.77 5.43-.8.6-1.7.97-2.5.97-1.65 0-2.14-1.25-2.14-2.58 0-.73.1-1.4.28-2.06l2.06-8.05c.13-.52.2-.72.2-.86 0-.42-.38-.8-1.15-.8-.24 0-.66.03-.9.1l-.1-.52 5.47-.9-2.93 11.36c-.07.3-.1.56-.1.83 0 .75.27 1.2.9 1.2.87 0 2.27-1.08 3.5-2.7 1.5-1.97 3.1-5.08 3.8-7.62l.72-2.62h2.68M763.72 96.4l-.35-.66c1.92-1.3 2.9-2.58 2.9-3.73 0-.23-.22-.44-.5-.44-.27 0-.62.14-1 .14-1.3 0-2.03-.6-2.03-1.78 0-1.2.84-2 2.1-2 1.56 0 2.78 1.23 2.78 3.04 0 2.1-1.5 4.3-3.9 5.45M783.98 75.66l-3.1 11.36c-.1.35-.14.74-.14 1.12 0 1.33.7 2.3 2.1 2.3 3.76 0 6.2-3.94 7.3-7.08.3-.83.54-1.7.54-2.58 0-2.58-2.13-2.27-2.13-3.8 0-1.2.87-1.46 1.88-1.46 1.47 0 1.64 1.77 1.64 2.9 0 3.44-1.36 6.97-3.38 9.76-1.5 2.1-4.2 3.62-6.78 3.62-2.23 0-4.04-.7-4.04-3.24 0-.73.1-1.47.3-2.16l2.03-7.33c.08-.28.2-.6.2-.87 0-.7-1.55-.7-2-.7v-.52c1.8-.45 3.7-.7 5.44-1.46M794.06 68.47l.42-.56c5.33 3.22 8.5 9.05 8.5 14.97 0 6.46-3.06 11.4-8.6 14.8l-.32-.57C799 93.02 800 89.74 800 82.98c0-6.52-.88-10.53-5.94-14.5"/><defs><filter id="a" filterUnits="objectBoundingBox" x="-.08" y="-.02" width="1.16" height="1.09"><feOffset result="offOut" in="SourceAlpha" dy="6"/><feGaussianBlur result="blurOut" in="offOut" stdDeviation="5"/><feColorMatrix result="colorOut" in="blurOut" values="0 0 0 0 0 0 0 0 0 0 0 0 0 0 0 0 0 0 0.5019607843137255 0"/><feBlend in="SourceGraphic" in2="colorOut"/></filter><filter id="b" filterUnits="objectBoundingBox" x="-.03" y="-.01" width="1.06" height="1.07"><feOffset result="offOut" in="SourceAlpha" dy="6"/><feGaussianBlur result="blurOut" in="offOut" stdDeviation="5"/><feColorMatrix result="colorOut" in="blurOut" values="0 0 0 0 0 0 0 0 0 0 0 0 0 0 0 0 0 0 0.5019607843137255 0"/><feBlend in="SourceGraphic" in2="colorOut"/></filter><filter id="c" filterUnits="objectBoundingBox" x="-.31" y="-.02" width="1.63" height="1.08"><feOffset result="offOut" in="SourceAlpha" dy="6"/><feGaussianBlur result="blurOut" in="offOut" stdDeviation="5"/><feColorMatrix result="colorOut" in="blurOut" values="0 0 0 0 0 0 0 0 0 0 0 0 0 0 0 0 0 0 0.5019607843137255 0"/><feBlend in="SourceGraphic" in2="colorOut"/></filter><filter id="d" filterUnits="objectBoundingBox" x="-.31" y="-.05" width="1.63" height="1.27"><feOffset result="offOut" in="SourceAlpha" dy="6"/><feGaussianBlur result="blurOut" in="offOut" stdDeviation="5"/><feColorMatrix result="colorOut" in="blurOut" values="0 0 0 0 0 0 0 0 0 0 0 0 0 0 0 0 0 0 0.5019607843137255 0"/><feBlend in="SourceGraphic" in2="colorOut"/></filter><filter id="e" filterUnits="objectBoundingBox" x="-.31" y="-.03" width="1.63" height="1.16"><feOffset result="offOut" in="SourceAlpha" dy="6"/><feGaussianBlur result="blurOut" in="offOut" stdDeviation="5"/><feColorMatrix result="colorOut" in="blurOut" values="0 0 0 0 0 0 0 0 0 0 0 0 0 0 0 0 0 0 0.5019607843137255 0"/><feBlend in="SourceGraphic" in2="colorOut"/></filter><filter id="f" filterUnits="objectBoundingBox" x="-.31" y="-.03" width="1.62" height="1.17"><feOffset result="offOut" in="SourceAlpha" dy="6"/><feGaussianBlur result="blurOut" in="offOut" stdDeviation="5"/><feColorMatrix result="colorOut" in="blurOut" values="0 0 0 0 0 0 0 0 0 0 0 0 0 0 0 0 0 0 0.5019607843137255 0"/><feBlend in="SourceGraphic" in2="colorOut"/></filter><filter id="g" filterUnits="objectBoundingBox" x="-.31" y="-.08" width="1.63" height="1.38"><feOffset result="offOut" in="SourceAlpha" dy="6"/><feGaussianBlur result="blurOut" in="offOut" stdDeviation="5"/><feColorMatrix result="colorOut" in="blurOut" values="0 0 0 0 0 0 0 0 0 0 0 0 0 0 0 0 0 0 0.5019607843137255 0"/><feBlend in="SourceGraphic" in2="colorOut"/></filter><path d="M1365-1009c68 170 68 416 0 586C1264-171 1053 0 710 0H174v-1433h536c343 5 555 172 655 424zM710-157c338-11 507-216 507-559s-169-560-507-560H369v1119h341" id="n"/><path d="M954-142C850-8 572 61 364-22 180-96 74-268 74-527c0-234 108-389 275-463 59-26 125-39 198-39 273 0 420 174 420 453 0 48-2 70-43 70H250c8 226 98 375 322 380 114 2 191-38 258-82 70-46 94 37 124 66zM807-617c-5-171-86-278-256-281-181-3-273 116-295 281h551" id="o"/><path d="M602 14c-133 0-212-47-278-119v448H146v-1356c60 6 147-22 154 37l15 120c80-93 179-175 341-175 282 0 383 224 383 518 0 237-92 406-253 487-54 27-116 40-184 40zm253-527c-3-212-53-374-258-374-136 0-207 69-273 153v490c57 77 121 120 238 120 207 0 295-164 293-389" id="p"/><path d="M698-76c-54 52-145 92-245 92-162 1-249-96-249-260v-620c-58-9-160 26-160-39v-71l166-21 41-313c4-50 80-30 131-34v349h290v129H382v608c-2 78 40 125 111 126 60 2 88-33 128-48 9 0 18 6 25 17" id="q"/><path d="M598-887c-125 2-207 68-274 141V0H146v-1473h178v596c81-82 173-152 326-152 232 0 339 151 339 384V0H811v-645c0-149-65-244-213-242" id="r"/><g id="h"><use transform="matrix(0.012977464898702041,0,0,0.012977464898702041,0,0)" xlink:href="#n"/><use transform="matrix(0.012977464898702041,0,0,0.012977464898702041,19.544062137445273,0)" xlink:href="#o"/><use transform="matrix(0.012977464898702041,0,0,0.012977464898702041,33.144445351285015,0)" xlink:href="#p"/><use transform="matrix(0.012977464898702041,0,0,0.012977464898702041,47.47156659945207,0)" xlink:href="#q"/><use transform="matrix(0.012977464898702041,0,0,0.012977464898702041,57.15275541388379,0)" xlink:href="#r"/></g><path d="M344-1013V0H166v-1013h178zm-88-446c77 0 128 52 128 128 0 75-52 126-128 126-75 0-126-51-126-126 0-76 50-128 126-128" id="s"/><path d="M409-112c121-3 207-52 207-167 0-134-157-142-264-181-133-48-263-98-263-275 0-197 153-290 360-294 139-3 243 49 317 118-26 35-46 114-111 76-53-31-114-63-202-61-108 3-195 44-195 147 0 129 158 136 262 175 128 48 263 93 263 264C783-89 627 12 400 16 255 19 139-39 62-107c27-41 57-128 128-81 57 38 118 78 219 76" id="t"/><path d="M584-856c-148 6-210 94-260 211V0H146v-1013c62 7 151-25 157 49l12 158c66-138 184-259 384-216 23 5 44 16 63 27l-23 133c-5 17-15 25-31 25-36 0-71-21-124-19" id="u"/><path d="M608 14c-142 0-221-61-286-144-9 50 6 130-55 130H152v-1473h179v606c78-87 176-162 331-162 283 0 384 222 384 516 0 237-93 406-254 487-54 27-116 40-184 40zm254-527c-2-212-53-374-258-374-136 0-207 69-273 153v490c56 77 120 120 237 120 208 0 296-164 294-389" id="v"/><path d="M461 16c-231 0-339-149-339-383v-646h178v646c0 148 67 243 213 241 125-2 207-66 274-140v-747h178V0c-60-6-146 22-154-37l-14-109C716-60 619 16 461 16" id="w"/><path d="M1038-507c0 321-164 521-482 521S72-187 72-507c0-248 107-410 284-485 60-25 126-37 200-37 317 0 482 201 482 522zm-782 1c0 225 80 381 300 381 213 0 298-159 298-381 0-223-84-383-298-383-221 0-300 158-300 383" id="x"/><path d="M598-887c-125 2-207 68-274 141V0H146v-1013c60 6 147-22 154 37l14 110c82-87 177-163 336-163 232 0 339 151 339 384V0H811v-645c0-149-65-244-213-242" id="y"/><g id="i"><use transform="matrix(0.012977464898702041,0,0,0.012977464898702041,0,0)" xlink:href="#n"/><use transform="matrix(0.012977464898702041,0,0,0.012977464898702041,19.544062137445273,0)" xlink:href="#s"/><use transform="matrix(0.012977464898702041,0,0,0.012977464898702041,26.188524165580716,0)" xlink:href="#t"/><use transform="matrix(0.012977464898702041,0,0,0.012977464898702041,37.452963697654084,0)" xlink:href="#q"/><use transform="matrix(0.012977464898702041,0,0,0.012977464898702041,47.134152512085805,0)" xlink:href="#u"/><use transform="matrix(0.012977464898702041,0,0,0.012977464898702041,57.59398922043966,0)" xlink:href="#s"/><use transform="matrix(0.012977464898702041,0,0,0.012977464898702041,64.2384512485751,0)" xlink:href="#v"/><use transform="matrix(0.012977464898702041,0,0,0.012977464898702041,78.74725700532399,0)" xlink:href="#w"/><use transform="matrix(0.012977464898702041,0,0,0.012977464898702041,93.17819797268066,0)" xlink:href="#q"/><use transform="matrix(0.012977464898702041,0,0,0.012977464898702041,102.85938678711238,0)" xlink:href="#s"/><use transform="matrix(0.012977464898702041,0,0,0.012977464898702041,109.50384881524785,0)" xlink:href="#x"/><use transform="matrix(0.012977464898702041,0,0,0.012977464898702041,123.9347897826045,0)" xlink:href="#y"/><use transform="matrix(0.012977464898702041,0,0,0.012977464898702041,138.36573074996116,0)" xlink:href="#t"/></g><path d="M404 0H210v-1433h194V0" id="z"/><path d="M550-887c-107 0-172 65-226 132V0H146v-1013c60 6 147-22 154 37l13 104c69-80 148-156 287-157 148-1 223 92 258 211 51-126 153-211 323-211 232 0 338 149 338 384V0h-178v-645c1-148-62-242-203-242-142 0-218 94-218 242V0H742v-645c1-149-54-242-192-242" id="A"/><path d="M537-1031c235 0 353 147 353 383V0c-58-5-129 17-142-42l-20-94C637-55 545 19 375 16 200 13 92-76 92-253c0-184 160-243 332-285 79-19 176-28 291-31 12-184-31-318-200-318-113 0-181 45-243 91-36 26-82 14-99-17l-32-57c101-96 215-161 396-161zM263-261c0 103 62 152 165 152 140 0 216-64 287-136v-211c-141 4-258 19-349 60-60 27-103 62-103 135" id="B"/><path d="M103-704c0-220 160-326 384-326 92 0 169 21 228 57h275c-2 53 13 100-42 108l-115 16c43 79 45 196 5 279-58 120-176 191-351 193-47 0-92-6-134-17-50 22-100 108-36 142 165 88 511-13 621 164 40 65 36 170-4 240-77 134-229 213-441 213-193 0-343-50-415-167-19-32-28-66-28-101 3-117 84-175 178-211-54-27-98-64-94-143 4-90 64-137 129-173-91-51-160-139-160-274zM334-85C254-53 162 38 224 138c97 157 586 133 579-83C799-63 659-58 543-68c-70-6-146-6-209-17zm-67-614c0 134 84 204 220 204 137 0 221-69 221-204 0-129-85-203-221-203-135 0-220 74-220 203" id="C"/><g id="j"><use transform="matrix(0.012977464898702041,0,0,0.012977464898702041,0,0)" xlink:href="#z"/><use transform="matrix(0.012977464898702041,0,0,0.012977464898702041,7.968163447803053,0)" xlink:href="#A"/><use transform="matrix(0.012977464898702041,0,0,0.012977464898702041,29.277160811471806,0)" xlink:href="#B"/><use transform="matrix(0.012977464898702041,0,0,0.012977464898702041,42.43631021875568,0)" xlink:href="#C"/><use transform="matrix(0.012977464898702041,0,0,0.012977464898702041,55.69927934522916,0)" xlink:href="#o"/></g><path d="M1057-1433v158H369v501h588v158H369V0H174v-1433h883" id="D"/><g id="k"><use transform="matrix(0.012977464898702041,0,0,0.012977464898702041,0,0)" xlink:href="#D"/><use transform="matrix(0.012977464898702041,0,0,0.012977464898702041,13.782067722421568,0)" xlink:href="#o"/><use transform="matrix(0.012977464898702041,0,0,0.012977464898702041,27.382450936261307,0)" xlink:href="#B"/><use transform="matrix(0.012977464898702041,0,0,0.012977464898702041,40.54160034354518,0)" xlink:href="#q"/><use transform="matrix(0.012977464898702041,0,0,0.012977464898702041,50.2227891579769,0)" xlink:href="#w"/><use transform="matrix(0.012977464898702041,0,0,0.012977464898702041,64.65373012533357,0)" xlink:href="#u"/><use transform="matrix(0.012977464898702041,0,0,0.012977464898702041,75.11356683368741,0)" xlink:href="#o"/><use transform="matrix(0.012977464898702041,0,0,0.012977464898702041,88.71395004752715,0)" xlink:href="#t"/></g><g id="l"><use transform="matrix(0.012977464898702041,0,0,0.012977464898702041,0,0)" xlink:href="#D"/><use transform="matrix(0.012977464898702041,0,0,0.012977464898702041,13.911842371408587,0)" xlink:href="#u"/><use transform="matrix(0.012977464898702041,0,0,0.012977464898702041,24.371679079762433,0)" xlink:href="#w"/><use transform="matrix(0.012977464898702041,0,0,0.012977464898702041,38.802620047119106,0)" xlink:href="#t"/><use transform="matrix(0.012977464898702041,0,0,0.012977464898702041,50.067059579192474,0)" xlink:href="#q"/><use transform="matrix(0.012977464898702041,0,0,0.012977464898702041,59.748248393624195,0)" xlink:href="#w"/><use transform="matrix(0.012977464898702041,0,0,0.012977464898702041,74.17918936098087,0)" xlink:href="#A"/></g><g id="m"><use transform="matrix(0.012977464898702041,0,0,0.012977464898702041,0,0)" xlink:href="#D"/><use transform="matrix(0.012977464898702041,0,0,0.012977464898702041,13.782067722421568,0)" xlink:href="#o"/><use transform="matrix(0.012977464898702041,0,0,0.012977464898702041,27.382450936261307,0)" xlink:href="#B"/><use transform="matrix(0.012977464898702041,0,0,0.012977464898702041,40.54160034354518,0)" xlink:href="#q"/><use transform="matrix(0.012977464898702041,0,0,0.012977464898702041,50.2227891579769,0)" xlink:href="#w"/><use transform="matrix(0.012977464898702041,0,0,0.012977464898702041,64.65373012533357,0)" xlink:href="#u"/><use transform="matrix(0.012977464898702041,0,0,0.012977464898702041,75.11356683368741,0)" xlink:href="#o"/><use transform="matrix(0.012977464898702041,0,0,0.012977464898702041,88.71395004752715,0)" xlink:href="#t"/></g></defs></g></svg>