<svg xmlns="http://www.w3.org/2000/svg" xmlns:xlink="http://www.w3.org/1999/xlink" xmlns:lucid="lucid" width="919.69" height="409.45"><g transform="translate(0 0)" lucid:page-tab-id="0_0"><path d="M95.5 172.16l124.1 100.3V406.2L95.5 305.9z" stroke="#000" stroke-width="2" fill="#ffbbb1" filter="url(#a)"/><path d="M95.5 304.9V173.16M95.5 304.87v1.03M95.5 173.2v-1.04M218.82 271.84L96.3 172.8M218.8 271.82l.8.65M96.3 172.8l-.8-.64M218.82 405.58L96.3 306.53M218.8 405.56l.8.64M96.3 306.54l-.8-.64" stroke="#000" stroke-width="2" fill="none"/><path d="M120.33 325.46v-1.95m0-3.9v-3.9m0-3.9v-3.9m0-3.9v-3.92m0-3.9v-3.9m0-3.9v-3.9m0-3.92v-3.9m0-3.9v-3.9m0-3.9v-3.92m0-3.9v-3.9m0-3.9v-3.9m0-3.92v-3.9m0-3.9v-3.9m0-3.9V222m0-3.9v-3.9m0-3.9v-3.9m0-3.92v-3.9m0-3.9v-1.96M120.33 325.45v.5M120.33 192.74v-.52M145.15 345.52v-1.95m0-3.9v-3.9m0-3.9v-3.92m0-3.9v-3.9m0-3.9v-3.9m0-3.92v-3.9m0-3.9v-3.9m0-3.9v-3.92m0-3.9v-3.9m0-3.9v-3.9m0-3.9v-3.9m0-3.92v-3.9m0-3.9v-3.9m0-3.9v-3.92m0-3.9v-3.9m0-3.9v-3.9m0-3.92v-3.9m0-3.9v-1.96M145.15 345.5v.52M145.15 212.8v-.52M170.17 365.75v-1.95m0-3.9V356m0-3.92v-3.9m0-3.9v-3.9m0-3.9v-3.92m0-3.9v-3.9m0-3.9v-3.9m0-3.92v-3.9m0-3.9v-3.9m0-3.9v-3.92m0-3.9v-3.9m0-3.9v-3.9m0-3.92v-3.9m0-3.9v-3.9m0-3.9v-3.92m0-3.9v-3.9m0-3.9v-3.9m0-3.92V233M170.17 365.73v.52M170.17 233.02v-.5M219.2 372.47l-1.54-1.25m-3.08-2.5l-3.08-2.5m-3.08-2.5l-3.1-2.5m-3.07-2.48l-3.08-2.5m-3.08-2.5l-3.1-2.5m-3.08-2.5l-3.08-2.48m-3.08-2.5l-3.1-2.5m-3.07-2.5l-3.1-2.5m-3.07-2.5l-3.1-2.48m-3.07-2.5l-3.08-2.5m-3.1-2.5l-3.07-2.5m-3.07-2.48l-3.08-2.5m-3.1-2.5l-3.07-2.5m-3.08-2.5l-3.08-2.5m-3.1-2.48l-3.07-2.5m-3.08-2.5l-3.08-2.5m-3.1-2.5l-3.08-2.48m-3.08-2.5l-3.08-2.5m-3.1-2.5l-3.07-2.5m-3.1-2.5l-3.08-2.48m-3.08-2.5l-1.54-1.25M219.2 372.46l.4.32M95.9 272.62l-.4-.32" stroke="#000" fill="none"/><path d="M194.78 286.26l24.8 21.3v33.45l-24.8-20.9z" stroke="#000" fill="#c1e4f7"/><path d="M191.3 317.28l-1.5-1.24m-2.98-2.48l-2.98-2.5m-2.98-2.47l-2.98-2.5m-2.98-2.48l-3-2.48m-2.97-2.5l-2.98-2.47m-2.98-2.48l-2.98-2.5m-3-2.48l-2.97-2.5m-2.98-2.47l-2.98-2.48m-3-2.5l-2.97-2.47m-2.98-2.48l-2.98-2.5m-2.98-2.47l-2.98-2.5m-2.98-2.47l-2.98-2.48m-2.98-2.5l-3-2.47m-2.97-2.5l-2.98-2.47m-3-2.48l-2.97-2.5m-2.98-2.47l-2.98-2.47m-2.98-2.5l-1.5-1.23M191.28 317.27l.4.33M95.9 237.8l-.4-.32M191.3 283.85l-1.6-1.3m-3.18-2.58l-3.18-2.58m-3.18-2.6l-3.18-2.58m-3.18-2.6l-3.18-2.57m-3.18-2.6l-3.18-2.57m-3.18-2.6l-3.18-2.57m-3.18-2.58l-3.18-2.6m-3.18-2.57l-3.18-2.6M142 243.8l-3.18-2.6m-3.17-2.57l-3.18-2.58m-3.18-2.58l-3.2-2.6m-3.17-2.57l-3.18-2.6m-3.18-2.57l-3.18-2.6m-3.2-2.58l-3.17-2.58m-3.18-2.6l-3.18-2.57m-3.18-2.6l-1.6-1.28M191.28 283.84l.4.33M95.9 206.3l-.4-.33" stroke="#000" fill="none"/><path d="M219.6 405.2V273.47M219.6 405.18v1.02M219.6 273.5v-1.03" stroke="#000" stroke-width="2" fill="none"/><path d="M194.78 385.64v-1.95m0-3.92v-3.9m0-3.9v-3.92m0-3.9v-3.92m0-3.9v-3.9m0-3.92v-3.9m0-3.92v-3.9m0-3.9v-3.92m0-3.9v-1.96M194.78 385.63v.5M194.78 323.13v-.5M194.78 283.67v-1.93m0-3.84v-3.85m0-3.84v-3.84m0-3.84v-3.85m0-3.84v-1.93M194.78 283.65v.52M194.78 252.92v-.52" stroke="#000" fill="none"/><path d="M876.36 367.65V233.92L659.22 66.74l-93.07 66.87v133.75l124.1 100.3z" stroke="#000" stroke-width="2" fill="#ffbbb1" filter="url(#b)"/><path d="M195.42 286.16l451.56-36.43M195.45 286.16l-1.02.08" stroke="#000" stroke-width="2" fill="none"/><path d="M662.2 248.5l-13.85 5.77-.74-9.24z" stroke="#000" stroke-width="2"/><path d="M566.97 133.03l91.43-65.7M567 133l-.85.6M658.38 67.34l.84-.6M566.15 266.35V134.6M566.15 266.33v1.02M566.15 134.64v-1.03M689.46 233.3l-122.53-99.06M689.44 233.27l.8.65M566.95 134.26l-.8-.65M689.46 367.03l-122.53-99.05M689.44 367l.8.65M566.95 268l-.8-.65M691.24 233.92h184.12M691.26 233.92h-1.02M875.33 233.92h1.03M875.57 233.3L660 67.36M875.55 233.3l.8.62M660.03 67.37l-.8-.63M691.24 367.65h184.12M691.26 367.65h-1.02M875.33 367.65h1.03" stroke="#000" stroke-width="2" fill="none"/><path d="M590.97 286.9v-1.94m0-3.9v-3.9m0-3.9v-3.92m0-3.9v-3.9m0-3.9v-3.9m0-3.92v-3.9m0-3.9v-3.9m0-3.9v-3.92m0-3.9v-3.9m0-3.9v-3.9m0-3.92v-3.9m0-3.9v-3.9m0-3.9v-3.92m0-3.9v-3.9m0-3.9v-3.9m0-3.92v-3.9m0-3.9v-3.9m0-3.9v-1.97M590.97 286.9v.5M590.97 154.2v-.53M615.8 306.97v-1.95m0-3.9v-3.9m0-3.9v-3.92m0-3.9v-3.9m0-3.9v-3.9m0-3.92v-3.9m0-3.9v-3.9m0-3.9v-3.92m0-3.9v-3.9m0-3.9v-3.9m0-3.92v-3.9m0-3.9v-3.9m0-3.9v-3.92m0-3.9v-3.9m0-3.9v-3.9m0-3.92v-3.9m0-3.9v-3.9m0-3.9v-1.97M615.8 306.96v.5M615.8 174.25v-.52M640.8 327.2v-1.95m0-3.9v-3.9m0-3.92v-3.9m0-3.9v-3.9m0-3.9V294m0-3.9v-3.9m0-3.9v-3.9m0-3.9v-3.9m0-3.9v-3.92m0-3.9v-3.9m0-3.9v-3.92m0-3.9v-3.9m0-3.9v-3.9m0-3.92v-3.9m0-3.9v-3.9m0-3.9v-3.92m0-3.9v-3.9m0-3.9v-1.96M640.8 327.2v.5M640.8 194.47v-.5M665.42 347.1v-1.96m0-3.9v-3.9m0-3.9v-3.9m0-3.92v-3.9m0-3.9v-3.9m0-3.9v-3.92m0-3.9v-3.9m0-3.9v-3.9m0-3.92v-3.9m0-3.9v-3.9m0-3.92v-3.9m0-3.9v-3.9m0-3.9v-3.92m0-3.9v-3.9m0-3.9v-3.9m0-3.92v-3.9m0-3.9v-3.9m0-3.9v-1.96M665.42 347.08v.5M665.42 214.37v-.5M689.85 333.92l-1.54-1.25m-3.08-2.5l-3.08-2.5m-3.08-2.5l-3.08-2.48m-3.1-2.5l-3.07-2.5m-3.07-2.5l-3.08-2.5m-3.1-2.5l-3.07-2.5m-3.08-2.5l-3.1-2.5m-3.07-2.48l-3.08-2.5m-3.08-2.5l-3.1-2.5m-3.07-2.5l-3.08-2.48m-3.08-2.5l-3.1-2.5m-3.07-2.5l-3.08-2.5m-3.1-2.5l-3.08-2.48m-3.08-2.5l-3.08-2.5m-3.08-2.5l-3.1-2.5m-3.07-2.48l-3.07-2.5m-3.1-2.5l-3.07-2.5m-3.08-2.5l-3.08-2.5m-3.1-2.48l-3.07-2.5m-3.08-2.5l-3.08-2.5m-3.1-2.5l-1.53-1.24M689.84 333.9l.4.33M566.55 234.07l-.4-.32M689.85 301.75l-1.54-1.28m-3.07-2.57l-3.1-2.56m-3.07-2.56l-3.08-2.56m-3.08-2.57l-3.1-2.56m-3.07-2.57l-3.08-2.56m-3.1-2.57l-3.07-2.56m-3.08-2.56l-3.08-2.56m-3.1-2.57l-3.07-2.56m-3.08-2.57l-3.1-2.56m-3.07-2.57l-3.08-2.56m-3.08-2.56l-3.1-2.56m-3.07-2.57l-3.08-2.56m-3.1-2.57l-3.08-2.56m-3.08-2.56l-3.08-2.56m-3.1-2.56l-3.07-2.56m-3.1-2.56l-3.07-2.57m-3.1-2.57l-3.07-2.56m-3.08-2.56l-3.1-2.56m-3.07-2.56l-3.07-2.56m-3.08-2.56l-3.1-2.57m-3.07-2.57l-1.54-1.28M689.84 301.74l.4.33M566.55 199.26l-.4-.33M689.85 268.26L688.3 267m-3.08-2.5l-3.08-2.53m-3.08-2.5l-3.08-2.52m-3.1-2.5l-3.07-2.53m-3.07-2.5l-3.08-2.52m-3.1-2.52l-3.07-2.5m-3.08-2.52l-3.1-2.5m-3.07-2.53l-3.08-2.5m-3.08-2.52l-3.1-2.5m-3.07-2.52l-3.08-2.5m-3.08-2.52l-3.1-2.52m-3.07-2.5l-3.08-2.52m-3.1-2.52l-3.08-2.5m-3.08-2.52l-3.08-2.5m-3.1-2.53l-3.07-2.5m-3.1-2.52l-3.07-2.52m-3.1-2.5l-3.07-2.5m-3.08-2.52l-3.08-2.52m-3.1-2.5l-3.07-2.52m-3.08-2.52l-3.08-2.5m-3.1-2.52l-1.53-1.26M689.84 268.25l.4.32M566.55 167.75l-.4-.32M875.86 269.02h-2m-4.04 0h-4.02m-4.03 0h-4.02m-4.03 0h-4.02m-4.02 0h-4.03m-4.02 0h-4.03m-4.02 0h-4.03m-4.02 0h-4.03m-4.02 0h-4.02m-4.03 0h-4.02m-4.02 0h-4.02m-4.03 0h-4.02m-4 0h-4.04m-4.02 0h-4.03m-4 0h-4.04m-4.02 0h-4.03m-4 0h-4.03m-4.03 0h-4.02m-4.03 0h-4.03m-4.03 0h-4.02m-4.03 0h-4.03m-4.02 0h-4.03m-4.02 0h-4.03m-4.02 0h-2M875.85 269.02h.5M690.75 269.03h-.5M875.86 300.68h-2m-4.04 0h-4.02m-4.03 0h-4.02m-4.03 0h-4.02m-4.02.02h-4.03m-4.02 0h-4.03m-4.02 0h-4.03m-4.02 0h-4.03m-4.02.02h-4.02m-4.03 0h-4.02m-4.02 0h-4.02m-4.03 0h-4.02m-4 0l-4.04.02m-4.02 0h-4.03m-4 0h-4.04m-4.02 0h-4.03m-4 0h-4.03m-4.03.02h-4.02m-4.03 0h-4.03m-4.03 0h-4.02m-4.03 0h-4.03m-4.02.02h-4.03m-4.02 0h-4.03m-4.02 0h-2M875.85 300.68h.5M690.75 300.8h-.5M875.86 334.22h-2m-4.04 0h-4.02m-4.03 0h-4.02m-4.03 0h-4.02m-4.02 0h-4.03m-4.02 0h-4.03m-4.02 0h-4.03m-4.02 0h-4.03m-4.02 0h-4.02m-4.03 0h-4.02m-4.02 0h-4.02m-4.03 0h-4.02m-4 0h-4.04m-4.02 0h-4.03m-4 0h-4.04m-4.02 0h-4.03m-4 0h-4.03m-4.03 0h-4.02m-4.03 0h-4.03m-4.03 0h-4.02m-4.03 0h-4.03m-4.02 0h-4.03m-4.02 0h-4.03m-4.02 0h-2M875.85 334.22h.5M690.75 334.22h-.5M590.86 153l1.74-.97m3.5-1.93l3.48-1.92m3.5-1.93l3.48-1.92m3.5-1.92l3.47-1.92m3.5-1.92l3.48-1.93m3.5-1.92l3.5-1.9m3.48-1.94l3.5-1.92m3.48-1.92l3.48-1.93m3.5-1.93l3.48-1.93m3.5-1.92l3.48-1.92m3.5-1.93l3.48-1.92m3.5-1.93l3.47-1.92m3.5-1.92l3.48-1.93m3.5-1.92l3.48-1.92m3.5-1.92l3.5-1.92m3.48-1.93l1.74-.96M590.87 152.98l-.45.25M695.5 95.28l.46-.25M615.77 173.17l1.92-.7m3.83-1.4l3.83-1.4m3.84-1.4l3.83-1.4m3.84-1.4l3.83-1.4m3.84-1.4l3.84-1.4m3.83-1.4l3.85-1.4m3.83-1.42l3.84-1.4m3.83-1.4l3.84-1.4m3.82-1.4l3.84-1.4m3.83-1.4l3.83-1.4m3.84-1.4l3.83-1.4m3.84-1.4l3.83-1.4m3.84-1.4l3.84-1.42m3.84-1.4l3.83-1.4m3.85-1.4l3.83-1.4m3.84-1.4l3.84-1.4m3.83-1.4l1.9-.7M615.8 173.17l-.5.17M738.5 128.33l.48-.18M666.04 213.9l2.04-.2m4.06-.4l4.07-.4m4.08-.4l4.06-.42m4.07-.4l4.08-.4m4.06-.42l4.07-.4m4.08-.4l4.06-.4m4.07-.42l4.08-.4m4.07-.4L725 208m4.08-.4l4.07-.4m4.06-.42l4.08-.4m4.07-.4l4.06-.4m4.08-.42l4.07-.4m4.06-.4l4.08-.42m4.07-.4l4.07-.4m4.06-.4l4.07-.42m4.07-.4l4.06-.4m4.07-.42l4.07-.4m4.06-.4l4.07-.42m4.07-.4l4.06-.4m4.07-.4l4.07-.42m4.07-.4l2.02-.2M666.06 213.9l-.52.06M828.7 197.67l.52-.05M641.94 194.37l1.95-.45m3.87-.9l3.9-.92m3.88-.9l3.88-.92m3.9-.9l3.88-.9m3.9-.92l3.88-.9m3.9-.92l3.88-.9m3.88-.92l3.9-.9m3.88-.92l3.88-.9m3.9-.9l3.88-.92m3.88-.9l3.9-.92m3.88-.9l3.88-.92m3.9-.9l3.88-.9m3.88-.92l3.9-.9m3.88-.92l3.88-.9m3.9-.92l3.88-.9m3.88-.9l3.9-.92m3.88-.9l3.88-.92m3.9-.9l3.88-.92m3.88-.9l1.95-.46M641.96 194.37l-.5.12M781.85 161.66l.5-.12M600.15 110.8l1.58 1.28m3.15 2.56l3.16 2.56m3.15 2.56l3.14 2.56m3.16 2.56l3.15 2.55m3.16 2.56l3.16 2.55m3.16 2.56l3.15 2.57m3.16 2.56l3.15 2.55m3.15 2.56l3.16 2.56m3.14 2.56l3.16 2.56m3.15 2.55l3.16 2.56m3.16 2.56l3.15 2.55m3.17 2.56l3.15 2.57m3.16 2.55l3.15 2.56m3.16 2.56l3.14 2.56m3.16 2.56l3.15 2.56m3.15 2.55l3.16 2.56m3.15 2.56l3.17 2.55m3.15 2.56l3.16 2.57m3.15 2.55l3.15 2.56m3.16 2.56l3.15 2.56m3.15 2.56l3.15 2.55m3.16 2.57l3.15 2.56m3.17 2.56l3.15 2.55m3.15 2.56l3.16 2.56m3.15 2.56l1.58 1.28M600.16 110.8l-.4-.3M751.55 233.6l.4.32M584.96 121.83l1.54 1.27m3.1 2.54l3.08 2.54m3.1 2.54l3.07 2.54m3.1 2.54l3.08 2.54m3.08 2.54l3.1 2.54m3.1 2.54l3.08 2.54m3.08 2.54l3.1 2.54m3.08 2.54l3.1 2.54m3.07 2.54l3.1 2.54m3.1 2.54l3.07 2.54m3.1 2.54l3.08 2.54m3.1 2.54l3.07 2.55m3.1 2.53l3.08 2.54m3.1 2.54l3.07 2.55m3.1 2.54l3.08 2.53m3.1 2.54l3.07 2.54m3.1 2.55l3.08 2.54m3.08 2.53l3.1 2.54m3.08 2.54l3.1 2.55m3.07 2.54l3.1 2.53m3.08 2.54l3.1 2.54m3.08 2.55l3.1 2.54m3.08 2.53l1.54 1.27M584.97 121.84l-.4-.33M720.8 233.6l.4.32M614.13 100.1l1.56 1.24m3.1 2.47l3.13 2.5m3.12 2.46l3.12 2.47m3.12 2.47l3.1 2.48m3.13 2.47l3.12 2.47m3.12 2.47l3.12 2.46m3.1 2.48l3.12 2.47m3.12 2.48l3.12 2.47m3.12 2.48l3.12 2.47m3.12 2.47l3.12 2.47m3.12 2.47l3.12 2.5m3.12 2.46l3.12 2.47m3.12 2.47l3.12 2.48m3.12 2.47l3.12 2.47m3.12 2.47l3.12 2.46m3.12 2.48l3.12 2.47m3.12 2.48l3.12 2.47m3.12 2.48l3.12 2.47m3.12 2.47l3.12 2.47m3.12 2.47l3.12 2.5m3.12 2.46l3.12 2.47m3.12 2.47l3.12 2.48m3.12 2.47l3.12 2.47m3.12 2.47l3.12 2.46m3.12 2.48l3.12 2.47m3.12 2.48l3.12 2.47m3.12 2.48l3.12 2.47m3.12 2.47l1.56 1.24M614.14 100.1l-.4-.3M782.6 233.6l.4.32M629.37 88.78l1.6 1.25m3.17 2.5l3.18 2.5m3.18 2.5l3.18 2.5m3.18 2.48l3.18 2.5m3.18 2.5l3.18 2.5m3.18 2.5l3.18 2.5m3.18 2.5l3.18 2.5m3.18 2.5l3.18 2.5m3.18 2.48l3.18 2.5m3.18 2.5l3.18 2.5m3.18 2.5l3.18 2.5m3.18 2.5l3.18 2.48m3.18 2.5l3.18 2.5m3.18 2.5l3.18 2.5m3.18 2.5l3.18 2.48m3.18 2.5l3.18 2.5m3.18 2.5l3.18 2.5m3.18 2.5l3.18 2.5m3.18 2.48l3.18 2.5m3.18 2.5l3.18 2.5m3.18 2.5l3.18 2.5m3.18 2.5l3.18 2.48m3.18 2.5l3.18 2.5m3.18 2.5l3.18 2.5m3.18 2.5l3.18 2.5m3.18 2.48l3.18 2.5m3.18 2.5l3.18 2.5m3.18 2.5l3.18 2.5m3.18 2.5l3.18 2.48m3.18 2.5l1.6 1.25M629.38 88.8l-.4-.33M813.8 233.6l.4.32M643.93 78.55l1.57 1.2m3.13 2.44l3.14 2.4m3.13 2.43l3.14 2.42m3.14 2.43l3.13 2.42m3.15 2.42l3.14 2.43m3.12 2.42l3.14 2.42m3.13 2.4l3.13 2.44m3.14 2.42l3.13 2.42m3.14 2.43l3.13 2.43m3.14 2.42l3.15 2.42m3.13 2.43l3.14 2.42m3.14 2.42l3.13 2.42m3.13 2.43l3.13 2.4m3.14 2.43l3.14 2.43m3.13 2.42l3.14 2.42m3.14 2.42l3.14 2.43m3.14 2.42l3.13 2.42m3.14 2.42l3.13 2.42m3.13 2.42l3.14 2.42m3.13 2.43l3.14 2.43m3.14 2.42l3.14 2.43m3.14 2.42l3.13 2.42m3.15 2.42l3.14 2.43m3.12 2.42l3.14 2.4m3.14 2.43l3.13 2.43m3.14 2.42l3.13 2.42m3.14 2.43l3.14 2.42m3.13 2.42l3.15 2.42m3.13 2.42l3.14 2.42m3.14 2.42l3.13 2.43m3.13 2.4l3.14 2.43m3.13 2.42l3.14 2.43m3.13 2.42l1.57 1.2M643.94 78.56l-.4-.3M844.63 233.6l.4.32" stroke="#000" fill="none"/><path d="M665.4 247.64l24.82 21.32v33.43l-24.82-20.9z" stroke="#000" fill="#c1e4f7"/><path d="M690 269.02h31.4v33.18H690z" stroke="#000" fill="#c1e4f7"/><path d="M721.26 269.02h31.4v33.18h-31.4z" stroke="#000" fill="#c1e4f7"/><path d="M752.28 269.02h31.4v33.18h-31.4z" stroke="#000" fill="#c1e4f7"/><path d="M783.3 269.02h31.4v33.18h-31.4z" stroke="#000" fill="#c1e4f7"/><path d="M814.32 269.02h31.4v33.18h-31.4z" stroke="#000" fill="#c1e4f7"/><path d="M845.34 269.02h31.4v33.18h-31.4z" stroke="#000" fill="#c1e4f7"/><path d="M876.36 366.65V234.92M876.36 366.63v1.02M876.36 234.94v-1.02" stroke="#000" stroke-width="2" fill="none"/><path d="M721.26 367.15v-2m0-4v-4.03m0-4v-4.02m0-4v-4.03m0-4v-4.02m0-4v-4.02m0-4.02v-4m0-4v-4.02m0-4.02v-2M721.26 367.14v.5M721.26 302.97v-.5M752.28 367.15v-2m0-4v-4.03m0-4v-4.02m0-4v-4.03m0-4v-4.02m0-4v-4.02m0-4.02v-4m0-4v-4.02m0-4.02v-2M752.28 367.14v.5M752.28 302.97v-.5M783.3 367.15v-2m0-4v-4.03m0-4v-4.02m0-4v-4.03m0-4v-4.02m0-4v-4.02m0-4.02v-4m0-4v-4.02m0-4.02v-2M783.3 367.14v.5M783.3 302.97v-.5M814.32 367.15v-2m0-4v-4.03m0-4v-4.02m0-4v-4.03m0-4v-4.02m0-4v-4.02m0-4.02v-4m0-4v-4.02m0-4.02v-2M814.32 367.14v.5M814.32 302.97v-.5M845.34 367.15v-2m0-4v-4.03m0-4v-4.02m0-4v-4.03m0-4v-4.02m0-4v-4.02m0-4.02v-4m0-4v-4.02m0-4.02v-2M845.34 367.14v.5M845.34 302.97v-.5" stroke="#000" fill="none"/><path d="M665.57 247.94l27.77-3.16 28.4 24.22H690z" stroke="#000" fill="#c1e4f7"/><path d="M690.24 366.65V234.92M690.24 366.63v1.02M690.24 234.94v-1.02" stroke="#000" stroke-width="2" fill="none"/><path d="M693.73 244.78l26.75-1.67 32.14 25.78h-31.75z" stroke="#000" fill="#c1e4f7"/><path d="M720.48 243.1l26.76-1.66 35.62 26.9H751.1z" stroke="#000" fill="#c1e4f7"/><path d="M747.62 241.44l28.3-2.1 37.96 29h-31.75z" stroke="#000" fill="#c1e4f7"/><path d="M775.54 239.35l26.76-2.1 42.6 31.1h-31.75z" stroke="#000" fill="#c1e4f7"/><path d="M801.9 237.26l24.83-1.67 49.2 32.75h-31.76z" stroke="#000" fill="#c1e4f7"/><path d="M721.26 268.52v-2.13m0-4.27v-4.27m0-4.26v-4.26m0-4.27v-4.26m0-4.25v-2.13M721.26 268.5v.52M721.26 234.43v-.5M752.28 268.52v-2.13m0-4.27v-4.27m0-4.26v-4.26m0-4.27v-4.26m0-4.25v-2.13M752.28 268.5v.52M752.28 234.43v-.5M783.3 268.52v-2.13m0-4.27v-4.27m0-4.26v-4.26m0-4.27v-4.26m0-4.25v-2.13M783.3 268.5v.52M783.3 234.43v-.5M814.32 268.52v-2.13m0-4.27v-4.27m0-4.26v-4.26m0-4.27v-4.26m0-4.25v-2.13M814.32 268.5v.52M814.32 234.43v-.5M845.34 268.52v-2.13m0-4.27v-4.27m0-4.26v-4.26m0-4.27v-4.26m0-4.25v-2.13M845.34 268.5v.52M845.34 234.43v-.5M242.56 282.72l.54 1.93m1.07 3.85l1.08 3.86m1.07 3.85l1.07 3.86m1.07 3.86l1.07 3.85m1.08 3.85l1.07 3.86m1.06 3.85l1.08 3.85m1.07 3.86l1.1 3.85m1.06 3.84l.54 1.93M242.56 282.73l-.13-.5M257.6 336.66l.13.5" stroke="#000" fill="none"/><path d="M220.42 340.16l451.56-36.43M220.45 340.16l-1.02.08" stroke="#000" stroke-width="2" fill="none"/><path d="M687.2 302.5l-13.85 5.77-.74-9.24z" stroke="#000" stroke-width="2"/><path d="M239.8 0h251.95v38.48H239.8z" stroke="#000" stroke-opacity="0" stroke-width="2" fill="#fff" fill-opacity="0"/><use xlink:href="#c" transform="matrix(1,0,0,1,244.78555796774504,5) translate(27.257304831801918 21.23084904337116)"/><use xlink:href="#d" transform="matrix(1,0,0,1,244.78555796774504,5) translate(90.73474710838579 21.23084904337116)"/><path d="M293.56 278.72l.54 1.93m1.07 3.85l1.08 3.86m1.07 3.85l1.07 3.86m1.07 3.86l1.07 3.85m1.08 3.85l1.07 3.86m1.06 3.85l1.08 3.85m1.07 3.86l1.1 3.85m1.06 3.84l.54 1.93M293.56 278.73l-.13-.5M308.6 332.66l.13.5" stroke="#000" fill="none"/><path d="M0 224.18h70v38.48H0z" stroke="#000" stroke-opacity="0" stroke-width="2" fill="#fff" fill-opacity="0"/><use xlink:href="#e" transform="matrix(1,0,0,1,5,229.1788146818834) translate(1.783502053798891 21.23084904337116)"/><path d="M345.56 273.72l.54 1.93m1.07 3.85l1.08 3.86m1.07 3.85l1.07 3.86m1.07 3.86l1.07 3.85m1.08 3.85l1.07 3.86m1.06 3.85l1.08 3.85m1.07 3.86l1.1 3.85m1.06 3.84l.54 1.93M345.56 273.73l-.13-.5M360.6 327.66l.13.5M398.56 270.72l.54 1.93m1.07 3.85l1.08 3.86m1.07 3.85l1.07 3.86m1.07 3.86l1.07 3.85m1.08 3.85l1.07 3.86m1.06 3.85l1.08 3.85m1.07 3.86l1.1 3.85m1.06 3.84l.54 1.93M398.56 270.73l-.13-.5M413.6 324.66l.13.5M446.56 265.72l.54 1.93m1.07 3.85l1.08 3.86m1.07 3.85l1.07 3.86m1.07 3.86l1.07 3.85m1.08 3.85l1.07 3.86m1.06 3.85l1.08 3.85m1.07 3.86l1.1 3.85m1.06 3.84l.54 1.93M446.56 265.73l-.13-.5M461.6 319.66l.13.5M496.56 261.72l.54 1.93m1.07 3.85l1.08 3.86m1.07 3.85l1.07 3.86m1.07 3.86l1.07 3.85m1.08 3.85l1.07 3.86m1.06 3.85l1.08 3.85m1.07 3.86l1.1 3.85m1.06 3.84l.54 1.93M496.56 261.73l-.13-.5M511.6 315.66l.13.5M545.56 257.72l.54 1.93m1.07 3.85l1.08 3.86m1.07 3.85l1.07 3.86m1.07 3.86l1.07 3.85m1.08 3.85l1.07 3.86m1.06 3.85l1.08 3.85m1.07 3.86l1.1 3.85m1.06 3.84l.54 1.93M545.56 257.73l-.13-.5M560.6 311.66l.13.5" stroke="#000" fill="none"/><path d="M405.5 354.78h22.53v25H405.5z" fill="#fff" fill-opacity="0"/><path d="M411.04 357.56h8.03c5.36 0 8.24 2.94 8.24 7.84 0 6-4.64 10.77-12 10.77h-8.7l.1-.46h.52c2.1 0 2.77-.8 3-1.76l3.47-14.15c.05-.24.1-.5.1-.7 0-.63-.5-1.05-2.2-1.05h-.7m6.15.68l-3.48 14.36c-.14.53-.14.67-.14.76 0 1.17 1.7 1.22 2.7 1.22 5.48 0 7.73-5.24 7.73-9.26 0-3.27-.94-7.17-5.13-7.17-.57 0-1.22.02-1.68.08"/><path d="M774.8 88.2h139.27v38.47H774.8z" stroke="#000" stroke-opacity="0" stroke-width="2" fill="#fff" fill-opacity="0"/><use xlink:href="#f" transform="matrix(1,0,0,1,779.8031496062991,93.18897637795274) translate(2.361466652181555 23.04334904337116)"/><use xlink:href="#g" transform="matrix(1,0,0,1,779.8031496062991,93.18897637795274) translate(85.65006593884124 23.04334904337116)"/><path d="M259.64 361.4l307-23M259.5 346.36l2.25 29.9M566.75 353.42l-2.24-29.9" stroke="#5e5e5e" stroke-width="2" fill="none"/><path d="M506.42 53.24l40.1 36.3M506.44 53.25l-.76-.7" stroke="#000" stroke-width="2" fill="none"/><path d="M557.83 99.8l-13.68-6.15 6.22-6.87z" stroke="#000" stroke-width="2"/><path d="M505.66 53.56l-1.06 52.9M505.66 53.6l.02-1.04" stroke="#000" stroke-width="2" fill="none"/><path d="M504.3 121.73l-4.35-14.36 9.26.2z" stroke="#000" stroke-width="2"/><path d="M506.64 52.27l42.88-12.96M506.66 52.27l-.98.3" stroke="#000" stroke-width="2" fill="none"/><path d="M564.13 34.9l-12.3 8.56-2.7-8.87z" stroke="#000" stroke-width="2"/><path d="M558.58 1.26h15.17v25h-15.17z" fill="#fff" fill-opacity="0"/><path d="M573.6 3.62l-4.25 17.03c-.03.1-.06.26-.06.35 0 .17.14.25.42.25.57 0 1.37-1 1.77-1.6l.3.35c-.85 1.28-2.36 3-3.7 3-.9 0-1.14-.66-1.14-1.18 0-.57.06-.97.28-1.82h-.14c-2.1 2.65-3.82 3-4.87 3-2.08 0-2.5-2.12-2.5-3.63 0-2.93 2.93-9.28 7.3-9.28 1.64 0 2.3.73 2.32 1.4h.06l1.52-5.94c.03-.12.06-.23.06-.35 0-.36-.2-.56-.94-.56-.26 0-.57.06-.77.1l-.12-.44m-.23 8.66c0-1.34-.42-2.02-1.6-2.02-2.8 0-5.12 5.7-5.12 8.43 0 1.4.8 1.88 1.6 1.88 2 0 3.87-2.67 4.67-5.3.3-1 .45-2.1.45-3"/><path d="M566.1 71.26h13.53v19.67H566.1z" fill="#fff" fill-opacity="0"/><path d="M578.76 75.12l-2.54 9.9c-.03.13-.03.2-.03.27 0 .22.1.4.4.4.6 0 1.13-.75 1.62-1.32l.14-.17.37.32c-.66.94-2.1 3.05-3.76 3.05-.83 0-1.14-.54-1.14-1.48 0-.27.03-.72.1-1.07l.75-2.7h-.02c-.2.14-2.77 3.6-3.9 4.44-.66.5-1.4.8-2.06.8-1.34 0-1.74-1.03-1.74-2.1 0-.6.1-1.15.23-1.7l1.67-6.57c.12-.43.17-.6.17-.7 0-.35-.3-.67-.94-.67-.2 0-.54.03-.74.1l-.08-.44 4.47-.75-2.4 9.3c-.05.24-.08.44-.08.67 0 .6.23.97.74.97.72 0 1.86-.9 2.86-2.2 1.23-1.63 2.54-4.16 3.1-6.24l.6-2.14h2.2"/><path d="M517.27 112.1h14.43v19.68h-14.43z" fill="#fff" fill-opacity="0"/><path d="M524.3 115.23l-2.52 9.3c-.1.28-.12.6-.12.9 0 1.1.57 1.88 1.7 1.88 3.1 0 5.08-3.2 6-5.77.22-.68.42-1.4.42-2.1 0-2.12-1.74-1.86-1.74-3.1 0-.98.72-1.2 1.54-1.2 1.2 0 1.34 1.44 1.34 2.35 0 2.83-1.1 5.7-2.76 7.98-1.23 1.7-3.42 2.96-5.53 2.96-1.82 0-3.3-.57-3.3-2.65 0-.6.08-1.2.25-1.76l1.65-5.97c.06-.23.15-.5.15-.72 0-.56-1.26-.56-1.63-.56v-.42c1.48-.37 3.02-.57 4.45-1.2"/><path d="M40.82 107.06l40.1 36.3M40.84 107.08l-.76-.7" stroke="#000" stroke-width="2" fill="none"/><path d="M92.23 153.62l-13.68-6.14 6.22-6.88z" stroke="#000" stroke-width="2"/><path d="M40.06 107.4L39 160.3M40.06 107.42l.02-1.03" stroke="#000" stroke-width="2" fill="none"/><path d="M38.7 175.55l-4.35-14.35 9.27.18z" stroke="#000" stroke-width="2"/><path d="M100.5 125.08h13.53v19.67H100.5z" fill="#fff" fill-opacity="0"/><path d="M113.16 128.95l-2.54 9.9c-.02.12-.02.18-.02.27 0 .22.1.4.4.4.6 0 1.13-.74 1.62-1.3l.14-.2.37.33c-.65.94-2.1 3.05-3.76 3.05-.83 0-1.14-.55-1.14-1.5 0-.24.03-.7.1-1.04l.76-2.7h-.04c-.2.14-2.77 3.58-3.9 4.44-.66.48-1.4.8-2.06.8-1.34 0-1.73-1.03-1.73-2.1 0-.6.08-1.15.22-1.7l1.67-6.57c.12-.43.17-.6.17-.72 0-.33-.3-.64-.94-.64-.2 0-.54.03-.74.08l-.08-.42 4.47-.74-2.4 9.28c-.05.26-.08.46-.08.7 0 .6.23.96.74.96.73 0 1.87-.9 2.86-2.2 1.23-1.62 2.54-4.16 3.1-6.24l.6-2.13h2.2"/><path d="M51.68 165.94H66.1v19.67H51.68z" fill="#fff" fill-opacity="0"/><path d="M58.7 169.06l-2.52 9.3c-.1.27-.12.6-.12.9 0 1.08.57 1.88 1.7 1.88 3.1 0 5.08-3.22 6-5.78.22-.7.42-1.4.42-2.1 0-2.12-1.74-1.86-1.74-3.12 0-.97.72-1.2 1.54-1.2 1.2 0 1.34 1.46 1.34 2.37 0 2.83-1.1 5.7-2.76 8-1.23 1.7-3.42 2.95-5.53 2.95-1.82 0-3.3-.57-3.3-2.65 0-.6.08-1.2.25-1.77l1.66-5.98c.05-.23.14-.48.14-.7 0-.58-1.26-.58-1.63-.58v-.43c1.5-.37 3.02-.57 4.45-1.2"/><path d="M343.16 220.05l-9.25-25-22.5 2.75.26 94 7.5 25.5 23.83-1.93z" stroke="#000" fill="#c1e4f7" filter="url(#h)"/><path d="M311.4 198.27l7.68 24.05M311.4 198.3l-.16-.5M319.08 222.3l.16.5M319.24 223.3v94M319.24 223.3v-.5M319.24 317.3v.5M342.74 219.86l-23 2.88M342.73 219.86l.5-.06M319.74 222.73l-.5.07" stroke="#000" fill="none"/><path d="M291.74 225.25l-9.25-25L260 203l.24 94 7.5 25.5 23.82-1.93z" stroke="#000" fill="#c1e4f7" filter="url(#h)"/><path d="M259.97 203.48l7.7 24.04M259.97 203.5l-.16-.5M267.66 227.5l.15.5M267.8 228.5v94M267.8 228.5v-.5M267.8 322.5v.5M291.32 225.06l-23 2.88M291.3 225.06l.5-.06M268.32 227.94l-.5.06" stroke="#000" fill="none"/><path d="M396.62 215.52l-9.25-25-22.5 2.75.25 94 7.5 25.5 23.82-1.93z" stroke="#000" fill="#c1e4f7" filter="url(#h)"/><path d="M364.84 193.75l7.7 24.05M364.85 193.76l-.16-.5M372.54 217.78l.15.5M372.7 218.77v94M372.7 218.8v-.53M372.7 312.76v.5M396.2 215.34l-23 2.87M396.18 215.34l.5-.07M373.2 218.2l-.5.07" stroke="#000" fill="none"/><path d="M446.23 211.22l-9.25-25-22.5 2.75.25 94 7.5 25.5 23.82-1.94z" stroke="#000" fill="#c1e4f7" filter="url(#h)"/><path d="M414.45 189.44l7.7 24.05M414.46 189.45l-.16-.48M422.14 213.48l.16.5M422.3 214.47v94M422.3 214.48v-.5M422.3 308.45v.52M445.8 211.03l-23 2.87M445.8 211.03l.5-.06M422.8 213.9l-.5.07" stroke="#000" fill="none"/><path d="M494.95 207.35l-9.25-25-22.5 2.75.25 94 7.5 25.5 23.82-1.93z" stroke="#000" fill="#c1e4f7" filter="url(#h)"/><path d="M463.18 185.58l7.7 24.04M463.18 185.6l-.16-.5M470.87 209.6l.15.5M471.02 210.6v94M471.02 210.6v-.5M471.02 304.6v.5M494.53 207.16l-23 2.88M494.5 207.16l.52-.06M471.53 210.04l-.5.06" stroke="#000" fill="none"/><path d="M543.9 203.26l-9.25-25-22.5 2.75.25 94 7.5 25.5 23.82-1.92z" stroke="#000" fill="#c1e4f7" filter="url(#h)"/><path d="M512.12 181.5l7.7 24.04M512.13 181.5l-.16-.5M519.8 205.53l.17.48M519.97 206.5v94M519.97 206.53V206M519.97 300.5v.5M543.47 203.08l-23 2.87M543.46 203.08l.5-.07M520.48 205.95l-.5.06" stroke="#000" fill="none"/><defs><filter id="a" filterUnits="objectBoundingBox" x="-.08" y="-.02" width="1.16" height="1.09"><feOffset result="offOut" in="SourceAlpha" dy="6"/><feGaussianBlur result="blurOut" in="offOut" stdDeviation="5"/><feColorMatrix result="colorOut" in="blurOut" values="0 0 0 0 0 0 0 0 0 0 0 0 0 0 0 0 0 0 0.5019607843137255 0"/><feBlend in="SourceGraphic" in2="colorOut"/></filter><filter id="b" filterUnits="objectBoundingBox" x="-.03" y="-.01" width="1.06" height="1.07"><feOffset result="offOut" in="SourceAlpha" dy="6"/><feGaussianBlur result="blurOut" in="offOut" stdDeviation="5"/><feColorMatrix result="colorOut" in="blurOut" values="0 0 0 0 0 0 0 0 0 0 0 0 0 0 0 0 0 0 0.5019607843137255 0"/><feBlend in="SourceGraphic" in2="colorOut"/></filter><path d="M1365-1009c68 170 68 416 0 586C1264-171 1053 0 710 0H174v-1433h536c343 5 555 172 655 424zM710-157c338-11 507-216 507-559s-169-560-507-560H369v1119h341" id="i"/><path d="M954-142C850-8 572 61 364-22 180-96 74-268 74-527c0-234 108-389 275-463 59-26 125-39 198-39 273 0 420 174 420 453 0 48-2 70-43 70H250c8 226 98 375 322 380 114 2 191-38 258-82 70-46 94 37 124 66zM807-617c-5-171-86-278-256-281-181-3-273 116-295 281h551" id="j"/><path d="M602 14c-133 0-212-47-278-119v448H146v-1356c60 6 147-22 154 37l15 120c80-93 179-175 341-175 282 0 383 224 383 518 0 237-92 406-253 487-54 27-116 40-184 40zm253-527c-3-212-53-374-258-374-136 0-207 69-273 153v490c57 77 121 120 238 120 207 0 295-164 293-389" id="k"/><path d="M698-76c-54 52-145 92-245 92-162 1-249-96-249-260v-620c-58-9-160 26-160-39v-71l166-21 41-313c4-50 80-30 131-34v349h290v129H382v608c-2 78 40 125 111 126 60 2 88-33 128-48 9 0 18 6 25 17" id="l"/><path d="M598-887c-125 2-207 68-274 141V0H146v-1473h178v596c81-82 173-152 326-152 232 0 339 151 339 384V0H811v-645c0-149-65-244-213-242" id="m"/><g id="c"><use transform="matrix(0.010755242676479817,0,0,0.010755242676479817,0,0)" xlink:href="#i"/><use transform="matrix(0.010755242676479817,0,0,0.010755242676479817,16.197395470778602,0)" xlink:href="#j"/><use transform="matrix(0.010755242676479817,0,0,0.010755242676479817,27.468889795729453,0)" xlink:href="#k"/><use transform="matrix(0.010755242676479817,0,0,0.010755242676479817,39.342677710563166,0)" xlink:href="#l"/><use transform="matrix(0.010755242676479817,0,0,0.010755242676479817,47.366088747217105,0)" xlink:href="#m"/></g><path d="M344-1013V0H166v-1013h178zm-88-446c77 0 128 52 128 128 0 75-52 126-128 126-75 0-126-51-126-126 0-76 50-128 126-128" id="n"/><path d="M409-112c121-3 207-52 207-167 0-134-157-142-264-181-133-48-263-98-263-275 0-197 153-290 360-294 139-3 243 49 317 118-26 35-46 114-111 76-53-31-114-63-202-61-108 3-195 44-195 147 0 129 158 136 262 175 128 48 263 93 263 264C783-89 627 12 400 16 255 19 139-39 62-107c27-41 57-128 128-81 57 38 118 78 219 76" id="o"/><path d="M584-856c-148 6-210 94-260 211V0H146v-1013c62 7 151-25 157 49l12 158c66-138 184-259 384-216 23 5 44 16 63 27l-23 133c-5 17-15 25-31 25-36 0-71-21-124-19" id="p"/><path d="M608 14c-142 0-221-61-286-144-9 50 6 130-55 130H152v-1473h179v606c78-87 176-162 331-162 283 0 384 222 384 516 0 237-93 406-254 487-54 27-116 40-184 40zm254-527c-2-212-53-374-258-374-136 0-207 69-273 153v490c56 77 120 120 237 120 208 0 296-164 294-389" id="q"/><path d="M461 16c-231 0-339-149-339-383v-646h178v646c0 148 67 243 213 241 125-2 207-66 274-140v-747h178V0c-60-6-146 22-154-37l-14-109C716-60 619 16 461 16" id="r"/><path d="M1038-507c0 321-164 521-482 521S72-187 72-507c0-248 107-410 284-485 60-25 126-37 200-37 317 0 482 201 482 522zm-782 1c0 225 80 381 300 381 213 0 298-159 298-381 0-223-84-383-298-383-221 0-300 158-300 383" id="s"/><path d="M598-887c-125 2-207 68-274 141V0H146v-1013c60 6 147-22 154 37l14 110c82-87 177-163 336-163 232 0 339 151 339 384V0H811v-645c0-149-65-244-213-242" id="t"/><g id="d"><use transform="matrix(0.010755242676479817,0,0,0.010755242676479817,0,0)" xlink:href="#i"/><use transform="matrix(0.010755242676479817,0,0,0.010755242676479817,16.197395470778602,0)" xlink:href="#n"/><use transform="matrix(0.010755242676479817,0,0,0.010755242676479817,21.704079721136267,0)" xlink:href="#o"/><use transform="matrix(0.010755242676479817,0,0,0.010755242676479817,31.03963036432075,0)" xlink:href="#l"/><use transform="matrix(0.010755242676479817,0,0,0.010755242676479817,39.0630414009747,0)" xlink:href="#p"/><use transform="matrix(0.010755242676479817,0,0,0.010755242676479817,47.73176699821744,0)" xlink:href="#n"/><use transform="matrix(0.010755242676479817,0,0,0.010755242676479817,53.23845124857509,0)" xlink:href="#q"/><use transform="matrix(0.010755242676479817,0,0,0.010755242676479817,65.26281256087952,0)" xlink:href="#r"/><use transform="matrix(0.010755242676479817,0,0,0.010755242676479817,77.22264241712509,0)" xlink:href="#l"/><use transform="matrix(0.010755242676479817,0,0,0.010755242676479817,85.24605345377903,0)" xlink:href="#n"/><use transform="matrix(0.010755242676479817,0,0,0.010755242676479817,90.75273770413669,0)" xlink:href="#s"/><use transform="matrix(0.010755242676479817,0,0,0.010755242676479817,102.71256756038225,0)" xlink:href="#t"/><use transform="matrix(0.010755242676479817,0,0,0.010755242676479817,114.6723974166278,0)" xlink:href="#o"/></g><path d="M404 0H210v-1433h194V0" id="u"/><path d="M550-887c-107 0-172 65-226 132V0H146v-1013c60 6 147-22 154 37l13 104c69-80 148-156 287-157 148-1 223 92 258 211 51-126 153-211 323-211 232 0 338 149 338 384V0h-178v-645c1-148-62-242-203-242-142 0-218 94-218 242V0H742v-645c1-149-54-242-192-242" id="v"/><path d="M537-1031c235 0 353 147 353 383V0c-58-5-129 17-142-42l-20-94C637-55 545 19 375 16 200 13 92-76 92-253c0-184 160-243 332-285 79-19 176-28 291-31 12-184-31-318-200-318-113 0-181 45-243 91-36 26-82 14-99-17l-32-57c101-96 215-161 396-161zM263-261c0 103 62 152 165 152 140 0 216-64 287-136v-211c-141 4-258 19-349 60-60 27-103 62-103 135" id="w"/><path d="M103-704c0-220 160-326 384-326 92 0 169 21 228 57h275c-2 53 13 100-42 108l-115 16c43 79 45 196 5 279-58 120-176 191-351 193-47 0-92-6-134-17-50 22-100 108-36 142 165 88 511-13 621 164 40 65 36 170-4 240-77 134-229 213-441 213-193 0-343-50-415-167-19-32-28-66-28-101 3-117 84-175 178-211-54-27-98-64-94-143 4-90 64-137 129-173-91-51-160-139-160-274zM334-85C254-53 162 38 224 138c97 157 586 133 579-83C799-63 659-58 543-68c-70-6-146-6-209-17zm-67-614c0 134 84 204 220 204 137 0 221-69 221-204 0-129-85-203-221-203-135 0-220 74-220 203" id="x"/><g id="e"><use transform="matrix(0.010755242676479817,0,0,0.010755242676479817,0,0)" xlink:href="#u"/><use transform="matrix(0.010755242676479817,0,0,0.010755242676479817,6.6037190033586075,0)" xlink:href="#v"/><use transform="matrix(0.010755242676479817,0,0,0.010755242676479817,24.263827478138467,0)" xlink:href="#w"/><use transform="matrix(0.010755242676479817,0,0,0.010755242676479817,35.169643552089,0)" xlink:href="#x"/><use transform="matrix(0.010755242676479817,0,0,0.010755242676479817,46.161501567451374,0)" xlink:href="#j"/></g><path d="M1057-1433v158H369v501h588v158H369V0H174v-1433h883" id="y"/><g id="f"><use transform="matrix(0.010755242676479817,0,0,0.010755242676479817,0,0)" xlink:href="#y"/><use transform="matrix(0.010755242676479817,0,0,0.010755242676479817,11.529620149186364,0)" xlink:href="#p"/><use transform="matrix(0.010755242676479817,0,0,0.010755242676479817,20.198345746429098,0)" xlink:href="#r"/><use transform="matrix(0.010755242676479817,0,0,0.010755242676479817,32.15817560267465,0)" xlink:href="#o"/><use transform="matrix(0.010755242676479817,0,0,0.010755242676479817,41.493726245859136,0)" xlink:href="#l"/><use transform="matrix(0.010755242676479817,0,0,0.010755242676479817,49.517137282513076,0)" xlink:href="#r"/><use transform="matrix(0.010755242676479817,0,0,0.010755242676479817,61.47696713875863,0)" xlink:href="#v"/></g><path d="M1344-139C1208-39 1036 20 799 16c-345-5-555-181-657-435-70-174-66-421 0-596 113-299 413-484 839-421 148 22 259 85 350 168l-55 88c-38 58-99 7-135-18-118-82-379-113-543-44-193 82-310 256-310 526 0 276 118 454 313 536 175 73 436 36 567-45v-316H946c-65 1-35-91-42-148h440v550" id="z"/><path d="M510-1031c133 0 210 49 277 120v-562h178V0c-60-6-146 21-154-37l-16-123C716-67 616 14 455 14 173 14 72-209 72-503c0-237 94-406 254-487 54-27 115-41 184-41zM256-503c2 212 53 373 258 373 136 0 207-69 273-153v-490c-57-77-121-119-237-119-208 0-296 164-294 389" id="A"/><g id="g"><use transform="matrix(0.010755242676479817,0,0,0.010755242676479817,0,0)" xlink:href="#z"/><use transform="matrix(0.010755242676479817,0,0,0.010755242676479817,15.788696249072371,0)" xlink:href="#p"/><use transform="matrix(0.010755242676479817,0,0,0.010755242676479817,24.457421846315103,0)" xlink:href="#n"/><use transform="matrix(0.010755242676479817,0,0,0.010755242676479817,29.96410609667277,0)" xlink:href="#A"/></g><filter id="h" filterUnits="objectBoundingBox" x="-.31" y="-.03" width="1.63" height="1.16"><feOffset result="offOut" in="SourceAlpha" dy="6"/><feGaussianBlur result="blurOut" in="offOut" stdDeviation="5"/><feColorMatrix result="colorOut" in="blurOut" values="0 0 0 0 0 0 0 0 0 0 0 0 0 0 0 0 0 0 0.5019607843137255 0"/><feBlend in="SourceGraphic" in2="colorOut"/></filter></defs></g></svg>