<?xml version="1.0" encoding="UTF-8" standalone="no"?>
<!-- Created with Inkscape (http://www.inkscape.org/) -->

<svg
   xmlns:dc="http://purl.org/dc/elements/1.1/"
   xmlns:cc="http://creativecommons.org/ns#"
   xmlns:rdf="http://www.w3.org/1999/02/22-rdf-syntax-ns#"
   xmlns:svg="http://www.w3.org/2000/svg"
   xmlns="http://www.w3.org/2000/svg"
   xmlns:sodipodi="http://sodipodi.sourceforge.net/DTD/sodipodi-0.dtd"
   xmlns:inkscape="http://www.inkscape.org/namespaces/inkscape"
   id="svg2"
   version="1.1"
   inkscape:version="0.91 r13725"
   xml:space="preserve"
   width="1118.3387"
   height="428.79187"
   viewBox="0 0 1118.3387 428.79187"
   sodipodi:docname="trail_R1.ai.svg"><metadata
     id="metadata8"><rdf:RDF><cc:Work
         rdf:about=""><dc:format>image/svg+xml</dc:format><dc:type
           rdf:resource="http://purl.org/dc/dcmitype/StillImage" /><dc:title></dc:title></cc:Work></rdf:RDF></metadata><defs
     id="defs6"><clipPath
       clipPathUnits="userSpaceOnUse"
       id="clipPath16"><path
         d="m 0,1080 1920,0 L 1920,0 0,0 0,1080 Z"
         id="path18"
         inkscape:connector-curvature="0" /></clipPath></defs><sodipodi:namedview
     pagecolor="#ffffff"
     bordercolor="#666666"
     borderopacity="1"
     objecttolerance="10"
     gridtolerance="10"
     guidetolerance="10"
     inkscape:pageopacity="0"
     inkscape:pageshadow="2"
     inkscape:window-width="1861"
     inkscape:window-height="966"
     id="namedview4"
     showgrid="false"
     fit-margin-top="0"
     fit-margin-left="0"
     fit-margin-right="0"
     fit-margin-bottom="0"
     showguides="true"
     inkscape:guide-bbox="true"
     inkscape:zoom="0.37240957"
     inkscape:cx="-616.58555"
     inkscape:cy="-206.94216"
     inkscape:window-x="59"
     inkscape:window-y="24"
     inkscape:window-maximized="1"
     inkscape:current-layer="g14"><sodipodi:guide
       position="795.80693,95.648734"
       orientation="0,1"
       id="guide3430" /><sodipodi:guide
       position="618.98732,162.34177"
       orientation="0,1"
       id="guide4233" /></sodipodi:namedview><g
     id="g10"
     inkscape:groupmode="layer"
     inkscape:label="trail_R1"
     transform="matrix(1.25,0,0,-1.25,-627.48175,902.26075)"><g
       id="g12"><g
         id="g14"
         clip-path="url(#clipPath16)"><path
           inkscape:connector-curvature="0"
           id="path22"
           style="fill:#000000;fill-opacity:1;fill-rule:nonzero;stroke:none"
           d="m 889.3174,455.1006 c -7.056,0 -13.89,2.788 -18.955,7.853 l -108.545,108.545 c -7.667,7.667 -9.96,19.198 -5.811,29.215 4.149,10.017 13.925,16.549 24.768,16.549 l 49.59,0 c 24.428,0 33.131,13.027 33.131,25.218 0,11.861 -8.677,25.711 -33.131,25.711 l -91.847,0 0,-182.282 c 0,-14.806 -11.62225,-30.79534 -26.42725,-30.79534 l -78.372,0 c -14.805,0 -27.18775,15.98934 -27.18775,30.79534 l 0,182.282 -77.737,0 c -14.806,0 -26.808,12.003 -26.808,26.808 0,14.806 12.002,26.809 26.808,26.809 l 104.545,0 c 14.806,0 26.809,-12.003 26.809,-26.809 l 0,-186.31082 24.755,0 0,186.31082 c 0,14.806 12.002,26.809 26.808,26.809 l 118.654,0 c 17.886,0 43.459,-4.187 63.716,-24.135 14.851,-14.624 23.03,-34.225 23.03,-55.193 0,-20.935 -8.17,-40.451 -23.006,-54.954 -9.415,-9.203 -25.224,-19.899 -49.493,-22.998 l 38.109,-38.109 96.908,181.222 c 4.656,8.709 13.725,14.152 23.601,14.167 l 0.038,0 c 9.863,0 18.929,-5.415 23.605,-14.101 l 107.131,-198.991 7.317,0 0,186.283 c 0,14.806 12.002,26.809 26.808,26.809 l 79.08,0 c 14.805,0 26.807,-12.003 26.807,-26.809 l 0,-186.283 95.833,0 c 14.806,0 26.808,-12.002 26.808,-26.807 0,-14.806 -12.002,-26.808 -26.808,-26.808 l -122.64,0 c -14.806,0 -26.808,12.002 -26.808,26.808 l 0,186.282 -25.465,0 0,-186.282 c 0,-14.806 -12.002,-26.808 -26.807,-26.808 l -50.139,0 c -9.862,0 -18.929,5.415 -23.605,14.1 l -91.037,169.098 -90.388,-169.032 c -4.003,-7.484 -11.313,-12.632 -19.709,-13.877 -1.312,-0.194 -2.627,-0.289 -3.933,-0.29"
           sodipodi:nodetypes="cssssssscsssscsssssccssscscccccscccsssscsssssccsssccccc" /><g
           id="g24"
           transform="translate(525.3267,412.8633)"><path
             d="m 0,0 -9.318,0 0,8.256 28.249,0 0,-8.256 -9.377,0 0,-33.026 -9.554,0 L 0,0 Z"
             style="fill:#000000;fill-opacity:1;fill-rule:nonzero;stroke:none"
             id="path26"
             inkscape:connector-curvature="0" /></g><g
           id="g28"
           transform="translate(580.8228,400.4785)"><path
             d="m 0,0 c 0,6.782 -4.6,13.092 -12.09,13.092 -7.549,0 -12.09,-6.31 -12.09,-13.092 0,-6.782 4.541,-13.093 12.09,-13.093 C -4.6,-13.093 0,-6.782 0,0 m -33.97,0 c 0,11.323 8.139,21.702 21.88,21.702 C 1.592,21.702 9.731,11.323 9.731,0 c 0,-11.323 -8.139,-21.703 -21.821,-21.703 -13.741,0 -21.88,10.38 -21.88,21.703"
             style="fill:#000000;fill-opacity:1;fill-rule:nonzero;stroke:none"
             id="path30"
             inkscape:connector-curvature="0" /></g><g
           id="g32"
           transform="translate(607.4219,413.335)"><path
             d="m 0,0 0,-14.272 6.546,0 c 4.011,0 6.605,3.302 6.605,7.136 C 13.151,-3.303 10.557,0 6.546,0 L 0,0 Z m -9.554,7.784 17.339,0 c 9.141,0 15.038,-6.899 15.038,-14.92 0,-5.78 -3.066,-10.911 -8.197,-13.329 l 8.256,-13.033 -11.087,0 -7.313,11.441 -4.482,0 0,-11.441 -9.554,0 0,41.282 z"
             style="fill:#000000;fill-opacity:1;fill-rule:nonzero;stroke:none"
             id="path34"
             inkscape:connector-curvature="0" /></g><g
           id="g36"
           transform="translate(669.8188,400.4785)"><path
             d="m 0,0 c 0,6.782 -4.6,13.092 -12.09,13.092 -7.549,0 -12.09,-6.31 -12.09,-13.092 0,-6.782 4.541,-13.093 12.09,-13.093 C -4.6,-13.093 0,-6.782 0,0 m -33.97,0 c 0,11.323 8.139,21.702 21.88,21.702 C 1.592,21.702 9.731,11.323 9.731,0 c 0,-11.323 -8.139,-21.703 -21.821,-21.703 -13.741,0 -21.88,10.38 -21.88,21.703"
             style="fill:#000000;fill-opacity:1;fill-rule:nonzero;stroke:none"
             id="path38"
             inkscape:connector-curvature="0" /></g><g
           id="g40"
           transform="translate(711.2803,379.8369)"><path
             d="m 0,0 -14.862,26.539 0,-26.539 -9.554,0 0,41.282 9.967,0 14.921,-26.892 0,26.892 9.495,0 L 9.967,0 0,0 Z"
             style="fill:#000000;fill-opacity:1;fill-rule:nonzero;stroke:none"
             id="path42"
             inkscape:connector-curvature="0" /></g><g
           id="g44"
           transform="translate(736.8765,412.8633)"><path
             d="m 0,0 -9.318,0 0,8.256 28.249,0 0,-8.256 -9.377,0 0,-33.026 -9.554,0 L 0,0 Z"
             style="fill:#000000;fill-opacity:1;fill-rule:nonzero;stroke:none"
             id="path46"
             inkscape:connector-curvature="0" /></g><g
           id="g48"
           transform="translate(792.3726,400.4785)"><path
             d="m 0,0 c 0,6.782 -4.6,13.092 -12.09,13.092 -7.549,0 -12.09,-6.31 -12.09,-13.092 0,-6.782 4.541,-13.093 12.09,-13.093 C -4.6,-13.093 0,-6.782 0,0 m -33.97,0 c 0,11.323 8.139,21.702 21.88,21.702 C 1.592,21.702 9.731,11.323 9.731,0 c 0,-11.323 -8.139,-21.703 -21.821,-21.703 -13.741,0 -21.88,10.38 -21.88,21.703"
             style="fill:#000000;fill-opacity:1;fill-rule:nonzero;stroke:none"
             id="path50"
             inkscape:connector-curvature="0" /></g><g
           id="g52"
           transform="translate(834.7773,413.335)"><path
             d="m 0,0 0,-14.272 6.546,0 c 4.011,0 6.605,3.302 6.605,7.136 C 13.151,-3.303 10.557,0 6.546,0 L 0,0 Z m -9.554,7.784 17.339,0 c 9.141,0 15.038,-6.899 15.038,-14.92 0,-5.78 -3.066,-10.911 -8.197,-13.329 l 8.256,-13.033 -11.087,0 -7.313,11.441 -4.482,0 0,-11.441 -9.554,0 0,41.282 z"
             style="fill:#000000;fill-opacity:1;fill-rule:nonzero;stroke:none"
             id="path54"
             inkscape:connector-curvature="0" /></g><g
           id="g56"
           transform="translate(897.1743,400.4785)"><path
             d="m 0,0 c 0,6.782 -4.6,13.092 -12.09,13.092 -7.549,0 -12.09,-6.31 -12.09,-13.092 0,-6.782 4.541,-13.093 12.09,-13.093 C -4.6,-13.093 0,-6.782 0,0 m -33.97,0 c 0,11.323 8.139,21.702 21.88,21.702 C 1.592,21.702 9.731,11.323 9.731,0 c 0,-11.323 -8.139,-21.703 -21.821,-21.703 -13.741,0 -21.88,10.38 -21.88,21.703"
             style="fill:#000000;fill-opacity:1;fill-rule:nonzero;stroke:none"
             id="path58"
             inkscape:connector-curvature="0" /></g><g
           id="g60"
           transform="translate(923.4785,387.1494)"><path
             d="m 0,0 5.957,0 c 4.659,0 5.72,3.008 5.72,5.131 0,1.829 -1.061,5.014 -5.661,5.014 L 0,10.145 0,0 Z m 0,17.162 5.721,0 c 4.659,0 5.72,2.89 5.72,4.954 0,1.828 -0.884,4.836 -5.72,4.836 l -5.721,0 0,-9.79 z m -9.495,16.808 17.103,0 c 11.323,0 13.387,-7.254 13.387,-11.559 0,-5.426 -3.715,-8.08 -6.546,-8.847 2.418,-0.589 6.9,-3.007 6.9,-9.082 0,-4.304 -2.064,-11.794 -13.388,-11.794 l -17.456,0 0,41.282 z"
             style="fill:#000000;fill-opacity:1;fill-rule:nonzero;stroke:none"
             id="path62"
             inkscape:connector-curvature="0" /></g><g
           id="g64"
           transform="translate(984.9316,400.4785)"><path
             d="m 0,0 c 0,6.782 -4.6,13.092 -12.09,13.092 -7.549,0 -12.089,-6.31 -12.089,-13.092 0,-6.782 4.54,-13.093 12.089,-13.093 C -4.6,-13.093 0,-6.782 0,0 m -33.969,0 c 0,11.323 8.138,21.702 21.879,21.702 C 1.593,21.702 9.731,11.323 9.731,0 c 0,-11.323 -8.138,-21.703 -21.821,-21.703 -13.741,0 -21.879,10.38 -21.879,21.703"
             style="fill:#000000;fill-opacity:1;fill-rule:nonzero;stroke:none"
             id="path66"
             inkscape:connector-curvature="0" /></g><g
           id="g68"
           transform="translate(1006.46,412.8633)"><path
             d="m 0,0 -9.318,0 0,8.256 28.249,0 0,-8.256 -9.377,0 0,-33.026 -9.554,0 L 0,0 Z"
             style="fill:#000000;fill-opacity:1;fill-rule:nonzero;stroke:none"
             id="path70"
             inkscape:connector-curvature="0" /></g><path
           d="m 1031.701,421.119 9.672,0 0,-41.282 -9.672,0 0,41.282 z"
           style="fill:#000000;fill-opacity:1;fill-rule:nonzero;stroke:none"
           id="path72"
           inkscape:connector-curvature="0" /><g
           id="g74"
           transform="translate(1081.416,405.0781)"><path
             d="M 0,0 C -0.885,4.836 -4.6,8.492 -10.497,8.492 -18.577,8.492 -23,2.241 -23,-4.541 c 0,-7.254 4.718,-13.151 12.975,-13.151 4.659,0 8.787,3.126 9.908,7.254 l 10.143,0 c -1.592,-8.788 -9.2,-15.865 -20.583,-15.865 -13.918,0 -22.173,10.144 -22.173,21.762 0,11.265 8.137,21.644 21.643,21.644 C 1.711,17.103 8.787,9.437 9.967,0 L 0,0 Z"
             style="fill:#000000;fill-opacity:1;fill-rule:nonzero;stroke:none"
             id="path76"
             inkscape:connector-curvature="0" /></g><g
           id="g78"
           transform="translate(1106.541,393.5195)"><path
             d="m 0,0 c 0,-4.482 2.713,-7.137 6.605,-7.137 3.067,0 5.426,1.947 5.426,4.836 0,3.303 -2.831,4.424 -6.428,5.78 -7.608,2.772 -13.977,5.19 -13.977,13.565 0,7.607 6.959,11.617 14.508,11.617 9.79,0 14.684,-6.133 14.684,-13.151 l -9.553,0 c 0,3.657 -1.828,5.957 -5.131,5.957 -2.713,0 -5.013,-1.416 -5.013,-4.246 0,-2.713 2.418,-4.188 5.898,-5.426 6.782,-2.359 14.507,-5.072 14.507,-13.329 0,-8.492 -6.428,-13.21 -15.51,-13.21 -8.847,0 -15.57,5.307 -15.57,14.744 L 0,0 Z"
             style="fill:#000000;fill-opacity:1;fill-rule:nonzero;stroke:none"
             id="path80"
             inkscape:connector-curvature="0" /></g><g
           id="g82"
           transform="translate(1225.3184,392.3398)"><path
             d="M 0,0 10.025,0 5.072,16.984 0,0 Z m 0.648,28.779 8.788,0 14.92,-41.282 -10.379,0 -1.592,5.013 -14.685,0 -1.593,-5.013 -10.202,0 14.743,41.282 z"
             style="fill:#000000;fill-opacity:1;fill-rule:nonzero;stroke:none"
             id="path84"
             inkscape:connector-curvature="0" /></g><path
           d="m 1255.338,421.119 9.672,0 0,-41.282 -9.672,0 0,41.282 z"
           style="fill:#000000;fill-opacity:1;fill-rule:nonzero;stroke:none"
           id="path86"
           inkscape:connector-curvature="0" /><g
           id="g88"
           transform="translate(1290.1924,421.1191)"><path
             d="m 0,0 9.554,0 0,-33.025 11.736,0 0,-8.257 -21.29,0 L 0,0 Z"
             style="fill:#000000;fill-opacity:1;fill-rule:nonzero;stroke:none"
             id="path90"
             inkscape:connector-curvature="0" /></g><g
           id="g92"
           transform="translate(1328.7617,392.3398)"><path
             d="M 0,0 10.025,0 5.072,16.984 0,0 Z m 0.648,28.779 8.788,0 14.92,-41.282 -10.379,0 -1.592,5.013 -14.685,0 -1.593,-5.013 -10.202,0 14.743,41.282 z"
             style="fill:#000000;fill-opacity:1;fill-rule:nonzero;stroke:none"
             id="path94"
             inkscape:connector-curvature="0" /></g><g
           id="g96"
           transform="translate(1368.041,387.1494)"><path
             d="m 0,0 5.956,0 c 4.659,0 5.721,3.008 5.721,5.131 0,1.829 -1.062,5.014 -5.662,5.014 L 0,10.145 0,0 Z m 0,17.162 5.72,0 c 4.659,0 5.72,2.89 5.72,4.954 0,1.828 -0.884,4.836 -5.72,4.836 l -5.72,0 0,-9.79 z m -9.495,16.808 17.102,0 c 11.324,0 13.388,-7.254 13.388,-11.559 0,-5.426 -3.716,-8.08 -6.547,-8.847 2.418,-0.589 6.901,-3.007 6.901,-9.082 0,-4.304 -2.065,-11.794 -13.388,-11.794 l -17.456,0 0,41.282 z"
             style="fill:#000000;fill-opacity:1;fill-rule:nonzero;stroke:none"
             id="path98"
             inkscape:connector-curvature="0" /></g><path
           d="m 1167.828,421.128 9.674,0 0,-41.29 -9.674,0 0,41.29 z"
           style="fill:#000000;fill-opacity:1;fill-rule:nonzero;stroke:none"
           id="path100"
           inkscape:connector-curvature="0" /><path
           d="m 1193.31,395.646 -41.29,0 0,9.674 41.29,0 0,-9.674 z"
           style="fill:#000000;fill-opacity:1;fill-rule:nonzero;stroke:none"
           id="path102"
           inkscape:connector-curvature="0" /></g></g></g></svg>